<svg width="100" height="100" viewBox="0 0 100 100" fill="none" xmlns="http://www.w3.org/2000/svg">
<g id="doctor-health-healthcare-hospital-medical-medicine-svgrepo-com 1">
<path id="Vector" d="M48.0244 80.5464C44.8672 80.5451 41.8398 79.29 39.6078 77.0571C37.3758 74.8242 36.1219 71.7962 36.1219 68.6391V67.2927C36.1219 67.0987 36.199 66.9125 36.3363 66.7753C36.4735 66.6381 36.6596 66.561 36.8537 66.561H39.0488C39.2428 66.561 39.429 66.6381 39.5662 66.7753C39.7034 66.9125 39.7805 67.0987 39.7805 67.2927V68.6391C39.7805 73.1854 43.478 76.8878 48.0244 76.8878C52.5707 76.8878 56.2732 73.1854 56.2732 68.6391V41.2781C56.2732 36.1122 60.478 31.9073 65.6439 31.9073C70.8097 31.9073 75.0195 36.1122 75.0195 41.2781V44.7756C75.0195 44.9697 74.9424 45.1558 74.8052 45.293C74.668 45.4303 74.4819 45.5074 74.2878 45.5074H72.0927C71.8986 45.5074 71.7125 45.4303 71.5753 45.293C71.4381 45.1558 71.361 44.9697 71.361 44.7756V41.2781C71.361 38.1269 68.7951 35.5659 65.6439 35.5659C64.1293 35.5672 62.6772 36.1694 61.6062 37.2404C60.5352 38.3113 59.933 39.7635 59.9317 41.2781V68.6391C59.9317 71.7971 58.6772 74.8257 56.4441 77.0588C54.2111 79.2919 51.1824 80.5464 48.0244 80.5464ZM37.5854 68.0244V68.6391C37.5553 70.0292 37.8032 71.4114 38.3144 72.7045C38.8256 73.9977 39.5899 75.1757 40.5625 76.1695C41.5351 77.1633 42.6963 77.9529 43.978 78.4919C45.2598 79.031 46.6363 79.3087 48.0268 79.3087C49.4173 79.3087 50.7938 79.031 52.0756 78.4919C53.3574 77.9529 54.5186 77.1633 55.4911 76.1695C56.4637 75.1757 57.228 73.9977 57.7392 72.7045C58.2505 71.4114 58.4983 70.0292 58.4683 68.6391V41.2781C58.4683 37.322 61.6878 34.1025 65.6439 34.1025C69.6 34.1025 72.8244 37.322 72.8244 41.2781V44.0439H73.5561V41.2781C73.5561 36.9171 70.0049 33.3708 65.6439 33.3708C61.2829 33.3708 57.7366 36.9171 57.7366 41.2781V68.6391C57.7366 73.9952 53.3805 78.3512 48.0244 78.3512C42.6683 78.3512 38.3171 73.9952 38.3171 68.6391V68.0244H37.5854Z" fill="#78B7FF"/>
<path id="Vector_2" d="M37.9366 61.7756L37.4293 61.7659C37.365 61.7621 37.3047 61.7336 37.261 61.6863C37.2174 61.639 37.1937 61.5766 37.1951 61.5122C37.1964 61.4802 37.2039 61.4487 37.2174 61.4196C37.2308 61.3905 37.2498 61.3643 37.2734 61.3426C37.297 61.3208 37.3246 61.3039 37.3547 61.2929C37.3848 61.2818 37.4167 61.2768 37.4488 61.2781L37.9366 61.2878C38.7321 61.2867 39.5257 61.2115 40.3073 61.0635C40.3399 61.0546 40.374 61.0525 40.4074 61.0575C40.4408 61.0624 40.4728 61.0743 40.5014 61.0923C40.53 61.1102 40.5545 61.134 40.5735 61.1619C40.5924 61.1899 40.6054 61.2215 40.6115 61.2547C40.6176 61.2879 40.6167 61.322 40.6089 61.3549C40.6012 61.3878 40.5866 61.4186 40.5663 61.4456C40.546 61.4726 40.5202 61.495 40.4908 61.5115C40.4613 61.528 40.4287 61.5382 40.3951 61.5415C39.5849 61.6976 38.7617 61.776 37.9366 61.7756ZM34.5512 61.3269L34.4878 61.3171C33.5294 61.0534 32.6033 60.6836 31.7268 60.2147C31.6982 60.1998 31.6728 60.1793 31.6521 60.1545C31.6314 60.1297 31.6158 60.1011 31.6063 60.0702C31.5967 60.0394 31.5934 60.0069 31.5966 59.9748C31.5997 59.9426 31.6091 59.9114 31.6244 59.883C31.6392 59.8542 31.6597 59.8288 31.6846 59.8082C31.7095 59.7877 31.7384 59.7723 31.7694 59.7632C31.8004 59.7541 31.8329 59.7514 31.865 59.7552C31.8971 59.759 31.9281 59.7693 31.9561 59.7854C32.8001 60.2398 33.6939 60.595 34.6195 60.8439C34.6827 60.854 34.7394 60.8884 34.7774 60.9399C34.8154 60.9913 34.8316 61.0556 34.8227 61.119C34.8137 61.1823 34.7803 61.2396 34.7295 61.2784C34.6787 61.3173 34.6147 61.3347 34.5512 61.3269ZM43.1366 60.6781C43.0897 60.6779 43.0438 60.664 43.0048 60.6379C42.9658 60.6119 42.9353 60.575 42.9171 60.5317C42.8907 60.4729 42.8887 60.4059 42.9116 60.3456C42.9344 60.2852 42.9802 60.2364 43.039 60.2098C43.9144 59.8226 44.7425 59.3365 45.5073 58.761C45.5595 58.7234 45.6242 58.7075 45.6879 58.7166C45.7515 58.7257 45.8092 58.7591 45.8488 58.8098C45.8686 58.8352 45.8832 58.8643 45.8915 58.8954C45.8998 58.9265 45.9017 58.959 45.8972 58.9909C45.8926 59.0228 45.8817 59.0535 45.865 59.081C45.8483 59.1086 45.8262 59.1325 45.8 59.1513C45.0055 59.748 44.1465 60.2537 43.239 60.6586C43.2066 60.6721 43.1717 60.6787 43.1366 60.6781ZM29.4439 58.5757C29.3841 58.5758 29.3265 58.5531 29.2829 58.5122C28.5341 57.8562 27.8631 57.1164 27.2829 56.3074C27.2643 56.2815 27.2511 56.2523 27.244 56.2212C27.2368 56.1902 27.236 56.1581 27.2414 56.1268C27.2469 56.0954 27.2585 56.0655 27.2757 56.0387C27.2929 56.0119 27.3152 55.9888 27.3415 55.9708C27.3674 55.9518 27.3968 55.9382 27.428 55.9306C27.4592 55.923 27.4916 55.9217 27.5233 55.9267C27.5551 55.9317 27.5855 55.9429 27.6129 55.9596C27.6403 55.9764 27.6641 55.9984 27.6829 56.0244C28.2409 56.8025 28.8857 57.5144 29.6049 58.1464C29.6533 58.1895 29.6829 58.2499 29.6875 58.3146C29.692 58.3793 29.6712 58.4432 29.6293 58.4927C29.6058 58.5186 29.5771 58.5393 29.5452 58.5535C29.5133 58.5678 29.4788 58.5753 29.4439 58.5757ZM47.7756 57.1952C47.7294 57.1948 47.6843 57.1813 47.6455 57.1563C47.6067 57.1312 47.5758 57.0957 47.5563 57.0538C47.5369 57.0119 47.5298 56.9654 47.5358 56.9196C47.5418 56.8738 47.5607 56.8306 47.5902 56.7952C48.2071 56.0625 48.739 55.2623 49.1756 54.4098C49.1885 54.3788 49.2076 54.3509 49.2318 54.3276C49.256 54.3044 49.2847 54.2864 49.3162 54.2748C49.3477 54.2632 49.3812 54.2581 49.4147 54.26C49.4482 54.262 49.4809 54.2708 49.5108 54.2859C49.5408 54.301 49.5672 54.3222 49.5886 54.348C49.61 54.3738 49.6259 54.4038 49.6351 54.436C49.6444 54.4683 49.647 54.5021 49.6426 54.5353C49.6382 54.5686 49.627 54.6006 49.6098 54.6293C49.1577 55.5151 48.6062 56.3465 47.9659 57.1074C47.9427 57.1352 47.9136 57.1575 47.8806 57.1727C47.8477 57.1879 47.8119 57.1956 47.7756 57.1952ZM26.0585 53.8635C26.0105 53.8626 25.9638 53.8479 25.924 53.821C25.8842 53.7942 25.853 53.7564 25.8341 53.7122C25.4527 52.7934 25.1762 51.8345 25.0098 50.8537C25.0042 50.8223 25.005 50.79 25.0121 50.7589C25.0192 50.7278 25.0324 50.6984 25.0511 50.6725C25.0697 50.6466 25.0934 50.6246 25.1206 50.608C25.1479 50.5914 25.1782 50.5804 25.2098 50.5757C25.2413 50.5694 25.2737 50.5696 25.3051 50.5764C25.3365 50.5832 25.3662 50.5964 25.3923 50.6152C25.4183 50.634 25.4403 50.6579 25.4567 50.6855C25.4732 50.7131 25.4837 50.7438 25.4878 50.7756C25.6497 51.7194 25.9163 52.6422 26.2829 53.5269C26.2956 53.5563 26.3023 53.5879 26.3025 53.6199C26.3027 53.652 26.2965 53.6837 26.2842 53.7133C26.2719 53.7429 26.2538 53.7697 26.231 53.7921C26.2081 53.8146 26.181 53.8322 26.1512 53.8439C26.1223 53.8578 26.0905 53.8645 26.0585 53.8635ZM50.4195 52.0293L50.361 52.0196C50.2983 52.0045 50.2442 51.9653 50.2104 51.9104C50.1766 51.8556 50.1658 51.7896 50.1805 51.7269C50.4127 50.7978 50.5387 49.8453 50.5561 48.8878C50.5561 48.8554 50.5626 48.8233 50.5751 48.7934C50.5877 48.7635 50.6061 48.7363 50.6293 48.7136C50.6524 48.6909 50.6799 48.6731 50.71 48.6611C50.7402 48.6491 50.7724 48.6433 50.8049 48.6439C50.8687 48.6476 50.9289 48.6753 50.9732 48.7214C51.0175 48.7676 51.0428 48.8288 51.0439 48.8927C51.0263 49.8878 50.897 50.8777 50.6585 51.8439C50.6446 51.8968 50.6136 51.9436 50.5704 51.9771C50.5272 52.0106 50.4742 52.029 50.4195 52.0293ZM25.0732 48.1415C25.0085 48.1415 24.9464 48.1158 24.9007 48.0701C24.855 48.0243 24.8293 47.9623 24.8293 47.8976V44.9708C24.8293 44.9061 24.855 44.844 24.9007 44.7983C24.9464 44.7526 25.0085 44.7269 25.0732 44.7269C25.1379 44.7269 25.1999 44.7526 25.2456 44.7983C25.2914 44.844 25.3171 44.9061 25.3171 44.9708V47.8976C25.3171 47.9623 25.2914 48.0243 25.2456 48.0701C25.1999 48.1158 25.1379 48.1415 25.0732 48.1415ZM50.8 46.2049C50.7353 46.2049 50.6733 46.1792 50.6275 46.1335C50.5818 46.0877 50.5561 46.0257 50.5561 45.961V43.0342C50.5561 42.9695 50.5818 42.9075 50.6275 42.8617C50.6733 42.816 50.7353 42.7903 50.8 42.7903C50.8647 42.7903 50.9267 42.816 50.9725 42.8617C51.0182 42.9075 51.0439 42.9695 51.0439 43.0342V45.961C51.0439 46.0257 51.0182 46.0877 50.9725 46.1335C50.9267 46.1792 50.8647 46.2049 50.8 46.2049Z" fill="#78B7FF"/>
<path id="Vector_3" d="M26.2049 43.7658H24.0098C23.8157 43.7658 23.6296 43.6887 23.4924 43.5515C23.3551 43.4143 23.2781 43.2282 23.2781 43.0341V28.9512C23.2806 27.5591 23.8351 26.2248 24.82 25.2409C25.8048 24.2569 27.1396 23.7037 28.5317 23.7024C28.7258 23.7024 28.9119 23.7795 29.0491 23.9167C29.1863 24.0539 29.2634 24.24 29.2634 24.4341V26.6292C29.2634 26.8233 29.1863 27.0094 29.0491 27.1466C28.9119 27.2838 28.7258 27.3609 28.5317 27.3609C28.1095 27.3609 27.7045 27.5283 27.4055 27.8264C27.1065 28.1245 26.9379 28.529 26.9366 28.9512V43.0341C26.9366 43.2282 26.8595 43.4143 26.7223 43.5515C26.5851 43.6887 26.3989 43.7658 26.2049 43.7658ZM24.7415 42.3024H25.4732V28.9512C25.4757 28.2684 25.706 27.606 26.1274 27.0688C26.5489 26.5316 27.1375 26.1503 27.8 25.9853V25.239C26.9398 25.4092 26.1651 25.8719 25.6076 26.5487C25.05 27.2254 24.744 28.0743 24.7415 28.9512V42.3024Z" fill="#2E3A58"/>
<path id="Vector_4" d="M51.8878 43.7658H49.6927C49.4986 43.7658 49.3125 43.6887 49.1753 43.5515C49.0381 43.4143 48.961 43.2282 48.961 43.0341V28.9512C48.961 28.5294 48.7934 28.1249 48.4952 27.8267C48.197 27.5285 47.7925 27.3609 47.3707 27.3609C47.1767 27.3609 46.9906 27.2838 46.8533 27.1466C46.7161 27.0094 46.639 26.8233 46.639 26.6292V24.4341C46.639 24.24 46.7161 24.0539 46.8533 23.9167C46.9906 23.7795 47.1767 23.7024 47.3707 23.7024C48.7624 23.7037 50.0967 24.2571 51.0807 25.2412C52.0648 26.2252 52.6182 27.5595 52.6195 28.9512V43.0341C52.6195 43.2282 52.5424 43.4143 52.4052 43.5515C52.268 43.6887 52.0819 43.7658 51.8878 43.7658ZM50.4244 42.3024H51.1561V28.9512C51.1548 28.0748 50.8498 27.2259 50.293 26.5491C49.7362 25.8723 48.9621 25.4093 48.1024 25.239V25.9853C48.7645 26.1505 49.3525 26.5319 49.7731 27.0692C50.1937 27.6065 50.4229 28.2688 50.4244 28.9512V42.3024Z" fill="#2E3A58"/>
<path id="Vector_5" d="M40.7463 68.0244H35.1561C34.962 68.0244 34.7759 67.9473 34.6387 67.8101C34.5015 67.6729 34.4244 67.4868 34.4244 67.2927V63.6342C30.9933 62.8356 27.9336 60.8991 25.7432 58.1401C23.5528 55.3811 22.3607 51.9619 22.361 48.4391V43.0342C22.361 42.8401 22.4381 42.654 22.5753 42.5168C22.7125 42.3796 22.8986 42.3025 23.0927 42.3025H26.9951C27.1888 42.3038 27.3742 42.3813 27.5111 42.5182C27.6481 42.6552 27.7256 42.8405 27.7268 43.0342V48.4391C27.7268 51.1508 28.804 53.7514 30.7215 55.6688C32.6389 57.5863 35.2395 58.6635 37.9512 58.6635C40.6629 58.6635 43.2635 57.5863 45.181 55.6688C47.0984 53.7514 48.1756 51.1508 48.1756 48.4391V43.0342C48.1769 42.8405 48.2544 42.6552 48.3913 42.5182C48.5283 42.3813 48.7137 42.3038 48.9073 42.3025H52.8098C53.0038 42.3025 53.1899 42.3796 53.3272 42.5168C53.4644 42.654 53.5415 42.8401 53.5415 43.0342V48.4391C53.5418 51.9619 52.3497 55.3811 50.1593 58.1401C47.9689 60.8991 44.9091 62.8356 41.4781 63.6342V67.2927C41.4781 67.4868 41.401 67.6729 41.2637 67.8101C41.1265 67.9473 40.9404 68.0244 40.7463 68.0244ZM35.8878 66.561H40.0146V63.0391C40.0141 62.8688 40.0734 62.7037 40.1822 62.5726C40.2909 62.4416 40.4423 62.3529 40.6098 62.322C43.8366 61.7008 46.7464 59.9753 48.8392 57.4418C50.932 54.9084 52.0772 51.7252 52.0781 48.4391V43.7659H49.639V48.4391C49.639 49.9739 49.3367 51.4938 48.7493 52.9118C48.162 54.3298 47.3011 55.6183 46.2157 56.7036C45.1304 57.7889 43.842 58.6498 42.424 59.2372C41.0059 59.8246 39.4861 60.1269 37.9512 60.1269C36.4164 60.1269 34.8965 59.8246 33.4785 59.2372C32.0605 58.6498 30.772 57.7889 29.6867 56.7036C28.6014 55.6183 27.7405 54.3298 27.1531 52.9118C26.5657 51.4938 26.2634 49.9739 26.2634 48.4391V43.7659H23.8244V48.4391C23.8252 51.7252 24.9704 54.9084 27.0632 57.4418C29.1561 59.9753 32.0658 61.7008 35.2927 62.322C35.4602 62.3529 35.6115 62.4416 35.7203 62.5726C35.829 62.7037 35.8883 62.8688 35.8878 63.0391V66.561Z" fill="#2E3A58"/>
<path id="Vector_6" d="M77.0244 45.8585C77.878 47.0788 78.2745 48.5608 78.1443 50.0443C78.0142 51.5278 77.3657 52.9181 76.3126 53.9712C75.2596 55.0242 73.8693 55.6727 72.3858 55.8029C70.9023 55.933 69.4203 55.5365 68.2 54.6829C68.7305 55.4413 69.4207 56.0743 70.2221 56.5374C71.0235 57.0005 71.9166 57.2824 72.8386 57.3632C73.7606 57.4441 74.6891 57.3221 75.5589 57.0056C76.4287 56.6892 77.2186 56.186 77.873 55.5315C78.5275 54.8771 79.0306 54.0872 79.3471 53.2174C79.6635 52.3477 79.7856 51.4191 79.7047 50.4971C79.6238 49.5751 79.3419 48.682 78.8789 47.8806C78.4158 47.0792 77.7828 46.389 77.0244 45.8585Z" fill="#E0E1E2"/>
<path id="Vector_7" d="M73.3951 58.1219C69.5024 58.1219 66.3317 54.9512 66.3317 51.0536C66.3317 47.1561 69.5024 43.9854 73.3951 43.9854C77.2878 43.9854 80.4634 47.1561 80.4634 51.0536C80.4634 54.9512 77.2927 58.1219 73.3951 58.1219ZM73.3951 45.4488C70.3073 45.4488 67.7951 47.9658 67.7951 51.0536C67.7951 54.1414 70.3073 56.6585 73.3951 56.6585C74.8816 56.6585 76.3073 56.068 77.3584 55.0169C78.4095 53.9658 79 52.5401 79 51.0536C79 49.5671 78.4095 48.1415 77.3584 47.0904C76.3073 46.0393 74.8816 45.4488 73.3951 45.4488Z" fill="#2E3A58"/>
<path id="Vector_8" d="M74.4781 49.9757V47.8147H72.3171V49.9757H70.1561V52.1367H72.3171V54.2927H74.4781V52.1367H76.639V49.9757H74.4781Z" fill="#78B7FF"/>
<path id="Vector_9" d="M30.6098 30.1365C30.2408 30.1365 29.8754 30.0639 29.5345 29.9227C29.1936 29.7815 28.8839 29.5745 28.623 29.3136C28.362 29.0527 28.1551 28.7429 28.0139 28.402C27.8727 28.0611 27.8 27.6958 27.8 27.3268V23.7365C27.8302 23.011 28.1397 22.3252 28.6638 21.8225C29.1879 21.3197 29.886 21.0391 30.6122 21.0391C31.3384 21.0391 32.0365 21.3197 32.5606 21.8225C33.0847 22.3252 33.3942 23.011 33.4244 23.7365V27.3268C33.4231 28.0724 33.126 28.7871 32.5983 29.3139C32.0706 29.8407 31.3554 30.1365 30.6098 30.1365ZM30.6098 22.3902C30.2531 22.3915 29.9114 22.5338 29.6592 22.786C29.407 23.0382 29.2647 23.3799 29.2634 23.7365V27.3268C29.2841 27.6705 29.4352 27.9933 29.6859 28.2294C29.9366 28.4654 30.2679 28.5969 30.6122 28.5969C30.9565 28.5969 31.2878 28.4654 31.5385 28.2294C31.7892 27.9933 31.9403 27.6705 31.961 27.3268V23.7365C31.9597 23.379 31.8168 23.0366 31.5635 22.7842C31.3102 22.5319 30.9673 22.3902 30.6098 22.3902Z" fill="#78B7FF"/>
<path id="Vector_10" d="M45.2927 30.1365C44.547 30.1365 43.8319 29.8407 43.3042 29.3139C42.7764 28.7871 42.4793 28.0724 42.478 27.3268V23.7365C42.5083 23.011 42.8178 22.3252 43.3419 21.8225C43.8659 21.3197 44.564 21.0391 45.2902 21.0391C46.0164 21.0391 46.7145 21.3197 47.2386 21.8225C47.7627 22.3252 48.0722 23.011 48.1024 23.7365V27.3268C48.1024 28.072 47.8064 28.7867 47.2795 29.3136C46.7525 29.8405 46.0379 30.1365 45.2927 30.1365ZM45.2927 22.3902C44.9352 22.3902 44.5922 22.5319 44.3389 22.7842C44.0857 23.0366 43.9427 23.379 43.9415 23.7365V27.3268C43.9621 27.6705 44.1132 27.9933 44.3639 28.2294C44.6146 28.4654 44.9459 28.5969 45.2902 28.5969C45.6346 28.5969 45.9659 28.4654 46.2166 28.2294C46.4672 27.9933 46.6183 27.6705 46.639 27.3268V23.7365C46.6377 23.3799 46.4955 23.0382 46.2433 22.786C45.9911 22.5338 45.6494 22.3915 45.2927 22.3902Z" fill="#78B7FF"/>
</g>
</svg>
