<svg width="109" height="109" viewBox="0 0 109 109" fill="none" xmlns="http://www.w3.org/2000/svg">
<g id="emergency-health-healthcare-kidney-medical-medicine-svgrepo-com 1">
<path id="Vector" d="M64.863 50.7568C65.3184 50.5267 65.7053 50.181 65.9852 49.7543C66.265 49.3277 66.4279 48.835 66.4575 48.3256C66.4872 47.8162 66.3826 47.308 66.1541 46.8517C65.9257 46.3955 65.5814 46.0072 65.1558 45.7258C64.7302 45.4444 64.2381 45.2797 63.7288 45.2481C63.2196 45.2166 62.7109 45.3193 62.2538 45.5461C61.7968 45.7728 61.4072 46.1156 61.1242 46.5402C60.8412 46.9648 60.6747 47.4562 60.6412 47.9654C60.6145 48.3304 60.6596 48.6971 60.7741 49.0447H59.413C58.1283 49.0447 56.8962 49.5551 55.9879 50.4635C55.0795 51.3719 54.5691 52.6039 54.5691 53.8886V72.4345H57.9986V53.7822C58 53.4348 58.139 53.1022 58.3852 52.857C58.6313 52.6119 58.9646 52.4742 59.3119 52.4742H60.7741C60.6053 53.0046 60.5918 53.5722 60.7354 54.1099C60.879 54.6477 61.1736 55.133 61.5843 55.5086C61.9951 55.8842 62.5048 56.1343 63.0532 56.2293C63.6016 56.3243 64.1658 56.2602 64.6789 56.0447C65.1921 55.8291 65.6327 55.4712 65.9488 55.013C66.2649 54.5549 66.4432 54.0159 66.4625 53.4596C66.4819 52.9034 66.3416 52.3532 66.0581 51.8743C65.7746 51.3953 65.3599 51.0075 64.863 50.7568Z" fill="#E0E1E2"/>
<path id="Vector_2" d="M82.2339 55.1647C81.9916 56.0846 81.7023 56.9914 81.3672 57.8817C79.9316 61.71 76.6137 64.4855 72.6419 65.0172L72.4292 65.0438C66.506 65.7244 61.1198 61.5345 60.0829 55.5901C59.8863 56.7083 59.8523 57.8491 59.9819 58.977C60.7103 65.2831 66.2826 69.8239 72.4292 69.1167L72.6419 69.0901C76.6137 68.5584 79.9316 65.7829 81.3672 61.9546C81.7023 61.0643 81.9916 60.1575 82.2339 59.2376C83.0553 56.1416 83.3589 52.931 83.1324 49.736C83.0078 51.5702 82.7069 53.3881 82.2339 55.1647Z" fill="#E0E1E2"/>
<path id="Vector_3" d="M71.1584 69.9886C68.4467 69.9886 65.8254 69.0528 63.6666 67.2981C61.157 65.2511 59.5672 62.3267 59.1897 59.0673C58.9645 57.1054 59.2049 55.118 59.8915 53.2664C59.9538 53.0929 60.0742 52.9463 60.2323 52.8515C60.3904 52.7567 60.5765 52.7197 60.7589 52.7466C60.9412 52.7736 61.1086 52.8629 61.2326 52.9993C61.3565 53.1357 61.4294 53.3109 61.4388 53.495C61.4726 54.032 61.7097 54.5359 62.1018 54.9044C62.4939 55.2728 63.0116 55.478 63.5497 55.4783H63.5816C64.6928 55.4623 65.6286 54.5425 65.6659 53.4312C65.6775 53.0275 65.5743 52.6287 65.3681 52.2814C65.162 51.934 64.8614 51.6524 64.5014 51.4692C64.3708 51.4023 64.2611 51.3006 64.1846 51.1754C64.108 51.0501 64.0675 50.9062 64.0675 50.7594C64.0675 50.6126 64.108 50.4687 64.1846 50.3434C64.2611 50.2182 64.3708 50.1165 64.5014 50.0496C64.9318 49.8296 65.2742 49.4693 65.472 49.0282C65.6697 48.5871 65.7109 48.0918 65.5887 47.6241C65.4665 47.1565 65.1883 46.7445 64.8001 46.4566C64.4119 46.1686 63.937 46.0218 63.454 46.0405C62.3905 46.0883 61.5026 46.955 61.4388 48.0184C61.4178 48.2824 61.4485 48.5479 61.5292 48.8C61.5688 48.9194 61.5795 49.0464 61.5604 49.1707C61.5412 49.295 61.4927 49.4129 61.4189 49.5148C61.3452 49.6166 61.2482 49.6994 61.1361 49.7563C61.024 49.8133 60.8999 49.8427 60.7742 49.8422H60.487C60.3639 49.8416 60.2424 49.8131 60.1319 49.7587C60.0214 49.7044 59.9247 49.6257 59.849 49.5285C58.498 47.7467 57.6497 45.6351 57.3925 43.4138C57.0044 40.096 57.9189 36.8419 59.9713 34.2472C61.9545 31.7429 64.7726 30.1637 67.9097 29.8021C68.7291 29.71 69.5559 29.7029 70.3768 29.7809C73.785 30.1052 76.8849 31.9821 78.8735 34.9225C79.4629 35.7908 80.0042 36.6907 80.4952 37.6182C84.0387 44.3218 84.9345 52.112 83.0048 59.4448C82.7549 60.3859 82.4572 61.3218 82.1169 62.2363C80.559 66.3836 76.97 69.3133 72.7482 69.8822L72.5196 69.9088C72.0678 69.9617 71.6133 69.9884 71.1584 69.9886ZM60.8433 55.9037C60.6847 56.8902 60.6614 57.8937 60.7742 58.8865C61.1038 61.7312 62.4863 64.278 64.6769 66.0593C66.8675 67.8405 69.5792 68.6434 72.3388 68.3243L72.5355 68.2977C76.1724 67.8086 79.2723 65.2723 80.6228 61.6727C80.9418 60.8113 81.2289 59.9234 81.4629 59.0354C83.2905 52.092 82.4422 44.7153 79.0862 38.3679C78.6222 37.4902 78.111 36.6382 77.5548 35.8158C75.8321 33.2689 73.1576 31.6472 70.2279 31.3654C69.5164 31.2998 68.8001 31.3087 68.0904 31.3919C65.3787 31.7003 62.9382 33.0668 61.2208 35.2362C59.4343 37.4959 58.6367 40.3353 58.977 43.2278C59.1243 44.498 59.4932 45.7325 60.067 46.8753C60.3195 46.1881 60.7699 45.5911 61.3613 45.1596C61.9527 44.7281 62.6587 44.4814 63.3902 44.4507C63.8905 44.4284 64.3902 44.5078 64.8591 44.684C65.3279 44.8603 65.7561 45.1297 66.1179 45.4761C66.4797 45.8225 66.7675 46.2386 66.964 46.6993C67.1604 47.16 67.2615 47.6558 67.261 48.1567C67.2623 49.1311 66.8803 50.0669 66.1976 50.762C66.5483 51.1213 66.8233 51.5475 67.0059 52.0151C67.1886 52.4828 67.2754 52.9825 67.261 53.4844C67.2376 54.2183 66.997 54.9287 66.5698 55.5258C66.1425 56.1229 65.5477 56.5799 64.8607 56.8389C64.1736 57.0979 63.4252 57.1473 62.7101 56.9808C61.995 56.8143 61.3453 56.4395 60.8433 55.9037Z" fill="#2E3A58"/>
<path id="Vector_4" d="M71.169 67.0962C70.9617 67.0962 70.7543 67.0909 70.5469 67.0749C70.5093 67.0769 70.4717 67.0709 70.4366 67.0572C70.4015 67.0435 70.3697 67.0226 70.3433 66.9957C70.317 66.9688 70.2966 66.9366 70.2836 66.9013C70.2706 66.866 70.2652 66.8283 70.2679 66.7907C70.2705 66.7531 70.2811 66.7165 70.299 66.6834C70.3168 66.6502 70.3415 66.6212 70.3714 66.5984C70.4013 66.5755 70.4358 66.5592 70.4724 66.5506C70.5091 66.542 70.5472 66.5413 70.5841 66.5485C71.1 66.5813 71.6177 66.5688 72.1314 66.5113L72.2909 66.4901C72.7478 66.4315 73.1982 66.33 73.6361 66.187C73.6693 66.1764 73.7042 66.1725 73.7389 66.1756C73.7736 66.1787 73.8073 66.1888 73.838 66.2051C73.8687 66.2215 73.8959 66.2438 73.9178 66.2709C73.9398 66.2979 73.9561 66.329 73.9658 66.3624C73.9765 66.3953 73.9806 66.4299 73.9778 66.4643C73.9751 66.4987 73.9655 66.5322 73.9497 66.5629C73.9338 66.5935 73.9121 66.6207 73.8856 66.6429C73.8592 66.6651 73.8286 66.6818 73.7957 66.6921C73.3301 66.8447 72.8512 66.9533 72.3654 67.0164L72.1899 67.0377C71.8511 67.0782 71.5102 67.0978 71.169 67.0962ZM67.4949 66.2721C67.4566 66.2728 67.4186 66.2655 67.3833 66.2508C66.5581 65.8593 65.7949 65.3487 65.1182 64.7354C64.987 64.6149 64.8541 64.4873 64.7194 64.3526C64.6701 64.3018 64.6429 64.2335 64.6439 64.1627C64.6449 64.0919 64.674 64.0244 64.7247 63.9751C64.7755 63.9257 64.8438 63.8986 64.9146 63.8996C64.9854 63.9006 65.0529 63.9296 65.1022 63.9804C65.2245 64.1027 65.3468 64.225 65.4744 64.342C66.1122 64.9204 66.8326 65.4007 67.6119 65.7669C67.6661 65.7932 67.7098 65.8371 67.7359 65.8915C67.7619 65.9459 67.7686 66.0075 67.755 66.0662C67.7414 66.1249 67.7083 66.1773 67.661 66.2147C67.6138 66.2521 67.5552 66.2723 67.4949 66.2721ZM76.4914 65.1767C76.4527 65.1772 76.4144 65.1688 76.3793 65.1522C76.3443 65.1356 76.3136 65.1113 76.2894 65.081C76.2666 65.0547 76.2493 65.0241 76.2385 64.991C76.2277 64.9578 76.2237 64.9229 76.2267 64.8882C76.2297 64.8535 76.2396 64.8197 76.2558 64.7889C76.2721 64.7581 76.2943 64.7309 76.3213 64.7088C77.1165 64.0466 77.7864 63.247 78.2992 62.3481C78.3163 62.318 78.3392 62.2917 78.3665 62.2705C78.3938 62.2493 78.425 62.2337 78.4583 62.2245C78.4916 62.2154 78.5264 62.2129 78.5607 62.2172C78.595 62.2216 78.6281 62.2326 78.6581 62.2497C78.6881 62.2668 78.7145 62.2896 78.7357 62.3169C78.7569 62.3442 78.7725 62.3754 78.7816 62.4088C78.7908 62.4421 78.7932 62.4769 78.7889 62.5112C78.7846 62.5455 78.7736 62.5786 78.7565 62.6086C78.2169 63.5658 77.5069 64.4163 76.6616 65.1182C76.6126 65.1555 76.5529 65.176 76.4914 65.1767ZM63.1137 61.8163C63.0631 61.8166 63.0136 61.8022 62.9711 61.7748C62.9286 61.7474 62.895 61.7083 62.8744 61.6622C62.4501 60.7366 62.1756 59.7495 62.0609 58.7378C62.0502 58.6633 62.0449 58.5836 62.0343 58.5038C62.0298 58.4336 62.0528 58.3643 62.0985 58.3108C62.1441 58.2572 62.2088 58.2235 62.2789 58.2167C62.3486 58.2108 62.4178 58.2326 62.4716 58.2774C62.5253 58.3221 62.5592 58.3863 62.566 58.456C62.5713 58.5304 62.5819 58.6048 62.5873 58.6793C62.6978 59.6339 62.9579 60.5652 63.3582 61.4388C63.3787 61.4795 63.3882 61.5247 63.3857 61.5702C63.3833 61.6156 63.369 61.6596 63.3442 61.6978C63.3195 61.7359 63.2852 61.767 63.2447 61.7878C63.2043 61.8086 63.1591 61.8184 63.1137 61.8163ZM79.7029 59.7852C79.6777 59.7866 79.6523 59.783 79.6285 59.7746C79.5951 59.7649 79.5639 59.7486 79.5369 59.7266C79.5099 59.7047 79.4875 59.6775 79.4712 59.6468C79.4548 59.6161 79.4448 59.5824 79.4417 59.5477C79.4385 59.513 79.4424 59.4781 79.453 59.4449C79.5381 59.1525 79.6232 58.8547 79.7029 58.5676C79.8943 57.8445 80.0538 57.1054 80.1815 56.3717C80.1877 56.3371 80.2008 56.3041 80.2198 56.2746C80.2388 56.2451 80.2635 56.2196 80.2924 56.1996C80.3213 56.1796 80.3538 56.1655 80.3881 56.158C80.4225 56.1506 80.4579 56.15 80.4925 56.1563C80.5271 56.1626 80.5601 56.1756 80.5896 56.1947C80.6191 56.2137 80.6446 56.2384 80.6646 56.2673C80.6846 56.2961 80.6987 56.3287 80.7061 56.363C80.7136 56.3974 80.7141 56.4328 80.7078 56.4674C80.5749 57.2118 80.4101 57.9668 80.2134 58.7005C80.1336 58.9983 80.0485 59.3014 79.9581 59.5991C79.9411 59.6534 79.9071 59.7007 79.8612 59.7342C79.8152 59.7677 79.7598 59.7856 79.7029 59.7852ZM80.8089 53.5164H80.7929C80.7233 53.5123 80.6582 53.481 80.6114 53.4293C80.5647 53.3776 80.5401 53.3096 80.543 53.2399C80.5696 52.7561 80.5856 52.2669 80.5856 51.7884C80.5856 51.2194 80.5643 50.6505 80.5324 50.0816C80.5253 50.0445 80.5262 50.0063 80.5351 49.9695C80.5439 49.9328 80.5605 49.8984 80.5836 49.8686C80.6068 49.8387 80.6361 49.8142 80.6695 49.7966C80.7029 49.779 80.7397 49.7687 80.7774 49.7664C80.8152 49.7641 80.8529 49.7699 80.8882 49.7833C80.9235 49.7968 80.9555 49.8176 80.9822 49.8444C81.0088 49.8712 81.0294 49.9034 81.0426 49.9388C81.0558 49.9742 81.0613 50.012 81.0588 50.0497C81.096 50.6239 81.1173 51.2088 81.1173 51.7884C81.1173 52.2775 81.1013 52.7773 81.0747 53.2665C81.072 53.3347 81.0426 53.399 80.9929 53.4458C80.9431 53.4925 80.8771 53.5178 80.8089 53.5164ZM80.4101 47.1625C80.3478 47.1633 80.2872 47.1418 80.2394 47.1018C80.1916 47.0618 80.1597 47.006 80.1496 46.9445C79.9637 45.9077 79.7151 44.8832 79.4052 43.8765C79.3852 43.8096 79.3924 43.7374 79.4253 43.6757C79.4581 43.614 79.5139 43.5677 79.5806 43.5469C79.6483 43.5268 79.7212 43.5338 79.7837 43.5666C79.8463 43.5994 79.8936 43.6552 79.9156 43.7224C80.2266 44.7511 80.4787 45.7967 80.6706 46.8541C80.6831 46.9232 80.6677 46.9944 80.6278 47.0521C80.588 47.1099 80.5269 47.1496 80.4579 47.1625H80.4101ZM60.604 43.85C60.5417 43.8508 60.4811 43.8293 60.4333 43.7893C60.3855 43.7493 60.3536 43.6935 60.3435 43.632C60.3062 43.4512 60.2797 43.2598 60.2584 43.079C60.2159 42.6958 60.1946 42.3107 60.1946 41.9252C60.1952 41.4035 60.2361 40.8827 60.3169 40.3673C60.3299 40.298 60.3693 40.2365 60.4269 40.1958C60.4844 40.1551 60.5556 40.1384 60.6253 40.1493C60.6597 40.1544 60.6927 40.1664 60.7224 40.1845C60.7521 40.2027 60.7779 40.2266 60.7982 40.2548C60.8185 40.2831 60.833 40.3151 60.8407 40.349C60.8485 40.383 60.8493 40.4181 60.8433 40.4524C60.7643 40.9393 60.7252 41.4319 60.7263 41.9252C60.7263 42.2894 60.7477 42.6534 60.7901 43.0152C60.806 43.1906 60.8326 43.3661 60.8645 43.5416C60.8706 43.5762 60.8698 43.6116 60.8621 43.6459C60.8545 43.6801 60.8401 43.7125 60.8198 43.7412C60.7995 43.7699 60.7738 43.7942 60.7441 43.8129C60.7143 43.8316 60.6812 43.8442 60.6465 43.85H60.604ZM78.5438 41.0798C78.4927 41.0796 78.4427 41.0644 78.4002 41.036C78.3576 41.0076 78.3244 40.9674 78.3045 40.9203C78.0493 40.346 77.7728 39.7771 77.4751 39.2241C77.2783 38.8519 77.071 38.4797 76.853 38.1182C76.8178 38.0566 76.8082 37.9838 76.826 37.9152C76.8439 37.8466 76.8879 37.7878 76.9487 37.7513C77.0094 37.7164 77.0814 37.7069 77.1491 37.7248C77.2168 37.7427 77.2747 37.7866 77.3102 37.847C77.5336 38.2139 77.7462 38.5967 77.9483 38.9742C78.246 39.5378 78.5279 40.1227 78.7884 40.7076C78.8158 40.7719 78.8172 40.8443 78.7924 40.9097C78.7677 40.9751 78.7186 41.0284 78.6555 41.0585C78.6194 41.0707 78.5818 41.0778 78.5438 41.0798ZM61.6302 37.6822C61.5849 37.683 61.5404 37.67 61.5026 37.6449C61.4717 37.6283 61.4445 37.6056 61.4226 37.5783C61.4007 37.5509 61.3846 37.5194 61.3752 37.4856C61.3657 37.4519 61.3632 37.4166 61.3677 37.3818C61.3723 37.3471 61.3838 37.3136 61.4016 37.2834C61.9376 36.3268 62.6377 35.4719 63.4699 34.7578C63.4959 34.7347 63.5262 34.717 63.5592 34.7058C63.5921 34.6946 63.6269 34.6901 63.6616 34.6926C63.6963 34.6951 63.7301 34.7044 63.7611 34.7202C63.7921 34.736 63.8197 34.7578 63.8421 34.7844C63.8877 34.8383 63.9105 34.908 63.9055 34.9785C63.9006 35.049 63.8683 35.1148 63.8155 35.1619C63.3891 35.5254 62.9991 35.9296 62.6511 36.3688C62.3585 36.7394 62.0954 37.1323 61.8641 37.5439C61.8416 37.5862 61.8079 37.6216 61.7666 37.646C61.7253 37.6703 61.6781 37.6829 61.6302 37.6822ZM75.21 35.6723C75.1399 35.6713 75.073 35.6426 75.0239 35.5925C74.3008 34.854 73.446 34.2571 72.5036 33.8326C72.4714 33.8188 72.4423 33.7987 72.4181 33.7734C72.3938 33.7481 72.3749 33.7182 72.3625 33.6854C72.3501 33.6526 72.3445 33.6177 72.3459 33.5827C72.3472 33.5477 72.3557 33.5133 72.3707 33.4817C72.3997 33.4176 72.4529 33.3676 72.5187 33.3427C72.5845 33.3178 72.6574 33.32 72.7216 33.3487C73.7242 33.7992 74.6333 34.4341 75.4014 35.2204C75.4501 35.27 75.4774 35.3369 75.4774 35.4064C75.4774 35.476 75.4501 35.5429 75.4014 35.5925C75.3507 35.6434 75.2818 35.6721 75.21 35.6723ZM66.389 33.6359C66.3338 33.6354 66.28 33.6185 66.2345 33.5872C66.189 33.556 66.1539 33.5118 66.1338 33.4604C66.1115 33.3934 66.1163 33.3203 66.1471 33.2568C66.1779 33.1932 66.2322 33.1442 66.2986 33.1201C66.9268 32.8994 67.5778 32.7496 68.2393 32.6735C68.6681 32.6237 69.1 32.6059 69.5314 32.6203C69.6019 32.6224 69.6687 32.6525 69.717 32.7038C69.7654 32.7552 69.7914 32.8236 69.7892 32.8941C69.7871 32.9646 69.7571 33.0314 69.7057 33.0798C69.6544 33.1281 69.5859 33.1541 69.5154 33.152C69.1089 33.1386 68.702 33.1546 68.2978 33.1999C67.6764 33.2729 67.0648 33.4137 66.474 33.6199C66.4469 33.6304 66.4181 33.6358 66.389 33.6359Z" fill="#78B7FF"/>
<path id="Vector_5" d="M40.8458 53.7822C40.3515 53.5304 39.9395 53.1425 39.6585 52.6643C39.3774 52.1861 39.239 51.6375 39.2595 51.0831C39.28 50.5288 39.4586 49.9919 39.7742 49.5357C40.0899 49.0796 40.5294 48.7232 41.0409 48.5086C41.5524 48.2941 42.1146 48.2302 42.6612 48.3247C43.2078 48.4192 43.716 48.668 44.1259 49.0418C44.5357 49.4156 44.8301 49.8988 44.9743 50.4344C45.1186 50.97 45.1066 51.5357 44.9399 52.0648H46.2958C47.5804 52.0648 48.8125 52.5751 49.7209 53.4835C50.6293 54.3919 51.1396 55.624 51.1396 56.9087V75.4546H47.7101V56.8023C47.7101 56.4554 47.5723 56.1227 47.327 55.8774C47.0817 55.6321 46.749 55.4943 46.4021 55.4943H44.9399C45.0293 55.7819 45.0759 56.0811 45.0782 56.3823C45.0778 56.9003 44.9394 57.4089 44.6771 57.8557C44.4148 58.3025 44.0382 58.6712 43.586 58.924C43.1337 59.1767 42.6223 59.3043 42.1043 59.2937C41.5864 59.283 41.0806 59.1344 40.6392 58.8632C40.1978 58.592 39.8367 58.2081 39.593 57.7509C39.3494 57.2937 39.232 56.7798 39.253 56.2622C39.2741 55.7445 39.4328 55.2419 39.7127 54.806C39.9927 54.3701 40.3838 54.0167 40.8458 53.7822Z" fill="#E0E1E2"/>
<path id="Vector_6" d="M23.4749 58.1847C23.7195 59.1099 24.0119 60.0138 24.3416 60.9017C25.7772 64.73 29.095 67.5055 33.0669 68.0372L33.2796 68.0638C39.2028 68.7444 44.589 64.5546 45.6258 58.6101C45.8224 59.7283 45.8565 60.8691 45.7268 61.9971C45.0037 68.3031 39.4314 72.8439 33.2796 72.1367L33.0669 72.1101C29.095 71.5784 25.7772 68.8029 24.3416 64.9746C24.0119 64.0867 23.7195 63.1828 23.4749 62.2576C22.6534 59.1616 22.3498 55.9511 22.5763 52.756C22.7009 54.5902 23.0019 56.4082 23.4749 58.1847Z" fill="#E0E1E2"/>
<path id="Vector_7" d="M34.5504 73.0088C34.0955 73.0085 33.641 72.9819 33.1892 72.929L32.9605 72.9024C28.7388 72.3335 25.1498 69.4038 23.5972 65.2565C23.2523 64.3417 22.9542 63.41 22.7039 62.465C20.7743 55.1321 21.67 47.3419 25.2136 40.6384C25.7057 39.7116 26.247 38.8117 26.8353 37.9427C28.8239 35.0023 31.9237 33.1254 35.332 32.801C36.1529 32.7231 36.9796 32.7302 37.7991 32.8223C40.9362 33.1839 43.7542 34.763 45.7375 37.2674C47.7899 39.8621 48.7097 43.1162 48.3163 46.434C48.0591 48.6553 47.2107 50.7668 45.8598 52.5487C45.7852 52.6457 45.6894 52.7244 45.5797 52.7788C45.4701 52.8332 45.3494 52.8618 45.227 52.8624H44.9399C44.8141 52.8617 44.6902 52.8322 44.5777 52.7759C44.4652 52.7197 44.3672 52.6383 44.2912 52.538C44.2175 52.4356 44.169 52.3172 44.1496 52.1925C44.1302 52.0678 44.1405 51.9402 44.1796 51.8202C44.2788 51.5102 44.3052 51.1814 44.2567 50.8595C44.2082 50.5376 44.0861 50.2313 43.8999 49.9643C43.7136 49.6973 43.4683 49.4768 43.183 49.3201C42.8977 49.1634 42.58 49.0746 42.2548 49.0607C41.7718 49.042 41.2969 49.1887 40.9087 49.4767C40.5205 49.7647 40.2423 50.1766 40.1201 50.6443C39.9979 51.1119 40.0391 51.6073 40.2368 52.0484C40.4345 52.4895 40.7769 52.8498 41.2073 53.0697C41.338 53.1367 41.4476 53.2383 41.5242 53.3636C41.6007 53.4888 41.6412 53.6328 41.6412 53.7796C41.6412 53.9263 41.6007 54.0703 41.5242 54.1955C41.4476 54.3208 41.338 54.4225 41.2073 54.4894C40.8473 54.6725 40.5468 54.9542 40.3406 55.3015C40.1345 55.6489 40.0312 56.0476 40.0429 56.4514C40.0801 57.5627 41.0159 58.4825 42.1325 58.4985H42.1591C42.698 58.4995 43.2171 58.2949 43.6104 57.9264C44.0036 57.5578 44.2414 57.0531 44.2753 56.5152C44.2874 56.3335 44.3613 56.1614 44.4848 56.0275C44.6083 55.8936 44.7739 55.806 44.9541 55.7793C45.1343 55.7526 45.3181 55.7884 45.4752 55.8806C45.6322 55.9729 45.7529 56.1162 45.8172 56.2866C46.5038 58.1382 46.7443 60.1256 46.5191 62.0875C46.1416 65.3468 44.5518 68.2712 42.0421 70.3183C39.8834 72.0729 37.2621 73.0088 34.5504 73.0088ZM36.4485 34.343C36.1242 34.343 35.8052 34.3589 35.4862 34.3908C32.5511 34.6673 29.8766 36.289 28.1592 38.8359C27.5994 39.657 27.0863 40.5091 26.6226 41.3881C23.2666 47.7355 22.4183 55.1121 24.2459 62.0556C24.4851 62.9435 24.7669 63.8315 25.0913 64.6928C26.4365 68.2925 29.5364 70.8288 33.1732 71.3179L33.37 71.3445C39.0752 71.9985 44.2593 67.7661 44.9346 61.9067C45.0464 60.914 45.025 59.9108 44.8708 58.9238C44.5231 59.2943 44.103 59.5893 43.6365 59.7905C43.17 59.9917 42.6671 60.0949 42.1591 60.0936H42.1059C41.3794 60.0832 40.6718 59.8597 40.0711 59.4509C39.4704 59.0421 39.0029 58.4659 38.7266 57.7938C38.4503 57.1218 38.3773 56.3834 38.5168 55.6703C38.6563 54.9572 39.002 54.3007 39.5112 53.7822C38.8324 53.0833 38.4557 52.1455 38.4623 51.1713C38.4689 50.1971 38.8584 49.2645 39.5466 48.5749C40.2348 47.8853 41.1666 47.494 42.1408 47.4854C43.115 47.4768 44.0535 47.8516 44.7538 48.5289C45.1488 48.9119 45.4523 49.379 45.6418 49.8954C46.2155 48.7527 46.5844 47.5181 46.7318 46.2479C47.0721 43.3554 46.2745 40.5161 44.488 38.2564C42.7705 36.087 40.33 34.7205 37.6183 34.4121C37.2302 34.3653 36.8395 34.3422 36.4485 34.343Z" fill="#2E3A58"/>
<path id="Vector_8" d="M34.545 70.1162C34.2021 70.1179 33.8594 70.0984 33.5188 70.0577L33.3487 70.0365C32.861 69.9739 32.3803 69.8653 31.9131 69.7121C31.8801 69.7019 31.8495 69.6852 31.8231 69.663C31.7967 69.6408 31.7749 69.6136 31.7591 69.5829C31.7432 69.5522 31.7337 69.5187 31.7309 69.4843C31.7281 69.4499 31.7322 69.4153 31.7429 69.3825C31.7532 69.3488 31.7701 69.3176 31.7925 69.2905C31.815 69.2635 31.8426 69.2411 31.8738 69.2248C31.9049 69.2085 31.939 69.1985 31.9741 69.1954C32.0091 69.1924 32.0444 69.1963 32.0779 69.207C32.514 69.35 32.9626 69.4515 33.4178 69.5101L33.5826 69.5313C34.0945 69.5889 34.6105 69.6013 35.1246 69.5686C35.1615 69.5613 35.1996 69.562 35.2363 69.5706C35.273 69.5792 35.3074 69.5955 35.3373 69.6184C35.3672 69.6413 35.3919 69.6703 35.4097 69.7034C35.4276 69.7366 35.4382 69.7731 35.4409 69.8107C35.4435 69.8483 35.4382 69.886 35.4251 69.9213C35.4121 69.9567 35.3918 69.9888 35.3654 70.0157C35.339 70.0426 35.3072 70.0636 35.2721 70.0772C35.237 70.0909 35.1994 70.0969 35.1618 70.095C34.9598 70.1109 34.7471 70.1162 34.545 70.1162ZM38.2138 69.2921C38.1637 69.2935 38.1143 69.2801 38.0718 69.2537C38.0292 69.2272 37.9954 69.1888 37.9745 69.1432C37.9448 69.0795 37.9409 69.0068 37.9637 68.9404C37.9865 68.8739 38.0343 68.8189 38.0968 68.787C38.8761 68.4207 39.5965 67.9405 40.2343 67.362C40.3619 67.245 40.4895 67.1227 40.6065 67.0004C40.6312 66.9755 40.6606 66.9557 40.693 66.9422C40.7254 66.9287 40.7601 66.9218 40.7952 66.9218C40.8303 66.9218 40.8651 66.9287 40.8975 66.9422C40.9299 66.9557 40.9593 66.9755 40.984 67.0004C41.0091 67.0243 41.0292 67.053 41.0431 67.0848C41.057 67.1165 41.0644 67.1507 41.0649 67.1854C41.0654 67.2201 41.0589 67.2545 41.046 67.2866C41.033 67.3188 41.0137 67.348 40.9893 67.3726C40.8617 67.5055 40.7235 67.6332 40.5905 67.7555C39.9138 68.3688 39.1506 68.8793 38.3255 69.2708C38.2901 69.2856 38.2521 69.2928 38.2138 69.2921ZM29.2173 68.1968C29.1559 68.1953 29.0965 68.1749 29.0472 68.1383C28.2032 67.4349 27.4935 66.5847 26.9522 65.6286C26.9343 65.5987 26.9224 65.5655 26.9175 65.531C26.9126 65.4965 26.9147 65.4613 26.9236 65.4276C26.9325 65.3939 26.9481 65.3623 26.9695 65.3347C26.9909 65.3071 27.0175 65.2841 27.0479 65.2671C27.1101 65.2324 27.1834 65.2235 27.2521 65.2424C27.3207 65.2613 27.3792 65.3065 27.4148 65.3681C27.9258 66.2667 28.5939 67.0664 29.3875 67.7289C29.4414 67.7735 29.4756 67.8376 29.4826 67.9073C29.4896 67.977 29.4688 68.0466 29.4247 68.1011C29.3992 68.1311 29.3674 68.1553 29.3316 68.1718C29.2958 68.1883 29.2568 68.1969 29.2173 68.1968ZM42.5951 64.8364C42.5496 64.8385 42.5044 64.8286 42.464 64.8078C42.4235 64.787 42.3892 64.756 42.3645 64.7178C42.3398 64.6796 42.3254 64.6356 42.323 64.5902C42.3205 64.5448 42.33 64.4995 42.3505 64.4589C42.7532 63.5861 43.0134 62.6544 43.1215 61.6993C43.1321 61.6249 43.1374 61.5504 43.1427 61.476C43.1498 61.4055 43.1846 61.3407 43.2394 61.2958C43.2942 61.2509 43.3647 61.2297 43.4352 61.2367C43.5057 61.2438 43.5705 61.2785 43.6154 61.3334C43.6602 61.3882 43.6815 61.4586 43.6744 61.5292C43.6638 61.6036 43.6585 61.6833 43.6479 61.7578C43.5332 62.7695 43.2586 63.7566 42.8343 64.6822C42.8137 64.7283 42.7801 64.7675 42.7376 64.7948C42.6951 64.8222 42.6456 64.8367 42.5951 64.8364ZM26.0058 62.8053C25.949 62.8056 25.8935 62.7877 25.8476 62.7542C25.8016 62.7207 25.7676 62.6734 25.7506 62.6192C25.6602 62.3214 25.5751 62.0183 25.4954 61.7206C25.2986 60.9868 25.1338 60.2318 25.0009 59.4874C24.99 59.4177 25.0067 59.3466 25.0474 59.289C25.0881 59.2314 25.1496 59.192 25.2189 59.179C25.2879 59.1666 25.3591 59.182 25.4169 59.2218C25.4747 59.2616 25.5143 59.3227 25.5273 59.3917C25.6549 60.1254 25.8197 60.8645 26.0111 61.5876C26.0856 61.8748 26.1706 62.1725 26.261 62.465C26.2708 62.4985 26.2739 62.5336 26.2701 62.5683C26.2663 62.603 26.2557 62.6366 26.2389 62.6672C26.2221 62.6978 26.1995 62.7248 26.1722 62.7467C26.145 62.7686 26.1138 62.7848 26.0802 62.7946C26.0564 62.8033 26.0311 62.807 26.0058 62.8053ZM24.8999 56.5364C24.832 56.5365 24.7667 56.5107 24.7173 56.4643C24.6679 56.4178 24.6381 56.3542 24.634 56.2865C24.6074 55.7973 24.5915 55.2975 24.5915 54.8084C24.5915 54.2288 24.6127 53.6439 24.6499 53.0697C24.652 53.0348 24.6609 53.0006 24.6762 52.9691C24.6914 52.9376 24.7128 52.9094 24.739 52.8862C24.7651 52.863 24.7957 52.8452 24.8287 52.8338C24.8618 52.8224 24.8968 52.8176 24.9318 52.8198C25.0018 52.8252 25.067 52.8577 25.1136 52.9102C25.1602 52.9628 25.1846 53.0314 25.1817 53.1016C25.1444 53.6705 25.1232 54.2395 25.1232 54.8084C25.1232 55.2869 25.1391 55.7761 25.1657 56.2599C25.1686 56.3296 25.1441 56.3976 25.0973 56.4493C25.0506 56.501 24.9854 56.5323 24.9158 56.5364H24.8999ZM25.2986 50.1825H25.2508C25.1818 50.1696 25.1207 50.1299 25.0809 50.0721C25.0411 50.0144 25.0257 49.9432 25.0381 49.8741C25.2301 48.8167 25.4821 47.7711 25.7931 46.7424C25.8151 46.6753 25.8624 46.6194 25.925 46.5866C25.9875 46.5539 26.0604 46.5468 26.1281 46.5669C26.1948 46.5878 26.2506 46.634 26.2835 46.6957C26.3163 46.7574 26.3235 46.8296 26.3036 46.8966C25.9986 47.9046 25.7501 48.9288 25.5592 49.9645C25.549 50.026 25.5171 50.0818 25.4693 50.1218C25.4215 50.1618 25.361 50.1834 25.2986 50.1825ZM45.1047 46.87H45.0622C44.9929 46.857 44.9314 46.8175 44.8907 46.76C44.85 46.7024 44.8333 46.6313 44.8442 46.5616C44.8761 46.3844 44.9027 46.2089 44.924 46.0352C44.9662 45.6752 44.9875 45.313 44.9878 44.9505C44.9873 44.4553 44.9464 43.9609 44.8655 43.4724C44.8542 43.4026 44.8711 43.3311 44.9125 43.2738C44.9539 43.2165 45.0163 43.1779 45.0861 43.1666C45.1559 43.1554 45.2274 43.1723 45.2847 43.2137C45.342 43.255 45.3806 43.3175 45.3919 43.3873C45.4772 43.904 45.5199 44.4268 45.5195 44.9505C45.5175 45.3343 45.4944 45.7177 45.4503 46.099C45.4291 46.2851 45.4025 46.4712 45.3706 46.652C45.3583 46.7134 45.3251 46.7688 45.2766 46.8085C45.2281 46.8482 45.1674 46.87 45.1047 46.87ZM27.1649 44.0998C27.1283 44.1009 27.0919 44.0937 27.0586 44.0785C27.0264 44.0646 26.9973 44.0445 26.9729 44.0194C26.9485 43.9942 26.9293 43.9644 26.9165 43.9318C26.9036 43.8992 26.8973 43.8644 26.898 43.8293C26.8987 43.7943 26.9063 43.7597 26.9203 43.7276C27.1809 43.1427 27.4627 42.5578 27.7658 41.9942C27.9625 41.6167 28.1805 41.2339 28.3985 40.867C28.435 40.8063 28.4938 40.7623 28.5624 40.7444C28.631 40.7265 28.7038 40.7362 28.7654 40.7713C28.8252 40.8087 28.8681 40.8679 28.885 40.9364C28.9019 41.0049 28.8914 41.0773 28.8558 41.1382C28.6378 41.4997 28.4304 41.8719 28.2337 42.2441C27.9412 42.7971 27.6594 43.366 27.4095 43.9403C27.3882 43.9874 27.3539 44.0275 27.3105 44.0558C27.2672 44.084 27.2167 44.0993 27.1649 44.0998ZM44.0785 40.7022C44.0308 40.7018 43.9841 40.6888 43.943 40.6645C43.9019 40.6402 43.868 40.6055 43.8446 40.5639C43.6145 40.1533 43.3513 39.7621 43.0577 39.3942C42.7111 38.9521 42.321 38.546 41.8932 38.1819C41.8405 38.1348 41.8081 38.0691 41.8032 37.9985C41.7982 37.928 41.821 37.8584 41.8666 37.8044C41.8891 37.7778 41.9166 37.756 41.9476 37.7402C41.9786 37.7245 42.0124 37.7151 42.0471 37.7126C42.0818 37.7101 42.1166 37.7146 42.1496 37.7258C42.1825 37.737 42.2128 37.7547 42.2388 37.7778C42.6927 38.1634 43.1076 38.5926 43.4777 39.0592C43.7862 39.4528 44.0652 39.8687 44.3125 40.3034C44.3293 40.3341 44.3399 40.3678 44.3437 40.4026C44.3475 40.4375 44.3443 40.4727 44.3344 40.5063C44.3246 40.5399 44.3081 40.5712 44.2861 40.5984C44.2641 40.6257 44.2369 40.6483 44.2061 40.665C44.1684 40.69 44.1239 40.703 44.0785 40.7022ZM30.4987 38.6923C30.4639 38.6928 30.4293 38.6859 30.3972 38.6721C30.3652 38.6584 30.3364 38.6381 30.3126 38.6126C30.2875 38.5887 30.2674 38.56 30.2536 38.5282C30.2397 38.4965 30.2323 38.4623 30.2318 38.4276C30.2313 38.3929 30.2377 38.3585 30.2507 38.3264C30.2636 38.2942 30.2829 38.265 30.3073 38.2404C31.0764 37.4528 31.9874 36.8178 32.9924 36.3688C33.0568 36.3414 33.1292 36.34 33.1946 36.3647C33.26 36.3895 33.3133 36.4386 33.3434 36.5017C33.3574 36.5338 33.365 36.5684 33.3657 36.6034C33.3664 36.6385 33.3601 36.6733 33.3472 36.7059C33.3344 36.7385 33.3152 36.7683 33.2908 36.7935C33.2664 36.8186 33.2373 36.8387 33.2051 36.8526C32.2627 37.2771 31.4079 37.874 30.6848 38.6126C30.6611 38.6381 30.6323 38.6584 30.6002 38.6721C30.5682 38.6859 30.5336 38.6928 30.4987 38.6923ZM39.3251 36.6559C39.2942 36.6562 39.2636 36.6508 39.2347 36.6399C38.6432 36.4362 38.0319 36.2954 37.4109 36.2199C37.0919 36.188 36.7676 36.1667 36.4485 36.1667H36.188C36.1175 36.1674 36.0496 36.1401 35.9992 36.0907C35.9489 36.0414 35.9202 35.974 35.9195 35.9035C35.9188 35.833 35.9461 35.7651 35.9955 35.7148C36.0448 35.6644 36.1122 35.6357 36.1827 35.635H36.4485C36.7896 35.6359 37.1304 35.6555 37.4694 35.6935C38.131 35.7691 38.782 35.9189 39.4101 36.1401C39.4685 36.1613 39.5176 36.2022 39.549 36.2557C39.5804 36.3093 39.592 36.3721 39.5819 36.4334C39.5718 36.4946 39.5406 36.5504 39.4937 36.591C39.4468 36.6317 39.3871 36.6546 39.3251 36.6559Z" fill="#78B7FF"/>
<path id="Vector_9" d="M58.7962 72.4345H57.2011V53.7822C57.2025 53.2232 57.4255 52.6877 57.8212 52.293C58.2169 51.8983 58.753 51.6766 59.3119 51.6766H60.7741C60.8999 51.6761 61.0239 51.7055 61.1361 51.7625C61.2482 51.8194 61.3451 51.9022 61.4189 52.004C61.4927 52.1059 61.5412 52.2238 61.5603 52.3481C61.5795 52.4724 61.5688 52.5994 61.5292 52.7187C61.465 52.9272 61.4328 53.1441 61.4334 53.3621C61.4334 53.9234 61.6564 54.4616 62.0533 54.8585C62.4501 55.2554 62.9884 55.4783 63.5496 55.4783H63.5815C64.6928 55.4624 65.6286 54.5425 65.6658 53.4312C65.6775 53.0275 65.5743 52.6287 65.3681 52.2814C65.162 51.934 64.8614 51.6524 64.5014 51.4692C64.3708 51.4023 64.2611 51.3006 64.1846 51.1754C64.108 51.0501 64.0675 50.9062 64.0675 50.7594C64.0675 50.6126 64.108 50.4687 64.1846 50.3434C64.2611 50.2182 64.3708 50.1165 64.5014 50.0496C64.9318 49.8296 65.2742 49.4693 65.4719 49.0282C65.6697 48.5872 65.7108 48.0918 65.5886 47.6241C65.4665 47.1565 65.1882 46.7446 64.8 46.4566C64.4118 46.1686 63.9369 46.0218 63.4539 46.0405C62.3905 46.0884 61.5026 46.955 61.4388 48.0185C61.4169 48.2828 61.4495 48.5488 61.5345 48.8001C61.5716 48.9206 61.5803 49.0482 61.56 49.1727C61.5398 49.2972 61.491 49.4153 61.4175 49.5179C61.3426 49.618 61.2456 49.6994 61.134 49.7557C61.0223 49.812 60.8991 49.8416 60.7741 49.8422H59.413C58.3403 49.8436 57.3119 50.2704 56.5534 51.0289C55.7948 51.7874 55.3681 52.8158 55.3667 53.8885V72.4345H53.7715V53.8885C53.773 52.3927 54.3678 50.9586 55.4254 49.901C56.4831 48.8433 57.9172 48.2485 59.413 48.2471H59.8383C59.833 48.1354 59.8383 48.0238 59.8436 47.9174C59.8835 47.3205 60.067 46.742 60.3787 46.2313C60.6903 45.7206 61.1208 45.2928 61.6335 44.9844C62.1461 44.676 62.7257 44.4961 63.3229 44.46C63.9201 44.4239 64.5172 44.5328 65.0632 44.7772C65.6093 45.0217 66.0881 45.3945 66.459 45.864C66.8298 46.3335 67.0817 46.8856 67.1931 47.4735C67.3045 48.0613 67.2722 48.6673 67.0988 49.2399C66.9255 49.8125 66.6163 50.3347 66.1975 50.7621C66.5483 51.1213 66.8232 51.5475 67.0059 52.0152C67.1886 52.4828 67.2753 52.9825 67.261 53.4844C67.2232 54.4361 66.8236 55.3375 66.1438 56.0045C65.4639 56.6715 64.555 57.0539 63.6028 57.0734H63.5496C62.5653 57.0734 61.6214 56.6824 60.9253 55.9864C60.2293 55.2904 59.8383 54.3464 59.8383 53.3621V53.2717H59.3119C59.1761 53.2717 59.0457 53.3253 58.9491 53.4209C58.8525 53.5165 58.7976 53.6463 58.7962 53.7822V72.4345Z" fill="#78B7FF"/>
<path id="Vector_10" d="M51.9372 75.4546H50.3421V56.9086C50.3421 55.8355 49.9158 54.8063 49.1569 54.0475C48.3981 53.2887 47.3689 52.8624 46.2958 52.8624H44.9399C44.8141 52.8617 44.6902 52.8322 44.5777 52.7759C44.4652 52.7197 44.3672 52.6383 44.2912 52.538C44.2175 52.4356 44.169 52.3172 44.1496 52.1925C44.1302 52.0677 44.1405 51.9402 44.1796 51.8202C44.2788 51.5102 44.3052 51.1814 44.2567 50.8595C44.2082 50.5376 44.0861 50.2313 43.8999 49.9643C43.7136 49.6973 43.4683 49.4768 43.183 49.3201C42.8977 49.1634 42.58 49.0746 42.2548 49.0606C41.7718 49.0419 41.2969 49.1887 40.9087 49.4767C40.5205 49.7647 40.2423 50.1766 40.1201 50.6443C39.9979 51.1119 40.0391 51.6073 40.2368 52.0484C40.4345 52.4894 40.7769 52.8498 41.2073 53.0697C41.338 53.1366 41.4476 53.2383 41.5242 53.3636C41.6007 53.4888 41.6412 53.6328 41.6412 53.7796C41.6412 53.9263 41.6007 54.0703 41.5242 54.1955C41.4476 54.3208 41.338 54.4225 41.2073 54.4894C40.8473 54.6725 40.5468 54.9542 40.3406 55.3015C40.1345 55.6489 40.0312 56.0476 40.0429 56.4514C40.0801 57.5626 41.0159 58.4825 42.1325 58.4984H42.1591C42.7208 58.4985 43.2596 58.2757 43.6573 57.879C44.0551 57.4822 44.2792 56.944 44.2806 56.3823C44.2795 56.1639 44.2454 55.947 44.1796 55.7389C44.1405 55.6189 44.1302 55.4914 44.1496 55.3666C44.169 55.2419 44.2175 55.1235 44.2912 55.0211C44.3672 54.9208 44.4652 54.8394 44.5777 54.7832C44.6902 54.7269 44.8141 54.6974 44.9399 54.6967H46.4021C46.9601 54.6981 47.4948 54.9204 47.8894 55.315C48.284 55.7096 48.5063 56.2443 48.5077 56.8023V75.4546H46.9125V56.8023C46.9125 56.6669 46.8588 56.5371 46.763 56.4414C46.6673 56.3456 46.5375 56.2919 46.4021 56.2919H45.8704C45.8704 56.3238 45.8757 56.3504 45.8757 56.3823C45.8919 57.3666 45.5165 58.317 44.8319 59.0245C44.1474 59.7319 43.2099 60.1385 42.2256 60.1547C41.2412 60.1709 40.2908 59.7955 39.5833 59.1109C38.8759 58.4264 38.4693 57.4888 38.4531 56.5045C38.4365 56.0028 38.5217 55.503 38.7035 55.0351C38.8854 54.5672 39.1601 54.141 39.5112 53.7822C38.8324 53.0833 38.4557 52.1455 38.4623 51.1713C38.469 50.1971 38.8584 49.2645 39.5466 48.5749C40.2348 47.8853 41.1666 47.494 42.1408 47.4854C43.115 47.4768 44.0535 47.8516 44.7538 48.5289C45.4117 49.1651 45.808 50.0242 45.8651 50.9376C45.8704 51.0492 45.8757 51.1556 45.8704 51.2672H46.2958C47.7915 51.2686 49.2256 51.8635 50.2833 52.9211C51.341 53.9788 51.9358 55.4129 51.9372 56.9086V75.4546Z" fill="#78B7FF"/>
</g>
</svg>
