<svg width="100" height="100" viewBox="0 0 100 100" fill="none" xmlns="http://www.w3.org/2000/svg">
<g id="health-healthcare-lungs-medical-medicine-organ-svgrepo-com 1">
<path id="Vector" d="M57.8537 54.7707C57.7522 54.7711 57.6517 54.7505 57.5585 54.7102C57.4653 54.6699 57.3815 54.6108 57.3122 54.5366L50.3854 46.9756L43.4634 54.5366C43.3627 54.6437 43.2323 54.7182 43.0889 54.7505C42.9454 54.7829 42.7956 54.7716 42.6587 54.7181C42.5218 54.6645 42.404 54.5713 42.3205 54.4503C42.237 54.3292 42.1917 54.186 42.1903 54.039V48.2634C42.1892 48.081 42.2571 47.905 42.3805 47.7707L47.8 41.8536V32.8585H49.2634V42.1366C49.2634 42.3202 49.1956 42.4973 49.0732 42.6341L43.6537 48.5463V52.1561L49.8488 45.3951C49.9165 45.3199 49.9992 45.2597 50.0917 45.2186C50.1841 45.1774 50.2842 45.1561 50.3854 45.1561C50.4873 45.1563 50.588 45.1777 50.6812 45.2188C50.7744 45.26 50.858 45.32 50.9268 45.3951L57.122 52.1561V48.5463L51.8927 42.839C51.7693 42.7047 51.7014 42.5287 51.7025 42.3463V32.8585H53.1659V42.0634L58.3903 47.7707C58.5167 47.9035 58.5866 48.0801 58.5854 48.2634V54.039C58.5854 54.1868 58.5407 54.3312 58.4571 54.4531C58.3735 54.575 58.255 54.6687 58.1171 54.7219C58.0331 54.7546 57.9438 54.7712 57.8537 54.7707Z" fill="#78B7FF"/>
<path id="Vector_2" d="M34.5171 72.1951L30.1219 73.639C26.7805 74.7317 23.3171 72.3414 23.1658 68.8341L23.1366 68.1024C23.078 69.8455 23.0878 71.5886 23.1658 73.3317C23.3171 76.8439 26.7805 79.2341 30.1219 78.1366L34.5171 76.6926C36.9622 75.8908 39.0914 74.3368 40.6008 72.2528C42.1102 70.1687 42.9226 67.661 42.9219 65.0878V60.5902C42.9218 63.1633 42.1092 65.6706 40.5999 67.7545C39.0906 69.8385 36.9618 71.3925 34.5171 72.1951Z" fill="#E0E1E2"/>
<path id="Vector_3" d="M77.6097 68.8341C77.4585 72.3414 73.9902 74.7317 70.6536 73.639L66.2585 72.1951C63.8138 71.3925 61.685 69.8385 60.1757 67.7545C58.6664 65.6706 57.8537 63.1633 57.8536 60.5902V65.0878C57.853 67.661 58.6653 70.1687 60.1747 72.2528C61.6841 74.3368 63.8134 75.8908 66.2585 76.6926L70.6536 78.1366C73.9902 79.2341 77.4585 76.8439 77.6097 73.3317C77.6829 71.5853 77.6975 69.8439 77.6341 68.1024C77.6292 68.3463 77.6195 68.5902 77.6097 68.8341Z" fill="#E0E1E2"/>
<path id="Vector_4" d="M28.4537 79.1414C26.9007 79.1355 25.4095 78.5325 24.289 77.4573C23.1684 76.3822 22.5043 74.9172 22.4342 73.3658C22.1659 67.2048 22.6976 61.7463 24.0488 56.6829C24.8032 53.8552 25.8342 51.1086 27.1268 48.4829C28.4878 45.7122 30.1854 43.0048 32.1659 40.4292C33.0047 39.3332 34.1805 38.5431 35.5122 38.1804C36.4656 37.915 37.4674 37.8735 38.4395 38.0594C39.4115 38.2452 40.3274 38.6532 41.1157 39.2516C41.9039 39.85 42.5432 40.6225 42.9834 41.5089C43.4237 42.3952 43.6531 43.3713 43.6537 44.3609V65.0878C43.6549 67.8154 42.7942 70.4737 41.1946 72.6831C39.5949 74.8925 37.3381 76.5399 34.7463 77.3902L30.3463 78.8341C29.7358 79.0364 29.0969 79.1402 28.4537 79.1414ZM37.2341 39.4048C36.7839 39.4062 36.3359 39.4686 35.9024 39.5902C34.8772 39.8723 33.9716 40.4801 33.322 41.3219C29.5561 46.2243 26.9854 51.3707 25.4634 57.0585C24.1463 61.9804 23.6342 67.2926 23.8976 73.3024C23.9295 74.0072 24.1239 74.6951 24.4657 75.3122C24.8075 75.9294 25.2874 76.4592 25.8678 76.8602C26.4483 77.2612 27.1136 77.5225 27.8119 77.6238C28.5101 77.725 29.2222 77.6635 29.8927 77.4439L34.2878 76C36.5871 75.2462 38.5893 73.7851 40.0086 71.8253C41.4278 69.8656 42.1914 67.5074 42.1902 65.0878V44.3609C42.189 43.0469 41.6664 41.787 40.7372 40.8579C39.808 39.9287 38.5482 39.4061 37.2341 39.4048Z" fill="#2E3A58"/>
<path id="Vector_5" d="M28.4585 76.2098C27.9265 76.2097 27.4034 76.0728 26.9396 75.8123C26.4757 75.5517 26.0866 75.1763 25.8097 74.722C25.7898 74.6948 25.7756 74.6637 25.7683 74.6307C25.7609 74.5978 25.7605 74.5637 25.767 74.5306C25.7735 74.4974 25.7868 74.466 25.8061 74.4383C25.8254 74.4106 25.8502 74.3872 25.879 74.3696C25.9078 74.3519 25.94 74.3405 25.9734 74.3359C26.0069 74.3314 26.0409 74.3338 26.0734 74.3431C26.1059 74.3524 26.136 74.3683 26.162 74.3899C26.188 74.4114 26.2092 74.4381 26.2244 74.4683C26.347 74.6668 26.4946 74.8487 26.6634 75.0098C27.1506 75.465 27.7917 75.7194 28.4585 75.722C28.7385 75.7211 29.0166 75.6767 29.2829 75.5903L30.2146 75.283C30.2761 75.263 30.343 75.2682 30.4006 75.2974C30.4582 75.3267 30.5018 75.3776 30.5219 75.4391C30.5325 75.4694 30.5369 75.5017 30.5347 75.5338C30.5325 75.5659 30.5239 75.5973 30.5093 75.6259C30.4948 75.6547 30.4745 75.6801 30.4499 75.7008C30.4252 75.7215 30.3966 75.737 30.3658 75.7464L29.4341 76.0537C29.1189 76.1558 28.7898 76.2084 28.4585 76.2098ZM33.0732 74.8439C33.0162 74.8428 32.9615 74.8217 32.9185 74.7844C32.8754 74.7471 32.8468 74.696 32.8375 74.6398C32.8283 74.5836 32.8389 74.5259 32.8677 74.4768C32.8965 74.4277 32.9416 74.3902 32.9951 74.3708L33.678 74.1464C34.3611 73.9221 35.0171 73.6227 35.6341 73.2537C35.6613 73.237 35.6914 73.2259 35.7229 73.221C35.7544 73.2161 35.7865 73.2176 35.8174 73.2253C35.8483 73.2331 35.8774 73.2469 35.9029 73.266C35.9284 73.2851 35.9498 73.3091 35.9658 73.3366C35.9832 73.3635 35.9949 73.3937 36.0001 73.4254C36.0054 73.457 36.0041 73.4894 35.9963 73.5205C35.9885 73.5515 35.9745 73.5807 35.955 73.6062C35.9354 73.6316 35.9109 73.6527 35.8829 73.6683C35.2382 74.0594 34.5508 74.3753 33.8341 74.6098L33.1463 74.8342C33.1228 74.8422 33.0979 74.8455 33.0732 74.8439ZM25.5561 71.9903C25.5243 71.9909 25.4927 71.9852 25.4631 71.9735C25.4335 71.9618 25.4066 71.9443 25.3839 71.922C25.3612 71.8997 25.3431 71.8732 25.3308 71.8439C25.3185 71.8145 25.3122 71.7831 25.3122 71.7512C25.2975 71.2732 25.2927 70.7952 25.2927 70.3317C25.2927 69.8683 25.3024 69.3122 25.3122 68.8098C25.3147 68.7468 25.3415 68.6872 25.387 68.6436C25.4324 68.5999 25.493 68.5756 25.5561 68.5756H25.561C25.5932 68.5756 25.6251 68.5821 25.6547 68.5947C25.6844 68.6073 25.7112 68.6258 25.7335 68.6491C25.7558 68.6723 25.7732 68.6998 25.7847 68.7299C25.7961 68.7601 25.8013 68.7922 25.8 68.8244C25.7902 69.3171 25.7805 69.8244 25.7805 70.3317C25.7805 70.8391 25.7853 71.2683 25.8 71.7366C25.8001 71.8014 25.7754 71.8638 25.7309 71.911C25.6865 71.9582 25.6257 71.9865 25.561 71.9903H25.5561ZM38.0049 71.8439C37.9445 71.844 37.886 71.8233 37.839 71.7854C37.7913 71.7416 37.7626 71.6809 37.7589 71.6162C37.7553 71.5515 37.777 71.488 37.8195 71.4391C38.4563 70.7294 38.9811 69.9266 39.3756 69.0586C39.3892 69.0293 39.4085 69.003 39.4323 68.9812C39.4562 68.9594 39.4841 68.9426 39.5145 68.9317C39.5449 68.9208 39.5772 68.9161 39.6095 68.9178C39.6417 68.9194 39.6733 68.9275 39.7024 68.9415C39.7315 68.9546 39.7577 68.9734 39.7795 68.9968C39.8012 69.0202 39.818 69.0477 39.8289 69.0778C39.8398 69.1078 39.8446 69.1397 39.843 69.1716C39.8414 69.2034 39.8334 69.2347 39.8195 69.2634C39.4037 70.175 38.8528 71.0186 38.1853 71.7659C38.1623 71.7907 38.1344 71.8105 38.1033 71.8239C38.0722 71.8373 38.0387 71.8442 38.0049 71.8439ZM40.4 66.6049H40.3707C40.3388 66.6013 40.3079 66.5913 40.2798 66.5755C40.2518 66.5597 40.2273 66.5384 40.2077 66.5129C40.1881 66.4874 40.1739 66.4582 40.1659 66.4271C40.1578 66.396 40.1562 66.3635 40.161 66.3317C40.2138 65.9209 40.2399 65.507 40.239 65.0927V63.4391C40.239 63.3744 40.2647 63.3123 40.3104 63.2666C40.3562 63.2208 40.4182 63.1952 40.4829 63.1952C40.5476 63.1952 40.6096 63.2208 40.6554 63.2666C40.7011 63.3123 40.7268 63.3744 40.7268 63.4391V65.0927C40.7261 65.5282 40.6984 65.9631 40.6439 66.3951C40.6346 66.4533 40.6051 66.5063 40.5604 66.5448C40.5157 66.5832 40.4589 66.6045 40.4 66.6049ZM25.7073 66.1366H25.6878C25.6557 66.1342 25.6245 66.1254 25.5958 66.1108C25.5671 66.0962 25.5416 66.0761 25.5208 66.0516C25.4999 66.0271 25.4841 65.9987 25.4743 65.9681C25.4644 65.9375 25.4607 65.9053 25.4634 65.8732C25.5414 64.8878 25.6439 63.9025 25.7756 62.9512C25.7871 62.8899 25.8216 62.8354 25.8721 62.7988C25.9226 62.7621 25.9852 62.7463 26.0471 62.7544C26.1089 62.7625 26.1653 62.794 26.2046 62.8424C26.244 62.8908 26.2632 62.9525 26.2585 63.0147C26.1268 63.961 26.0244 64.9317 25.9512 65.9122C25.9452 65.9731 25.917 66.0296 25.8721 66.0709C25.8271 66.1123 25.7684 66.1357 25.7073 66.1366ZM40.4829 60.7512C40.4182 60.7512 40.3562 60.7256 40.3104 60.6798C40.2647 60.6341 40.239 60.572 40.239 60.5073V57.5805C40.239 57.5158 40.2647 57.4538 40.3104 57.4081C40.3562 57.3623 40.4182 57.3366 40.4829 57.3366C40.5476 57.3366 40.6096 57.3623 40.6554 57.4081C40.7011 57.4538 40.7268 57.5158 40.7268 57.5805V60.5073C40.7268 60.5394 40.7205 60.5711 40.7082 60.6007C40.696 60.6303 40.678 60.6572 40.6554 60.6798C40.6327 60.7025 40.6058 60.7204 40.5762 60.7327C40.5467 60.7449 40.5149 60.7512 40.4829 60.7512ZM26.5024 60.3415H26.4536C26.4222 60.3351 26.3924 60.3226 26.3659 60.3046C26.3393 60.2867 26.3166 60.2637 26.2989 60.237C26.2812 60.2103 26.269 60.1803 26.2629 60.1489C26.2568 60.1174 26.257 60.0851 26.2634 60.0537C26.4439 59.1756 26.6488 58.2976 26.878 57.4439C26.8975 57.361 26.9219 57.2732 26.9463 57.1903C26.9634 57.1284 27.0043 57.0757 27.06 57.0437C27.1157 57.0118 27.1818 57.0031 27.2439 57.0195C27.2754 57.0274 27.305 57.0416 27.3309 57.0613C27.3568 57.0809 27.3784 57.1057 27.3944 57.134C27.4103 57.1623 27.4204 57.1936 27.4239 57.2259C27.4273 57.2582 27.4242 57.2909 27.4146 57.322C27.3951 57.4049 27.3707 57.4878 27.3463 57.5708C27.1219 58.4147 26.9171 59.283 26.7414 60.1512C26.7301 60.2059 26.6999 60.2548 26.6563 60.2895C26.6126 60.3243 26.5582 60.3427 26.5024 60.3415ZM40.4829 54.8976C40.4182 54.8976 40.3562 54.8719 40.3104 54.8262C40.2647 54.7804 40.239 54.7184 40.239 54.6537V51.7269C40.239 51.6622 40.2647 51.6001 40.3104 51.5544C40.3562 51.5087 40.4182 51.483 40.4829 51.483C40.5476 51.483 40.6096 51.5087 40.6554 51.5544C40.7011 51.6001 40.7268 51.6622 40.7268 51.7269V54.6537C40.7268 54.7184 40.7011 54.7804 40.6554 54.8262C40.6096 54.8719 40.5476 54.8976 40.4829 54.8976ZM28.0488 54.7025C28.0221 54.7024 27.9956 54.6974 27.9707 54.6878C27.9098 54.6657 27.86 54.6207 27.8317 54.5624C27.8035 54.5041 27.7991 54.4371 27.8195 54.3756C28.1414 53.4537 28.5024 52.5317 28.8878 51.6342C28.9145 51.5754 28.963 51.5293 29.0231 51.5056C29.0832 51.482 29.1501 51.4826 29.2097 51.5073C29.2397 51.5195 29.2669 51.5377 29.2896 51.5607C29.3124 51.5837 29.3302 51.6111 29.3421 51.6412C29.354 51.6713 29.3596 51.7035 29.3586 51.7358C29.3577 51.7681 29.3502 51.7999 29.3366 51.8293C28.9561 52.7122 28.6 53.6244 28.278 54.5366C28.2625 54.5851 28.2318 54.6273 28.1906 54.6571C28.1493 54.6869 28.0997 54.7028 28.0488 54.7025ZM30.3707 49.3317C30.3314 49.332 30.2927 49.3219 30.2585 49.3025C30.2296 49.2885 30.2038 49.2688 30.1827 49.2447C30.1615 49.2205 30.1455 49.1923 30.1355 49.1618C30.1254 49.1313 30.1217 49.0991 30.1244 49.0671C30.1271 49.0351 30.1362 49.004 30.1512 48.9756C30.6 48.1171 31.0829 47.2537 31.5951 46.4147C31.6118 46.3871 31.6337 46.3631 31.6596 46.344C31.6855 46.325 31.715 46.3112 31.7462 46.3035C31.7775 46.2958 31.8099 46.2943 31.8418 46.2992C31.8736 46.304 31.9041 46.3151 31.9317 46.3317C31.9592 46.3484 31.9832 46.3703 32.0023 46.3962C32.0214 46.4222 32.0352 46.4516 32.0429 46.4829C32.0506 46.5141 32.052 46.5466 32.0472 46.5784C32.0423 46.6102 32.0313 46.6408 32.0146 46.6683C31.5073 47.4976 31.0244 48.3512 30.5853 49.2C30.5649 49.2394 30.5342 49.2725 30.4963 49.2957C30.4585 49.3189 30.4151 49.3314 30.3707 49.3317ZM40.4829 49.0439C40.4182 49.0439 40.3562 49.0182 40.3104 48.9725C40.2647 48.9268 40.239 48.8647 40.239 48.8V45.8732C40.239 45.8085 40.2647 45.7465 40.3104 45.7007C40.3562 45.655 40.4182 45.6293 40.4829 45.6293C40.5476 45.6293 40.6096 45.655 40.6554 45.7007C40.7011 45.7465 40.7268 45.8085 40.7268 45.8732V48.8C40.7268 48.8647 40.7011 48.9268 40.6554 48.9725C40.6096 49.0182 40.5476 49.0439 40.4829 49.0439ZM33.4049 44.3366C33.3558 44.337 33.3079 44.3216 33.2683 44.2927C33.2419 44.2742 33.2194 44.2507 33.2022 44.2235C33.185 44.1963 33.1733 44.1659 33.1678 44.1342C33.1624 44.1024 33.1633 44.0699 33.1705 44.0385C33.1777 44.0071 33.191 43.9775 33.2097 43.9512C33.6146 43.3708 34.0439 42.7903 34.4829 42.2147C34.6531 41.9916 34.8515 41.7916 35.0732 41.6195C35.0979 41.5992 35.1265 41.584 35.1573 41.5749C35.188 41.5658 35.2203 41.563 35.2522 41.5666C35.284 41.5703 35.3148 41.5803 35.3427 41.5961C35.3706 41.6119 35.3951 41.6331 35.4146 41.6586C35.4545 41.7091 35.4728 41.7734 35.4655 41.8373C35.4582 41.9013 35.4258 41.9598 35.3756 42C35.1874 42.1508 35.0172 42.3226 34.8683 42.5122C34.4341 43.0781 34.0097 43.6586 33.6049 44.2342C33.5819 44.2657 33.5518 44.2915 33.5171 44.3093C33.4823 44.3271 33.4439 44.3364 33.4049 44.3366ZM40.1756 43.2391C40.1292 43.2393 40.0838 43.2261 40.0448 43.2009C40.0058 43.1758 39.975 43.1399 39.9561 43.0976C39.6282 42.3915 39.0388 41.8405 38.3122 41.561C38.1878 41.513 38.0608 41.4723 37.9317 41.4391C37.9003 41.4322 37.8707 41.4191 37.8445 41.4005C37.8183 41.382 37.7962 41.3583 37.7793 41.331C37.7625 41.3037 37.7513 41.2733 37.7465 41.2416C37.7417 41.2098 37.7433 41.1775 37.7512 41.1464C37.7663 41.0837 37.8055 41.0296 37.8603 40.9958C37.9152 40.962 37.9812 40.9512 38.0439 40.9659C38.1946 41.0018 38.3429 41.0474 38.4878 41.1025C39.3309 41.428 40.0146 42.0681 40.3951 42.8878C40.4091 42.9169 40.4172 42.9485 40.4188 42.9808C40.4205 43.013 40.4158 43.0453 40.4049 43.0757C40.394 43.1061 40.3772 43.1341 40.3554 43.1579C40.3336 43.1818 40.3073 43.2011 40.278 43.2147C40.2461 43.2302 40.2111 43.2385 40.1756 43.2391Z" fill="#78B7FF"/>
<path id="Vector_6" d="M72.3219 79.1415C71.6771 79.1403 71.0366 79.0366 70.4244 78.8342L66.0293 77.3903C63.4375 76.54 61.1807 74.8926 59.581 72.6832C57.9814 70.4738 57.1207 67.8155 57.1219 65.0878V44.361C57.1215 43.371 57.3503 42.3944 57.7902 41.5076C58.2302 40.6207 58.8695 39.8477 59.658 39.2491C60.4465 38.6506 61.3629 38.2426 62.3353 38.0572C63.3078 37.8718 64.31 37.914 65.2634 38.1805C66.5945 38.5445 67.7699 39.3343 68.6098 40.4293C70.5501 42.9417 72.238 45.6393 73.6488 48.483C74.9393 51.1096 75.9702 53.8559 76.7268 56.683C78.078 61.7464 78.6049 67.2049 78.3415 73.3659C78.2713 74.9173 77.6072 76.3822 76.4866 77.4574C75.3661 78.5326 73.8749 79.1356 72.3219 79.1415ZM63.5415 39.4049C62.9327 39.4059 62.3292 39.5183 61.761 39.7366C60.8257 40.0952 60.0213 40.7293 59.4542 41.5551C58.8871 42.3809 58.5842 43.3593 58.5854 44.361V65.0878C58.5839 67.5069 59.3468 69.8646 60.7651 71.8243C62.1834 73.784 64.1846 75.2454 66.4829 76L70.8829 77.4439C71.5534 77.6635 72.2655 77.7251 72.9638 77.6239C73.662 77.5226 74.3273 77.2613 74.9078 76.8603C75.4882 76.4593 75.9681 75.9295 76.3099 75.3123C76.6517 74.6951 76.8461 74.0073 76.878 73.3025C77.1366 67.2927 76.6244 61.9805 75.3122 57.0586C73.7902 51.3708 71.2195 46.2244 67.4488 41.322C66.8019 40.4795 65.8975 39.8714 64.8732 39.5903C64.4397 39.4686 63.9917 39.4063 63.5415 39.4049Z" fill="#2E3A58"/>
<path id="Vector_7" d="M72.3171 76.2098C71.9857 76.2088 71.6566 76.1561 71.3414 76.0537L69.4293 75.4244C69.3678 75.4043 69.3169 75.3606 69.2876 75.303C69.2584 75.2454 69.2531 75.1785 69.2732 75.1171C69.2943 75.0564 69.3381 75.0063 69.3954 74.9772C69.4527 74.9481 69.519 74.9423 69.5805 74.961L71.4927 75.5902C71.7588 75.6774 72.037 75.7219 72.3171 75.722C72.901 75.7233 73.4683 75.5274 73.9268 75.1659C73.9774 75.126 74.0416 75.1077 74.1056 75.115C74.1696 75.1223 74.228 75.1546 74.2683 75.2049C74.3076 75.256 74.3251 75.3207 74.3169 75.3847C74.3086 75.4487 74.2754 75.5068 74.2244 75.5463C73.6819 75.9767 73.0095 76.2106 72.3171 76.2098ZM66.7268 74.5219C66.6985 74.5222 66.6704 74.5173 66.6439 74.5073C65.7014 74.164 64.8153 73.6823 64.0146 73.078C63.9679 73.0371 63.9386 72.98 63.9325 72.9182C63.9265 72.8564 63.9443 72.7946 63.9823 72.7455C64.0202 72.6964 64.0754 72.6635 64.1368 72.6537C64.1981 72.6439 64.2608 72.6578 64.3122 72.6927C65.0729 73.2661 65.9146 73.7231 66.8097 74.0488C66.8705 74.0708 66.9201 74.116 66.9475 74.1746C66.975 74.2331 66.978 74.3002 66.9561 74.361C66.9379 74.4074 66.9065 74.4474 66.8657 74.476C66.8249 74.5046 66.7766 74.5206 66.7268 74.5219ZM75.1902 73.0146H75.1805C75.1166 73.0121 75.0564 72.9846 75.0126 72.9381C74.9688 72.8916 74.945 72.8297 74.9463 72.7659C74.9756 71.9415 74.9902 71.1268 74.9902 70.3317V69.8488C74.9902 69.7841 75.0159 69.7221 75.0617 69.6763C75.1074 69.6306 75.1694 69.6049 75.2341 69.6049C75.298 69.6049 75.3593 69.6299 75.4049 69.6746C75.4505 69.7193 75.4768 69.7801 75.478 69.8439V70.3317C75.478 71.1317 75.4634 71.9561 75.4341 72.7805C75.4316 72.8435 75.4048 72.903 75.3593 72.9467C75.3139 72.9903 75.2533 73.0147 75.1902 73.0146ZM62.1268 71.0439C62.0876 71.0445 62.0489 71.0355 62.014 71.0177C61.9792 70.9998 61.9492 70.9736 61.9268 70.9415C61.3417 70.129 60.8829 69.2326 60.5658 68.2829C60.5552 68.2525 60.5509 68.2203 60.5531 68.1882C60.5552 68.1561 60.5639 68.1247 60.5784 68.096C60.593 68.0673 60.6132 68.0419 60.6379 68.0212C60.6626 68.0005 60.6911 67.985 60.7219 67.9756C60.7828 67.9554 60.8491 67.9599 60.9066 67.9882C60.9641 68.0165 61.0082 68.0663 61.0293 68.1268C61.3312 69.0315 61.7687 69.8852 62.3268 70.6585C62.3454 70.6844 62.3587 70.7136 62.3658 70.7447C62.3729 70.7757 62.3738 70.8078 62.3683 70.8391C62.3629 70.8705 62.3512 70.9004 62.334 70.9272C62.3169 70.954 62.2945 70.9771 62.2683 70.9951C62.2281 71.0271 62.1782 71.0443 62.1268 71.0439ZM75.1366 67.1659C75.0748 67.1659 75.0155 67.1421 74.9709 67.0993C74.9264 67.0566 74.9001 66.9983 74.8975 66.9366C74.839 65.9561 74.7512 64.9756 74.6439 64.0341C74.6368 63.9695 74.6556 63.9046 74.6964 63.8538C74.7371 63.8031 74.7963 63.7705 74.861 63.7634C74.9256 63.7563 74.9905 63.7752 75.0413 63.8159C75.0921 63.8566 75.1246 63.9158 75.1317 63.9805C75.239 64.9317 75.3219 65.9171 75.3805 66.9073C75.3825 66.9394 75.3781 66.9715 75.3676 67.0018C75.3572 67.0322 75.3408 67.0602 75.3195 67.0842C75.2982 67.1082 75.2724 67.1278 75.2435 67.1418C75.2146 67.1558 75.1833 67.164 75.1512 67.1659H75.1366ZM60.2927 65.5756C60.2296 65.5757 60.169 65.5513 60.1236 65.5077C60.0781 65.464 60.0513 65.4044 60.0488 65.3415V62.4049C60.0488 62.3402 60.0745 62.2782 60.1202 62.2324C60.1659 62.1867 60.228 62.161 60.2927 62.161C60.357 62.1622 60.4183 62.1883 60.4638 62.2338C60.5092 62.2793 60.5353 62.3406 60.5366 62.4049V65.3268C60.5379 65.3586 60.5328 65.3904 60.5217 65.4202C60.5106 65.45 60.4936 65.4773 60.4718 65.5005C60.45 65.5236 60.4238 65.5422 60.3947 65.5551C60.3656 65.568 60.3342 65.575 60.3024 65.5756H60.2927ZM74.4634 61.3561C74.4062 61.3569 74.3507 61.3371 74.3068 61.3004C74.263 61.2637 74.2337 61.2125 74.2244 61.1561C74.0536 60.1951 73.8488 59.239 73.6195 58.3073C73.6115 58.2766 73.6097 58.2445 73.6142 58.2131C73.6187 58.1816 73.6295 58.1514 73.6458 58.1241C73.6622 58.0968 73.6838 58.0731 73.7095 58.0543C73.7351 58.0355 73.7642 58.022 73.7951 58.0146C73.8262 58.0066 73.8585 58.0047 73.8903 58.0092C73.9221 58.0137 73.9527 58.0243 73.9803 58.0407C74.008 58.057 74.0321 58.0786 74.0514 58.1043C74.0707 58.1299 74.0847 58.1591 74.0927 58.1902C74.3219 59.1317 74.5317 60.0976 74.7024 61.0683C74.7138 61.1317 74.6997 61.197 74.6632 61.25C74.6266 61.303 74.5706 61.3394 74.5073 61.3512L74.4634 61.3561ZM60.2927 59.722C60.228 59.722 60.1659 59.6963 60.1202 59.6505C60.0745 59.6048 60.0488 59.5427 60.0488 59.4781V56.5512C60.0488 56.4865 60.0745 56.4245 60.1202 56.3788C60.1659 56.333 60.228 56.3073 60.2927 56.3073C60.357 56.3086 60.4183 56.3347 60.4638 56.3801C60.5092 56.4256 60.5353 56.4869 60.5366 56.5512V59.4781C60.5366 59.5427 60.5109 59.6048 60.4651 59.6505C60.4194 59.6963 60.3574 59.722 60.2927 59.722ZM73.0536 55.678C73.0021 55.6787 72.9517 55.663 72.9096 55.6332C72.8675 55.6034 72.836 55.561 72.8195 55.5122C72.5219 54.5902 72.1902 53.6683 71.8341 52.7756C71.8171 52.7454 71.8068 52.7118 71.8038 52.6773C71.8008 52.6427 71.8052 52.6079 71.8167 52.5752C71.8282 52.5425 71.8465 52.5126 71.8705 52.4875C71.8945 52.4624 71.9236 52.4428 71.9558 52.4298C71.9879 52.4169 72.0225 52.411 72.0572 52.4124C72.0918 52.4139 72.1258 52.4228 72.1567 52.4384C72.1877 52.4541 72.215 52.4761 72.2367 52.5032C72.2585 52.5302 72.2742 52.5615 72.2829 52.5951C72.6488 53.4976 72.9854 54.4293 73.2878 55.361C73.3063 55.4231 73.2998 55.4899 73.2697 55.5473C73.2396 55.6047 73.1884 55.6481 73.1268 55.6683C73.1033 55.6763 73.0784 55.6796 73.0536 55.678ZM60.2927 53.8683C60.228 53.8683 60.1659 53.8426 60.1202 53.7969C60.0745 53.7511 60.0488 53.6891 60.0488 53.6244V50.6976C60.0488 50.6329 60.0745 50.5708 60.1202 50.5251C60.1659 50.4794 60.228 50.4537 60.2927 50.4537C60.357 50.4549 60.4183 50.481 60.4638 50.5265C60.5092 50.572 60.5353 50.6333 60.5366 50.6976V53.6244C60.5366 53.6891 60.5109 53.7511 60.4651 53.7969C60.4194 53.8426 60.3574 53.8683 60.2927 53.8683ZM70.8683 50.2537C70.8226 50.2537 70.7777 50.241 70.7389 50.2168C70.7001 50.1927 70.6689 50.1581 70.6488 50.1171C70.2293 49.2537 69.7707 48.3902 69.2829 47.5512C69.2523 47.4939 69.2449 47.4271 69.2621 47.3644C69.2794 47.3018 69.32 47.2482 69.3756 47.2146C69.4319 47.183 69.4984 47.175 69.5606 47.1924C69.6228 47.2098 69.6755 47.2511 69.7073 47.3073C70.2 48.1561 70.6634 49.0341 71.0878 49.9024C71.1019 49.9313 71.1103 49.9626 71.1123 49.9946C71.1143 50.0267 71.11 50.0588 71.0996 50.0891C71.0891 50.1195 71.0728 50.1475 71.0515 50.1716C71.0303 50.1956 71.0045 50.2152 70.9756 50.2293C70.9427 50.247 70.9056 50.2555 70.8683 50.2537ZM60.2927 48.0146C60.228 48.0146 60.1659 47.9889 60.1202 47.9432C60.0745 47.8975 60.0488 47.8354 60.0488 47.7707V44.8439C60.0488 44.7792 60.0745 44.7172 60.1202 44.6714C60.1659 44.6257 60.228 44.6 60.2927 44.6C60.357 44.6012 60.4183 44.6273 60.4638 44.6728C60.5092 44.7183 60.5353 44.7796 60.5366 44.8439V47.7707C60.5366 47.8354 60.5109 47.8975 60.4651 47.9432C60.4194 47.9889 60.3574 48.0146 60.2927 48.0146ZM67.9512 45.1854C67.911 45.185 67.8714 45.1751 67.8358 45.1564C67.8002 45.1378 67.7695 45.1109 67.7463 45.078C67.2195 44.2878 66.6488 43.4878 66.0536 42.7073C66.0148 42.6556 65.9982 42.5905 66.0073 42.5265C66.0165 42.4624 66.0507 42.4047 66.1024 42.3659C66.1542 42.327 66.2192 42.3104 66.2833 42.3195C66.3473 42.3287 66.4051 42.3629 66.4439 42.4146C67.0439 43.2 67.6195 44.0049 68.1512 44.8049C68.1694 44.8317 68.1822 44.8619 68.1886 44.8936C68.1951 44.9254 68.1951 44.9582 68.1887 44.9899C68.1824 45.0217 68.1697 45.0519 68.1516 45.0788C68.1334 45.1057 68.1101 45.1286 68.0829 45.1463C68.0433 45.171 67.9978 45.1845 67.9512 45.1854ZM61.1707 42.3902C61.1089 42.3889 61.0497 42.3645 61.0049 42.3219C60.9814 42.2999 60.9624 42.2735 60.9492 42.2441C60.936 42.2147 60.9287 42.183 60.9278 42.1508C60.9269 42.1186 60.9324 42.0865 60.9439 42.0565C60.9555 42.0264 60.9729 41.9989 60.9951 41.9756C61.3204 41.6256 61.7144 41.3466 62.1526 41.156C62.5908 40.9655 63.0636 40.8675 63.5414 40.8683C63.6376 40.8682 63.7336 40.8731 63.8293 40.8829C63.8613 40.8854 63.8926 40.8942 63.9212 40.9088C63.9499 40.9234 63.9754 40.9435 63.9963 40.968C64.0171 40.9924 64.0329 41.0208 64.0428 41.0514C64.0526 41.082 64.0563 41.1143 64.0536 41.1463C64.0512 41.1782 64.0424 41.2093 64.0278 41.2377C64.0131 41.2661 63.9929 41.2913 63.9683 41.3118C63.9438 41.3322 63.9154 41.3476 63.8848 41.3569C63.8542 41.3662 63.822 41.3692 63.7902 41.3659L63.5414 41.3561C63.1708 41.3561 62.8035 41.4256 62.4585 41.561C62.0376 41.7248 61.659 41.9816 61.3512 42.3122C61.3278 42.3366 61.2998 42.356 61.2688 42.3694C61.2378 42.3828 61.2045 42.3899 61.1707 42.3902Z" fill="#78B7FF"/>
<path id="Vector_8" d="M51.2439 27.1951V25.439H49.4878V27.1951H47.7317V28.9463H49.4878V30.7024H51.2439V28.9463H52.9951V27.1951H51.2439Z" fill="#78B7FF"/>
<path id="Vector_9" d="M50.3659 34.2439C48.7288 34.2413 47.1595 33.5899 46.0019 32.4323C44.8443 31.2747 44.1928 29.7054 44.1902 28.0683C44.1902 24.6683 46.961 21.8976 50.3659 21.8976C53.7707 21.8976 56.5366 24.6683 56.5366 28.0683C56.5366 31.4683 53.7707 34.2439 50.3659 34.2439ZM50.3659 23.361C49.4335 23.36 48.5217 23.6357 47.7461 24.1531C46.9704 24.6705 46.3657 25.4064 46.0084 26.2677C45.6512 27.1289 45.5574 28.0768 45.7391 28.9913C45.9208 29.9058 46.3697 30.7459 47.029 31.4052C47.6883 32.0645 48.5283 32.5134 49.4429 32.6951C50.3574 32.8767 51.3053 32.783 52.1665 32.4258C53.0278 32.0685 53.7636 31.4638 54.2811 30.6881C54.7985 29.9124 55.0741 29.0007 55.0732 28.0683C55.0719 26.8203 54.5755 25.6237 53.693 24.7412C52.8105 23.8587 51.6139 23.3623 50.3659 23.361Z" fill="#2E3A58"/>
</g>
</svg>
