<svg width="100" height="100" viewBox="0 0 100 100" fill="none" xmlns="http://www.w3.org/2000/svg">
<g id="health-healthcare-medical-medicine-stomach-svgrepo-com 1">
<path id="Vector" d="M29.8878 79.4488C29.3639 79.4499 28.8468 79.3305 28.3765 79.0998C27.9061 78.869 27.4952 78.5332 27.1754 78.1182C26.8557 77.7032 26.6357 77.2201 26.5325 76.7065C26.4294 76.1929 26.4458 75.6624 26.5805 75.1561L29.1171 65.5073C29.4629 64.1924 30.2343 63.029 31.3109 62.1986C32.3875 61.3682 33.7087 60.9176 35.0683 60.9171H38.8098C40.9001 60.9265 42.9601 60.417 44.8049 59.4342C46.5463 58.5044 48.0501 57.1859 49.1998 55.5812C50.3494 53.9764 51.114 52.1284 51.4342 50.1805C51.761 48.1415 51.5756 46.1024 50.8927 44.1171L50.8195 43.9073C49.9184 41.4191 48.3176 39.2441 46.2098 37.6439C45.9699 37.4646 45.6748 37.3748 45.3756 37.3903H45.3074L44.3415 37.3561C40.0927 37.3463 36.6391 33.8878 36.6391 29.6342V22.239C36.6391 22.045 36.7161 21.8589 36.8534 21.7216C36.9906 21.5844 37.1767 21.5073 37.3708 21.5073H42.2488C42.4429 21.5073 42.629 21.5844 42.7662 21.7216C42.9034 21.8589 42.9805 22.045 42.9805 22.239V28.4293C42.9804 29.1216 43.2524 29.7863 43.7379 30.28C44.2233 30.7737 44.8834 31.0568 45.5756 31.0683L48.1025 31.1122C53.1025 29.9659 57.8293 30.6634 61.7805 33.1268C65.6147 35.5171 68.6098 39.4878 70.4391 44.6098C71.8295 48.4933 72.062 52.6971 71.1082 56.7103C70.1545 60.7235 68.0556 64.3732 65.0666 67.216C62.0776 70.0587 58.3273 71.9721 54.2713 72.7235C50.2154 73.475 46.0285 73.0321 42.2195 71.4488C40.883 70.8927 39.8635 69.8732 39.3366 68.5756C38.9171 67.5415 37.9464 66.8732 36.8537 66.8732C36.5903 66.8732 36.3341 66.9595 36.1244 67.119C35.9147 67.2785 35.7631 67.5023 35.6927 67.7561L33.1854 76.9317C32.9861 77.6539 32.5559 78.2909 31.9604 78.7454C31.3649 79.2 30.637 79.447 29.8878 79.4488ZM35.0683 62.3805C34.0323 62.3816 33.0257 62.7252 32.2052 63.3578C31.3847 63.9903 30.7964 64.8764 30.5317 65.8781L27.9952 75.5317C27.8818 76.0252 27.9641 76.5435 28.225 76.9775C28.4859 77.4115 28.9049 77.7274 29.3939 77.8589C29.8829 77.9903 30.4039 77.9269 30.8471 77.6822C31.2904 77.4374 31.6215 77.0302 31.7708 76.5463L34.283 67.3707C34.4385 66.808 34.774 66.3116 35.2382 65.9575C35.7025 65.6034 36.2698 65.411 36.8537 65.4098C38.5415 65.4098 40.0488 66.439 40.6927 68.0293C40.961 68.6878 41.5366 69.5805 42.7805 70.0976C46.3279 71.573 50.2276 71.9861 54.0053 71.2867C57.7831 70.5873 61.2764 68.8054 64.0604 66.1578C66.8445 63.5101 68.7994 60.1107 69.6876 56.3728C70.5758 52.6349 70.359 48.7194 69.0634 45.1024C67.3415 40.2927 64.5561 36.5854 61.0098 34.3707C59.2319 33.2601 57.2442 32.5278 55.1708 32.2195C53.0098 31.8927 50.7122 32.0049 48.3464 32.5561C48.2889 32.5698 48.2299 32.5764 48.1708 32.5756L45.5513 32.5317C44.4747 32.5151 43.448 32.0753 42.693 31.3076C41.9381 30.5399 41.5157 29.506 41.5171 28.4293V22.9707H38.1025V29.6342C38.1025 33.0829 40.9074 35.8927 44.3561 35.8927H44.3854L45.3317 35.9268C45.9645 35.9036 46.5861 36.0982 47.0927 36.4781C49.4273 38.2474 51.1995 40.6549 52.1952 43.4098L52.2781 43.639C53.0391 45.8537 53.2439 48.1317 52.8781 50.4098C52.5238 52.5817 51.673 54.6426 50.3921 56.4321C49.1111 58.2215 47.4345 59.6912 45.4927 60.7268C43.4362 61.8224 41.1399 62.3906 38.8098 62.3805H35.0683Z" fill="#2E3A58"/>
<path id="Vector_2" d="M50.3854 69.4244C48.0293 69.239 46.2585 68.6927 44.9122 68.0244C42.9317 67.0439 43.0537 64.1853 45.0976 63.3414C45.5805 63.1366 46.0537 62.9122 46.5219 62.6634C48.7645 61.4697 50.7009 59.7739 52.18 57.7084C53.6591 55.6429 54.6409 53.2636 55.0488 50.7561C55.4697 48.1289 55.2299 45.4382 54.3512 42.9268C54.3219 42.8341 54.2878 42.7463 54.2585 42.6585C53.7024 41.1366 52.3268 39.2292 51.0585 37.678C49.9366 36.3024 50.9024 34.2439 52.6732 34.2292H52.7122C55.9073 34.2292 58.7707 35.2341 61.2244 37.2146C63.678 39.1951 65.6878 42.1902 66.9951 45.839C68.5756 50.2634 68.3415 55.0341 66.3463 59.2829C64.3512 63.5317 60.8146 66.7561 56.3951 68.361C54.4689 69.0621 52.4352 69.422 50.3854 69.4244Z" fill="#E0E1E2"/>
<path id="Vector_3" d="M50.3854 69.6683H50.3659C49.3788 69.5985 48.3995 69.4434 47.4391 69.2049C47.3761 69.1887 47.3219 69.1485 47.2881 69.0929C47.2544 69.0373 47.2438 68.9707 47.2586 68.9073C47.2666 68.8762 47.2806 68.847 47.2998 68.8213C47.3191 68.7957 47.3433 68.774 47.3709 68.7577C47.3986 68.7414 47.4292 68.7307 47.4609 68.7263C47.4927 68.7218 47.5251 68.7236 47.5562 68.7317C48.4886 68.9596 49.4381 69.1113 50.3952 69.1854C50.8049 69.1854 51.2196 69.1659 51.6293 69.1366C51.6614 69.1343 51.6935 69.1384 51.724 69.1486C51.7544 69.1588 51.7826 69.1749 51.8068 69.1959C51.831 69.217 51.8509 69.2426 51.8652 69.2714C51.8795 69.3001 51.8881 69.3314 51.8903 69.3634C51.8925 69.3954 51.8885 69.4276 51.8783 69.458C51.8681 69.4885 51.852 69.5166 51.8309 69.5409C51.8099 69.5651 51.7842 69.585 51.7555 69.5993C51.7268 69.6136 51.6955 69.6222 51.6635 69.6244C51.2391 69.6488 50.8098 69.6683 50.3854 69.6683ZM54.5318 69.1659C54.4738 69.1637 54.4186 69.1409 54.3759 69.1017C54.3332 69.0625 54.3059 69.0093 54.2988 68.9518C54.2918 68.8942 54.3055 68.836 54.3374 68.7877C54.3694 68.7393 54.4175 68.7039 54.4732 68.6878C55.096 68.5366 55.71 68.3509 56.3123 68.1317C56.6147 68.0195 56.9171 67.9024 57.2098 67.7756C57.2693 67.7497 57.3367 67.7486 57.3971 67.7723C57.4574 67.7961 57.5059 67.8429 57.5318 67.9024C57.5576 67.9619 57.5588 68.0293 57.535 68.0897C57.5112 68.1501 57.4644 68.1985 57.4049 68.2244C57.1025 68.3561 56.7903 68.478 56.4781 68.5902C55.8594 68.8137 55.2292 69.0042 54.5903 69.161L54.5318 69.1659ZM44.761 68.1902C44.7182 68.1888 44.6764 68.177 44.6391 68.1561C44.2141 67.913 43.8613 67.5613 43.617 67.137C43.3727 66.7127 43.2457 66.2311 43.2488 65.7415C43.2488 65.6453 43.2537 65.5493 43.2635 65.4537C43.2708 65.3897 43.3032 65.3313 43.3534 65.2911C43.4037 65.2509 43.4678 65.2322 43.5318 65.239C43.5957 65.2452 43.6545 65.2763 43.6956 65.3256C43.7367 65.375 43.7567 65.4385 43.7513 65.5024C43.7415 65.5817 43.7367 65.6616 43.7366 65.7415C43.7333 66.1452 43.8378 66.5425 44.0393 66.8924C44.2408 67.2423 44.5321 67.532 44.883 67.7317C44.9384 67.7643 44.9786 67.8174 44.9951 67.8795C45.0115 67.9416 45.0028 68.0077 44.9708 68.0634C44.9505 68.1015 44.9203 68.1334 44.8834 68.1558C44.8465 68.1781 44.8042 68.19 44.761 68.1902ZM59.8927 66.8829C59.852 66.8824 59.812 66.8719 59.7763 66.8524C59.7406 66.8328 59.7102 66.8048 59.6879 66.7707C59.653 66.7164 59.6412 66.6504 59.6549 66.5873C59.6686 66.5242 59.7068 66.4691 59.761 66.4341C60.5724 65.9167 61.3393 65.3326 62.0537 64.6878C62.0777 64.6662 62.1056 64.6495 62.1361 64.6388C62.1665 64.628 62.1987 64.6234 62.231 64.6252C62.2632 64.6271 62.2947 64.6353 62.3237 64.6493C62.3528 64.6634 62.3787 64.6831 62.4001 64.7073C62.4215 64.7308 62.4381 64.7584 62.4488 64.7885C62.4595 64.8185 62.464 64.8503 62.4622 64.8822C62.4604 64.914 62.4522 64.9451 62.4382 64.9737C62.4242 65.0023 62.4046 65.0279 62.3805 65.0488C61.6484 65.7139 60.8601 66.3146 60.0244 66.8439C59.9858 66.8707 59.9397 66.8843 59.8927 66.8829ZM45.2098 63.5366C45.1534 63.537 45.0986 63.518 45.0547 63.4826C45.0108 63.4472 44.9806 63.3976 44.969 63.3424C44.9575 63.2872 44.9655 63.2297 44.9916 63.1798C45.0178 63.1298 45.0604 63.0904 45.1123 63.0683C45.5513 62.8829 45.9854 62.6732 46.4049 62.4488C46.8244 62.2244 47.2488 61.9756 47.6537 61.7122C47.7075 61.6769 47.773 61.6643 47.8361 61.6771C47.8991 61.6898 47.9545 61.727 47.9903 61.7805C48.0084 61.8069 48.0211 61.8367 48.0274 61.8681C48.0338 61.8995 48.0338 61.9318 48.0275 61.9632C48.0211 61.9946 48.0085 62.0244 47.9904 62.0509C47.9722 62.0773 47.949 62.0998 47.922 62.1171C47.5074 62.3902 47.0732 62.6488 46.6342 62.8829C46.1952 63.1171 45.7513 63.3268 45.3025 63.5171C45.2735 63.5306 45.2418 63.5372 45.2098 63.5366ZM64.2147 62.9756C64.1603 62.9767 64.107 62.9595 64.0635 62.9268C64.0129 62.8857 63.9805 62.8264 63.9732 62.7616C63.9659 62.6969 63.9843 62.6318 64.0244 62.5805C64.6201 61.8259 65.152 61.0232 65.6147 60.1805C65.6301 60.1523 65.6508 60.1274 65.6758 60.1073C65.7008 60.0871 65.7295 60.0721 65.7603 60.063C65.7911 60.0539 65.8234 60.051 65.8553 60.0545C65.8873 60.0579 65.9182 60.0675 65.9464 60.0829C65.9746 60.0983 65.9995 60.1191 66.0196 60.1441C66.0398 60.1691 66.0548 60.1978 66.0639 60.2286C66.0729 60.2594 66.0758 60.2917 66.0724 60.3236C66.069 60.3555 66.0593 60.3864 66.044 60.4146C65.5667 61.2813 65.0185 62.1068 64.4049 62.8829C64.3827 62.9122 64.3539 62.9359 64.3209 62.952C64.2878 62.9681 64.2515 62.9762 64.2147 62.9756ZM50.083 60.3463C50.0156 60.3464 49.9508 60.3202 49.9025 60.2732C49.8806 60.2495 49.8635 60.2218 49.8524 60.1916C49.8413 60.1613 49.8362 60.1292 49.8376 60.0969C49.8389 60.0647 49.8467 60.0331 49.8603 60.0039C49.874 59.9747 49.8933 59.9485 49.9171 59.9268C50.6154 59.2663 51.2552 58.5465 51.8293 57.7756C51.8482 57.7496 51.872 57.7276 51.8994 57.7108C51.9268 57.694 51.9572 57.6828 51.9889 57.6779C52.0206 57.6729 52.053 57.6742 52.0842 57.6818C52.1155 57.6893 52.1449 57.703 52.1708 57.722C52.2215 57.7615 52.2549 57.8192 52.264 57.8829C52.2731 57.9465 52.2571 58.0112 52.2196 58.0634C51.6287 58.8594 50.9693 59.6021 50.2488 60.2829C50.2035 60.3242 50.1443 60.3468 50.083 60.3463ZM67.0244 57.8732C66.9978 57.8731 66.9713 57.8681 66.9464 57.8585C66.8855 57.8364 66.8356 57.7914 66.8074 57.7331C66.7792 57.6748 66.7748 57.6078 66.7952 57.5463C67.1159 56.6398 67.3606 55.7081 67.5269 54.761C67.5322 54.7292 67.5437 54.6988 67.5609 54.6715C67.578 54.6442 67.6004 54.6206 67.6267 54.602C67.653 54.5834 67.6827 54.5702 67.7141 54.5632C67.7456 54.5561 67.7781 54.5554 67.8098 54.561C67.8734 54.5729 67.9298 54.6091 67.9672 54.6619C68.0045 54.7147 68.0198 54.78 68.0098 54.8439C67.8383 55.8178 67.5854 56.7757 67.2537 57.7073C67.2381 57.7558 67.2075 57.798 67.1663 57.8278C67.125 57.8576 67.0753 57.8735 67.0244 57.8732ZM53.5464 55.6683C53.5094 55.6671 53.473 55.6589 53.4391 55.6439C53.3816 55.6147 53.3381 55.5639 53.318 55.5026C53.2979 55.4414 53.3028 55.3747 53.3318 55.3171C53.7559 54.4543 54.1052 53.5567 54.3757 52.6341C54.3938 52.572 54.4358 52.5197 54.4925 52.4886C54.5493 52.4575 54.616 52.4502 54.6781 52.4683C54.7402 52.4864 54.7926 52.5284 54.8237 52.5852C54.8548 52.6419 54.8621 52.7086 54.844 52.7707C54.5672 53.7212 54.2064 54.6452 53.7659 55.5317C53.7468 55.5735 53.7157 55.6088 53.6767 55.633C53.6377 55.6573 53.5924 55.6696 53.5464 55.6683ZM68.0293 52.1317C67.9646 52.1317 67.9026 52.106 67.8569 52.0603C67.8111 52.0145 67.7854 51.9525 67.7854 51.8878C67.7854 51.8537 67.7903 51.8195 67.7903 51.7854C67.7893 50.8571 67.7126 49.9304 67.561 49.0146C67.5525 48.9508 67.5691 48.8861 67.6074 48.8343C67.6456 48.7824 67.7024 48.7474 67.7659 48.7366C67.7973 48.731 67.8296 48.7318 67.8607 48.7389C67.8918 48.746 67.9212 48.7593 67.9471 48.7779C67.9731 48.7966 67.995 48.8202 68.0116 48.8475C68.0282 48.8747 68.0392 48.905 68.044 48.9366C68.1998 49.8782 68.2781 50.831 68.2781 51.7854C68.2781 51.8195 68.2732 51.8585 68.2732 51.8927C68.2732 51.9245 68.2669 51.956 68.2546 51.9853C68.2423 52.0146 68.2242 52.0412 68.2015 52.0634C68.1788 52.0857 68.1519 52.1032 68.1223 52.1149C68.0927 52.1267 68.0611 52.1324 68.0293 52.1317ZM55.1659 50.078H55.1415C55.1101 50.075 55.0795 50.0658 55.0517 50.0508C55.0238 50.0359 54.9992 50.0156 54.9792 49.9911C54.9593 49.9666 54.9444 49.9384 54.9354 49.9081C54.9264 49.8778 54.9235 49.8461 54.9269 49.8146C54.9795 49.2846 55.0056 48.7522 55.0049 48.2195C55.0049 47.7902 54.9903 47.361 54.9513 46.9366C54.9486 46.9045 54.9523 46.8723 54.9622 46.8417C54.972 46.811 54.9878 46.7827 55.0087 46.7582C55.0295 46.7337 55.055 46.7136 55.0837 46.699C55.1123 46.6844 55.1436 46.6756 55.1757 46.6732C55.2396 46.6677 55.3031 46.6877 55.3525 46.7288C55.4018 46.7699 55.4329 46.8288 55.4391 46.8927C55.4781 47.3317 55.4927 47.7805 55.4927 48.2195C55.4942 48.7686 55.4665 49.3173 55.4098 49.8634C55.4037 49.9233 55.3752 49.9787 55.3299 50.0185C55.2847 50.0583 55.2261 50.0796 55.1659 50.078ZM67.0976 46.3805C67.0467 46.3809 66.997 46.365 66.9558 46.3351C66.9146 46.3053 66.8839 46.2631 66.8684 46.2146L66.7659 45.922C66.474 45.1101 66.1402 44.3139 65.7659 43.5366C65.7434 43.4792 65.7434 43.4154 65.766 43.358C65.7886 43.3006 65.8321 43.2539 65.8878 43.2273C65.9434 43.2008 66.0071 43.1962 66.0659 43.2147C66.1248 43.2332 66.1744 43.2732 66.2049 43.3268C66.5878 44.1178 66.9281 44.9287 67.2244 45.7561L67.3269 46.0585C67.3473 46.12 67.3429 46.187 67.3147 46.2453C67.2864 46.3036 67.2366 46.3486 67.1757 46.3707L67.0976 46.3805ZM54.6927 44.2732C54.6391 44.2742 54.5867 44.2576 54.5435 44.2259C54.5003 44.1941 54.4687 44.149 54.4537 44.0976C54.3562 43.7317 54.244 43.3659 54.122 43.0049L54.0293 42.7415C53.8581 42.2898 53.651 41.8526 53.4098 41.4341C53.3799 41.377 53.3733 41.3105 53.3916 41.2486C53.4098 41.1867 53.4513 41.1343 53.5074 41.1024C53.5637 41.0708 53.6302 41.0629 53.6924 41.0802C53.7546 41.0976 53.8073 41.1389 53.8391 41.1951C54.0902 41.6381 54.3071 42.0996 54.4879 42.5756C54.5171 42.6683 54.5513 42.7561 54.5805 42.8439C54.7123 43.2146 54.8244 43.5951 54.9269 43.9659C54.9435 44.0286 54.9349 44.0953 54.903 44.1518C54.8711 44.2083 54.8184 44.2501 54.7562 44.2683L54.6927 44.2732ZM64.5366 41.1366C64.497 41.1367 64.458 41.1269 64.4231 41.1082C64.3882 41.0894 64.3585 41.0623 64.3366 41.0293C63.8019 40.228 63.2014 39.4726 62.5415 38.7707C62.5194 38.7473 62.5021 38.7198 62.4907 38.6898C62.4792 38.6597 62.4738 38.6277 62.4747 38.5955C62.4756 38.5634 62.4828 38.5317 62.4959 38.5023C62.5091 38.473 62.5279 38.4465 62.5513 38.4244C62.5747 38.4023 62.6022 38.385 62.6322 38.3735C62.6623 38.3621 62.6943 38.3566 62.7265 38.3575C62.7586 38.3584 62.7903 38.3657 62.8197 38.3788C62.849 38.392 62.8755 38.4108 62.8976 38.4341C63.5753 39.1559 64.192 39.9326 64.7415 40.7561C64.7768 40.8099 64.7895 40.8754 64.7767 40.9384C64.7639 41.0015 64.7267 41.0569 64.6732 41.0927C64.6333 41.121 64.5856 41.1363 64.5366 41.1366ZM52.0049 39.122C51.9671 39.1216 51.9299 39.1126 51.8961 39.0957C51.8623 39.0788 51.8328 39.0544 51.8098 39.0244C51.5171 38.639 51.2049 38.239 50.8684 37.8293C50.5349 37.4246 50.3476 36.9194 50.3366 36.3951C50.336 36.3631 50.3417 36.3312 50.3533 36.3014C50.365 36.2716 50.3824 36.2443 50.4046 36.2212C50.4268 36.1981 50.4533 36.1796 50.4827 36.1668C50.512 36.1539 50.5436 36.147 50.5757 36.1463C50.64 36.1463 50.7018 36.1712 50.7482 36.2157C50.7946 36.2603 50.8219 36.3211 50.8244 36.3854C50.8305 36.8018 50.9805 37.2034 51.2488 37.522C51.5854 37.9366 51.9074 38.3415 52.2001 38.7317C52.2376 38.7839 52.2535 38.8486 52.2445 38.9123C52.2354 38.9759 52.202 39.0336 52.1513 39.0732C52.1092 39.1052 52.0578 39.1223 52.0049 39.122ZM60.5171 36.922C60.4681 36.9223 60.4202 36.9069 60.3805 36.878C59.5979 36.3233 58.7572 35.8555 57.8732 35.4829C57.8147 35.4571 57.7684 35.4098 57.7439 35.3508C57.7194 35.2917 57.7185 35.2255 57.7415 35.1659C57.7538 35.1359 57.7719 35.1087 57.7948 35.0858C57.8177 35.0629 57.8449 35.0448 57.8749 35.0325C57.9049 35.0203 57.937 35.0141 57.9693 35.0144C58.0017 35.0146 58.0337 35.0214 58.0635 35.0341C58.9803 35.4179 59.8508 35.9039 60.6586 36.4829C60.6848 36.501 60.7072 36.524 60.7243 36.5508C60.7415 36.5776 60.7532 36.6076 60.7586 36.6389C60.7641 36.6703 60.7632 36.7024 60.7561 36.7334C60.749 36.7644 60.7357 36.7937 60.7171 36.8195C60.6947 36.8517 60.6648 36.8778 60.6299 36.8957C60.595 36.9136 60.5563 36.9226 60.5171 36.922ZM55.1659 34.6829H55.122C54.3262 34.5449 53.5199 34.4763 52.7123 34.478H52.6781C52.5521 34.4811 52.4265 34.4942 52.3025 34.5171C52.2711 34.5242 52.2385 34.5248 52.2068 34.519C52.1751 34.5132 52.1449 34.5011 52.118 34.4833C52.0911 34.4655 52.0681 34.4425 52.0504 34.4156C52.0326 34.3887 52.0205 34.3585 52.0147 34.3268C52.0083 34.2954 52.0081 34.2631 52.0142 34.2316C52.0203 34.2002 52.0325 34.1702 52.0502 34.1435C52.0679 34.1168 52.0906 34.0938 52.1172 34.0759C52.1437 34.0579 52.1735 34.0454 52.2049 34.039C52.3595 34.0102 52.5161 33.9939 52.6732 33.9902H52.7123C53.5494 33.9893 54.3851 34.0612 55.2098 34.2049C55.2687 34.2168 55.3212 34.25 55.3571 34.2982C55.393 34.3464 55.4098 34.4062 55.4044 34.466C55.3989 34.5259 55.3716 34.5816 55.3276 34.6225C55.2836 34.6635 55.226 34.6867 55.1659 34.6878V34.6829Z" fill="#78B7FF"/>
<path id="Vector_4" d="M41.3073 55.2245C39.6778 55.2246 38.102 54.6413 36.8654 53.5801C35.6287 52.5188 34.813 51.0498 34.5659 49.4391C34.5127 49.7828 34.4866 50.1303 34.4878 50.4781C34.4878 52.2868 35.2063 54.0213 36.4852 55.3002C37.7641 56.5791 39.4987 57.2976 41.3073 57.2976C43.116 57.2976 44.8506 56.5791 46.1295 55.3002C47.4084 54.0213 48.1269 52.2868 48.1269 50.4781C48.1257 50.1304 48.0996 49.7831 48.0488 49.4391C47.8007 51.0494 46.9847 52.5178 45.7483 53.5789C44.5119 54.6399 42.9366 55.2236 41.3073 55.2245Z" fill="#E0E1E2"/>
<path id="Vector_5" d="M41.3073 58.0293C37.1415 58.0293 33.7561 54.6391 33.7561 50.4781C33.7561 46.3171 37.1415 42.9269 41.3073 42.9269C45.4732 42.9269 48.8585 46.3122 48.8585 50.4781C48.8585 54.644 45.4683 58.0293 41.3073 58.0293ZM41.3073 44.3903C40.1033 44.3903 38.9263 44.7473 37.9251 45.4163C36.924 46.0852 36.1437 47.036 35.6829 48.1484C35.2222 49.2608 35.1016 50.4848 35.3365 51.6658C35.5714 52.8467 36.1512 53.9314 37.0026 54.7828C37.854 55.6342 38.9387 56.214 40.1196 56.4489C41.3006 56.6838 42.5246 56.5633 43.637 56.1025C44.7494 55.6417 45.7002 54.8614 46.3691 53.8603C47.0381 52.8592 47.3951 51.6822 47.3951 50.4781C47.3938 48.8639 46.752 47.3162 45.6106 46.1748C44.4692 45.0334 42.9215 44.3916 41.3073 44.3903Z" fill="#78B7FF"/>
<path id="Vector_6" d="M42.3513 49.4292V47.3365H40.2586V49.4292H38.1659V51.5219H40.2586V53.6195H42.3513V51.5219H44.4488V49.4292H42.3513Z" fill="#78B7FF"/>
<path id="Vector_7" d="M61.8244 58.4C61.1963 58.4 60.5824 58.2138 60.0601 57.8649C59.5379 57.5159 59.1309 57.02 58.8905 56.4397C58.6502 55.8594 58.5873 55.2209 58.7098 54.6049C58.8324 53.9889 59.1348 53.4231 59.5789 52.9789C60.023 52.5348 60.5889 52.2324 61.2049 52.1098C61.8209 51.9873 62.4594 52.0502 63.0397 52.2906C63.6199 52.5309 64.1159 52.9379 64.4648 53.4602C64.8138 53.9824 65 54.5964 65 55.2244C64.9974 56.0659 64.6621 56.8721 64.0671 57.4671C63.4721 58.0621 62.6658 58.3975 61.8244 58.4ZM61.8244 53.3952C61.4626 53.3952 61.109 53.5025 60.8081 53.7035C60.5073 53.9045 60.2728 54.1902 60.1344 54.5244C59.9959 54.8587 59.9597 55.2265 60.0303 55.5813C60.1009 55.9362 60.2751 56.2621 60.5309 56.5179C60.7868 56.7738 61.1127 56.948 61.4675 57.0186C61.8224 57.0891 62.1902 57.0529 62.5244 56.9145C62.8587 56.776 63.1444 56.5415 63.3454 56.2407C63.5464 55.9399 63.6537 55.5862 63.6537 55.2244C63.6537 54.7393 63.461 54.274 63.1179 53.931C62.7748 53.5879 62.3096 53.3952 61.8244 53.3952Z" fill="#78B7FF"/>
<path id="Vector_8" d="M55.7609 62.8879C56.4048 62.8879 56.9268 62.3659 56.9268 61.722C56.9268 61.0781 56.4048 60.5562 55.7609 60.5562C55.1171 60.5562 54.5951 61.0781 54.5951 61.722C54.5951 62.3659 55.1171 62.8879 55.7609 62.8879Z" fill="#78B7FF"/>
<path id="Vector_9" d="M56.9268 66.1317C57.3875 66.1317 57.7609 65.7582 57.7609 65.2975C57.7609 64.8368 57.3875 64.4634 56.9268 64.4634C56.4661 64.4634 56.0927 64.8368 56.0927 65.2975C56.0927 65.7582 56.4661 66.1317 56.9268 66.1317Z" fill="#78B7FF"/>
<path id="Vector_10" d="M49.9999 65.2975C50.4445 65.2975 50.8048 64.9371 50.8048 64.4926C50.8048 64.0481 50.4445 63.6877 49.9999 63.6877C49.5554 63.6877 49.1951 64.0481 49.1951 64.4926C49.1951 64.9371 49.5554 65.2975 49.9999 65.2975Z" fill="#78B7FF"/>
</g>
</svg>
