<svg width="100" height="100" viewBox="0 0 100 100" fill="none" xmlns="http://www.w3.org/2000/svg">
<g id="bone-health-healthcare-medical-medicine-svgrepo-com 1">
<path id="Vector" d="M28.2146 74.7317C28.1451 74.7307 28.0786 74.7027 28.0293 74.6537C27.9804 74.6043 27.953 74.5377 27.953 74.4683C27.953 74.3989 27.9804 74.3323 28.0293 74.2829L30.3902 71.9171C30.4396 71.8682 30.5062 71.8408 30.5756 71.8408C30.645 71.8408 30.7116 71.8682 30.761 71.9171C30.8101 71.9672 30.8377 72.0347 30.8377 72.1049C30.8377 72.1751 30.8101 72.2425 30.761 72.2927L28.4 74.6537C28.3501 74.7019 28.284 74.7297 28.2146 74.7317ZM32.9366 70.0049C32.902 70.0052 32.8677 69.9984 32.8358 69.985C32.804 69.9716 32.7752 69.9518 32.7512 69.9268C32.7024 69.8775 32.675 69.8109 32.675 69.7415C32.675 69.672 32.7024 69.6054 32.7512 69.5561L35.1122 67.1951C35.1623 67.146 35.2298 67.1184 35.3 67.1184C35.3702 67.1184 35.4376 67.146 35.4878 67.1951C35.5367 67.2444 35.5641 67.3111 35.5641 67.3805C35.5641 67.4499 35.5367 67.5165 35.4878 67.5659L33.1219 69.9268C33.0982 69.952 33.0694 69.972 33.0375 69.9854C33.0056 69.9989 32.9712 70.0055 32.9366 70.0049ZM37.6634 65.2829C37.5938 65.2819 37.5274 65.2539 37.478 65.2049C37.4292 65.1556 37.4018 65.0889 37.4018 65.0195C37.4018 64.9501 37.4292 64.8835 37.478 64.8341L39.839 62.4683C39.8883 62.4194 39.955 62.392 40.0244 62.392C40.0938 62.392 40.1604 62.4194 40.2097 62.4683C40.2589 62.5184 40.2864 62.5859 40.2864 62.6561C40.2864 62.7263 40.2589 62.7938 40.2097 62.8439L37.8488 65.2049C37.7989 65.2531 37.7328 65.281 37.6634 65.2829ZM42.3854 60.5561C42.3508 60.5564 42.3165 60.5497 42.2846 60.5362C42.2527 60.5228 42.2239 60.503 42.2 60.4781C42.1511 60.4287 42.1237 60.3621 42.1237 60.2927C42.1237 60.2233 42.1511 60.1566 42.2 60.1073L44.561 57.7463C44.6111 57.6972 44.6785 57.6696 44.7488 57.6696C44.819 57.6696 44.8864 57.6972 44.9366 57.7463C44.9854 57.7957 45.0128 57.8623 45.0128 57.9317C45.0128 58.0011 44.9854 58.0678 44.9366 58.1171L42.5707 60.4781C42.547 60.5032 42.5182 60.5232 42.4863 60.5366C42.4544 60.5501 42.42 60.5567 42.3854 60.5561ZM47.1122 55.8341C47.0426 55.8332 46.9762 55.8052 46.9268 55.7561C46.878 55.7068 46.8506 55.6402 46.8506 55.5707C46.8506 55.5013 46.878 55.4347 46.9268 55.3854L48.039 54.2683C48.0896 54.2268 48.1537 54.2056 48.2191 54.2088C48.2844 54.212 48.3462 54.2394 48.3924 54.2857C48.4386 54.3319 48.466 54.3937 48.4692 54.459C48.4724 54.5243 48.4512 54.5885 48.4097 54.639L47.2976 55.7561C47.2477 55.8043 47.1816 55.8322 47.1122 55.8341Z" fill="#78B7FF"/>
<path id="Vector_2" d="M53.4585 51.8098C53.4027 51.8102 53.3481 51.7931 53.3024 51.761C53.2465 51.72 53.2089 51.6586 53.198 51.5901C53.187 51.5216 53.2035 51.4515 53.2439 51.3951L55.1805 48.6732C55.2212 48.6163 55.2829 48.5779 55.352 48.5664C55.4211 48.555 55.4919 48.5715 55.5488 48.6122C55.6057 48.653 55.6441 48.7147 55.6555 48.7837C55.667 48.8528 55.6505 48.9236 55.6098 48.9805L53.6732 51.6976C53.649 51.7321 53.6169 51.7603 53.5795 51.7798C53.5422 51.7993 53.5007 51.8096 53.4585 51.8098ZM57.3366 46.3708C57.2825 46.3696 57.23 46.3526 57.1854 46.322C57.1283 46.2808 57.0897 46.2189 57.0778 46.1496C57.066 46.0802 57.0818 46.009 57.122 45.9512L59.0634 43.2342C59.1037 43.1774 59.1647 43.1389 59.2333 43.127C59.3018 43.1152 59.3723 43.1309 59.4293 43.1708C59.4575 43.1906 59.4815 43.216 59.4998 43.2453C59.5181 43.2746 59.5303 43.3072 59.5358 43.3413C59.5412 43.3754 59.5398 43.4103 59.5315 43.4438C59.5233 43.4774 59.5084 43.5089 59.4878 43.5366L57.5512 46.2586C57.527 46.2931 57.4949 46.3213 57.4576 46.3408C57.4202 46.3603 57.3787 46.3706 57.3366 46.3708ZM61.2146 40.9269C61.1602 40.9279 61.107 40.9108 61.0634 40.8781C61.0348 40.8586 61.0104 40.8335 60.9916 40.8044C60.9729 40.7753 60.9602 40.7427 60.9543 40.7086C60.9483 40.6744 60.9493 40.6395 60.9572 40.6058C60.9651 40.572 60.9796 40.5402 61 40.5122L62.9415 37.7951C62.9816 37.7389 63.0424 37.7008 63.1105 37.6894C63.1787 37.678 63.2486 37.6941 63.3049 37.7342C63.3612 37.7743 63.3992 37.8351 63.4106 37.9032C63.4221 37.9714 63.406 38.0413 63.3659 38.0976L61.4293 40.8195C61.4048 40.8534 61.3725 40.8809 61.3352 40.8996C61.2978 40.9183 61.2564 40.9276 61.2146 40.9269ZM65.0927 35.4878C65.0382 35.4889 64.985 35.4717 64.9415 35.439C64.8847 35.3988 64.8462 35.3377 64.8343 35.2692C64.8225 35.2007 64.8382 35.1302 64.878 35.0732L66.8195 32.3512C66.8603 32.2943 66.922 32.2559 66.991 32.2445C67.0601 32.233 67.1309 32.2495 67.1878 32.2903C67.2447 32.331 67.2831 32.3927 67.2946 32.4618C67.306 32.5309 67.2895 32.6016 67.2488 32.6586L65.3073 35.3805C65.2826 35.4141 65.2502 35.4414 65.2129 35.46C65.1756 35.4787 65.1344 35.4882 65.0927 35.4878ZM68.9707 30.0488C68.9163 30.0499 68.8631 30.0327 68.8195 30C68.7628 29.9598 68.7243 29.8987 68.7124 29.8302C68.7005 29.7616 68.7162 29.6912 68.7561 29.6342L70.6976 26.9122C70.7174 26.884 70.7428 26.86 70.7721 26.8417C70.8014 26.8234 70.834 26.8112 70.8681 26.8057C70.9022 26.8003 70.9371 26.8017 70.9706 26.8099C71.0042 26.8182 71.0357 26.8331 71.0634 26.8537C71.1202 26.8939 71.1587 26.955 71.1705 27.0235C71.1824 27.0921 71.1667 27.1625 71.1268 27.2195L69.1854 29.9366C69.1615 29.9714 69.1294 29.9998 69.092 30.0194C69.0546 30.039 69.013 30.0491 68.9707 30.0488Z" fill="#78B7FF"/>
<path id="Vector_3" d="M76.2244 27.7415C76.9967 28.7942 77.3707 30.0868 77.2797 31.3893C77.1887 32.6918 76.6387 33.9199 75.7276 34.855C74.8164 35.7902 73.603 36.3719 72.3033 36.4967C71.0036 36.6215 69.7018 36.2813 68.6293 35.5366L68.5902 35.5073C68.3326 35.3243 68.0129 35.2508 67.7011 35.3029C67.3894 35.355 67.111 35.5285 66.9268 35.7854L55.7268 51.4927L56.8976 52.6976L68.8781 35.8976C69.158 36.2102 69.474 36.4886 69.8195 36.7268C72.2781 38.4244 75.6781 37.839 77.4293 35.4195C78.2808 34.2392 78.632 32.7704 78.4063 31.3326C78.1807 29.8948 77.3965 28.6042 76.2244 27.7415Z" fill="#E0E1E2"/>
<path id="Vector_4" d="M49.9902 55.2244L36.3658 68.8537C36.1353 69.0858 36.0059 69.3997 36.0059 69.7268C36.0059 70.054 36.1353 70.3679 36.3658 70.6V70.6098C36.4683 70.7122 36.5658 70.8195 36.6585 70.9268L51.1756 56.4098L50.0585 54.4537L49.5122 54.3903L49.9902 55.2244Z" fill="#E0E1E2"/>
<path id="Vector_5" d="M36.8634 71.1902C38.439 73.3365 38.2585 76.3853 36.3415 78.3268C35.4119 79.2684 34.1748 79.8446 32.8558 79.9503C31.5368 80.056 30.2238 79.6841 29.1561 78.9024C29.3221 79.1271 29.5047 79.3391 29.7024 79.5365C30.2164 80.0511 30.8272 80.4589 31.4995 80.7364C32.1718 81.0139 32.8924 81.1556 33.6197 81.1534C34.347 81.1511 35.0667 81.0049 35.7373 80.7232C36.4079 80.4415 37.0161 80.0299 37.5268 79.5121C39.6293 77.3902 39.6439 73.9365 37.561 71.7951C37.3449 71.5752 37.1117 71.3729 36.8634 71.1902Z" fill="#E0E1E2"/>
<path id="Vector_6" d="M56.8976 53.4293C56.8003 53.4295 56.704 53.4102 56.6143 53.3725C56.5247 53.3348 56.4435 53.2794 56.3756 53.2098L55.1854 51.9903L53.5366 52.3903C53.426 52.4169 53.3108 52.4175 53.1999 52.3921C53.089 52.3667 52.9855 52.316 52.8976 52.2439C52.8106 52.1708 52.7416 52.0787 52.696 51.9746C52.6503 51.8706 52.6291 51.7574 52.6341 51.6439L52.722 49.7854L51.0683 49.3757C50.953 49.3467 50.8465 49.2901 50.7581 49.2108C50.6696 49.1314 50.6017 49.0317 50.5604 48.9203C50.5191 48.8089 50.5056 48.689 50.521 48.5712C50.5364 48.4534 50.5802 48.341 50.6488 48.2439L62.1415 32.1269C61.9893 32.0384 61.8426 31.9407 61.7024 31.8342C60.8661 31.2199 60.1959 30.4071 59.7523 29.469C59.3088 28.5309 59.1058 27.4971 59.1618 26.4609C59.2177 25.4248 59.5308 24.4188 60.0728 23.534C60.6148 22.6491 61.3687 21.9131 62.2663 21.3925C63.1639 20.8719 64.177 20.583 65.2142 20.5519C66.2515 20.5208 67.2801 20.7485 68.2073 21.2144C69.1345 21.6804 69.931 22.3699 70.525 23.2207C71.1191 24.0715 71.4918 25.0569 71.6098 26.0878C72.6215 25.8656 73.6727 25.8986 74.6686 26.1839C75.6644 26.4692 76.5737 26.9977 77.3144 27.722C78.055 28.4462 78.6039 29.3433 78.9115 30.3325C79.2191 31.3217 79.2757 32.3719 79.0763 33.3884C78.8768 34.4049 78.4276 35.3559 77.7691 36.1556C77.1106 36.9552 76.2635 37.5785 75.3041 37.9692C74.3447 38.3599 73.3031 38.5057 72.2733 38.3936C71.2435 38.2815 70.2577 37.9149 69.4049 37.3269C69.2585 37.2244 69.1219 37.122 68.9854 37.0098L57.4976 53.122C57.4343 53.2087 57.3533 53.281 57.2599 53.334C57.1666 53.387 57.063 53.4195 56.9561 53.4293H56.8976ZM55.4195 50.4488C55.5168 50.4486 55.6131 50.468 55.7027 50.5057C55.7924 50.5434 55.8736 50.5987 55.9415 50.6683L56.8146 51.561L68.2829 35.4732C68.3458 35.3842 68.4281 35.3108 68.5236 35.2584C68.6191 35.2059 68.7253 35.176 68.8341 35.1708C68.943 35.164 69.0519 35.1816 69.1531 35.2221C69.2544 35.2625 69.3453 35.325 69.4195 35.4049C69.6633 35.6755 69.9384 35.9163 70.239 36.122C72.361 37.5952 75.3219 37.083 76.8341 34.9903C77.4399 34.1501 77.7567 33.1361 77.737 32.1006C77.7174 31.065 77.3622 30.0638 76.725 29.2473C76.0877 28.4308 75.2027 27.8431 74.203 27.5724C73.2032 27.3018 72.1426 27.3628 71.1805 27.7464C71.0672 27.7913 70.9446 27.8073 70.8236 27.7928C70.7027 27.7783 70.5872 27.7338 70.4878 27.6635C70.388 27.5915 70.3076 27.4959 70.254 27.3852C70.2003 27.2745 70.1751 27.1522 70.1805 27.0293C70.2293 25.9946 69.9409 24.9719 69.3589 24.1151C68.7768 23.2582 67.9324 22.6133 66.9525 22.2773C65.9726 21.9414 64.9102 21.9324 63.9248 22.2519C62.9394 22.5713 62.0842 23.2019 61.4878 24.0488C60 26.161 60.4878 29.1269 62.5707 30.6537C62.8617 30.8713 63.1778 31.0531 63.5122 31.1952C63.6129 31.2384 63.7025 31.3039 63.7743 31.3867C63.8461 31.4695 63.8982 31.5674 63.9268 31.6732C63.9558 31.778 63.9611 31.8879 63.9426 31.995C63.924 32.1021 63.882 32.2038 63.8195 32.2927L52.4683 48.2147L53.6537 48.5122C53.8177 48.5526 53.9627 48.6485 54.0641 48.7837C54.1654 48.9188 54.2169 49.0849 54.2098 49.2537L54.1415 50.7366L55.2488 50.4683C55.3046 50.4546 55.362 50.4481 55.4195 50.4488Z" fill="#2E3A58"/>
<path id="Vector_7" d="M33.6049 81.8878C32.7571 81.8883 31.9181 81.7161 31.139 81.3818C30.3599 81.0475 29.657 80.558 29.0733 79.9432C28.4895 79.3284 28.0371 78.6012 27.7435 77.8058C27.45 77.0105 27.3215 76.1637 27.3659 75.317C25.7105 75.3636 24.1045 74.7507 22.901 73.6131C21.6976 72.4756 20.9954 70.9065 20.9488 69.2512C20.9022 67.5958 21.5151 65.9898 22.6527 64.7864C23.7903 63.5829 25.3593 62.8807 27.0146 62.8341H27.0439C28.6692 62.8276 30.2319 63.46 31.3951 64.5951C31.5229 64.7163 31.6434 64.845 31.7561 64.9804L45.7512 50.9853C45.8581 50.8771 45.9963 50.8054 46.1463 50.7804L48.439 50.3951C48.5553 50.3757 48.6745 50.3847 48.7866 50.4213C48.8986 50.458 49.0002 50.5211 49.0826 50.6054C49.1649 50.6897 49.2257 50.7927 49.2598 50.9055C49.2938 51.0184 49.3001 51.1378 49.2781 51.2536L48.839 53.5707L50.1512 53.7268C50.2644 53.7413 50.3727 53.7819 50.4675 53.8454C50.5623 53.9089 50.6411 53.9935 50.6976 54.0926L51.8146 56.0487C51.893 56.188 51.924 56.3489 51.9028 56.5073C51.8817 56.6657 51.8097 56.8129 51.6976 56.9268L37.7024 70.9219C37.8342 71.039 37.961 71.1609 38.0829 71.2829C38.938 72.1623 39.5154 73.2739 39.743 74.4792C39.9707 75.6845 39.8386 76.9301 39.3632 78.0608C38.8878 79.1915 38.0902 80.1574 37.0697 80.8379C36.0492 81.5184 34.851 81.8835 33.6244 81.8878H33.6049ZM28.2146 73.7365C28.3235 73.7362 28.4311 73.7603 28.5294 73.8071C28.6278 73.854 28.7143 73.9223 28.7827 74.007C28.8511 74.0918 28.8995 74.1908 28.9245 74.2968C28.9494 74.4029 28.9502 74.5131 28.9268 74.6195C28.7754 75.3182 28.7823 76.0419 28.947 76.7376C29.1117 77.4332 29.43 78.0832 29.8786 78.6399C30.3272 79.1965 30.8947 79.6457 31.5394 79.9545C32.1842 80.2633 32.89 80.4238 33.6049 80.4243H33.6195C34.2508 80.4233 34.8756 80.2968 35.4576 80.0523C36.0395 79.8078 36.5672 79.4501 37.0098 79C38.8244 77.1609 38.8342 74.156 37.0341 72.3024C36.7807 72.0429 36.4993 71.8122 36.1951 71.6146C36.1026 71.5564 36.0246 71.4777 35.9671 71.3847C35.9096 71.2917 35.8741 71.1868 35.8634 71.078C35.8518 70.9694 35.8646 70.8596 35.9008 70.7567C35.9371 70.6537 35.996 70.5601 36.0732 70.4829L50.2683 56.2878L49.6098 55.1365L47.8878 54.9317C47.7887 54.919 47.6932 54.8865 47.6069 54.8363C47.5206 54.786 47.4453 54.7189 47.3854 54.639C47.3256 54.5579 47.2834 54.4653 47.2616 54.367C47.2398 54.2687 47.2387 54.167 47.2585 54.0682L47.6439 52.0097L46.6195 52.1853L32.1951 66.6097C32.1183 66.6874 32.0248 66.7467 31.9217 66.783C31.8186 66.8194 31.7086 66.8318 31.6 66.8195C31.4917 66.807 31.3874 66.7709 31.2947 66.7135C31.2019 66.6562 31.123 66.5791 31.0634 66.4878C30.8671 66.1811 30.6363 65.898 30.3756 65.6439C28.522 63.8439 25.5171 63.8536 23.6781 65.6731C22.9418 66.4017 22.4618 67.3496 22.3102 68.3743C22.1586 69.3989 22.3436 70.4452 22.8374 71.3557C23.3311 72.2663 24.107 72.9921 25.0485 73.424C25.99 73.856 27.0462 73.9708 28.0585 73.7512C28.11 73.7415 28.1623 73.7366 28.2146 73.7365Z" fill="#2E3A58"/>
<path id="Vector_8" d="M48.3367 33.922L46.8879 34.1561L48.2177 42.3842L49.6665 42.1501L48.3367 33.922Z" fill="#78B7FF"/>
<path id="Vector_9" d="M33.7428 47.0616L33.5063 48.5057L41.7083 49.8489L41.9448 48.4047L33.7428 47.0616Z" fill="#78B7FF"/>
<path id="Vector_10" d="M39.8107 39.0385L38.7759 40.0732L44.0402 45.3376L45.075 44.3028L39.8107 39.0385Z" fill="#78B7FF"/>
<path id="Vector_11" d="M60.714 53.1034L60.4775 54.5476L68.6795 55.8907L68.9159 54.4466L60.714 53.1034Z" fill="#78B7FF"/>
<path id="Vector_12" d="M54.3598 60.9735L52.911 61.2076L54.2408 69.4357L55.6896 69.2016L54.3598 60.9735Z" fill="#78B7FF"/>
<path id="Vector_13" d="M58.3473 57.5751L57.3125 58.6099L62.5768 63.8742L63.6116 62.8394L58.3473 57.5751Z" fill="#78B7FF"/>
</g>
</svg>
