<svg width="100" height="100" viewBox="0 0 100 100" fill="none" xmlns="http://www.w3.org/2000/svg">
<g id="cure-health-healthcare-medical-medicine-spoon-svgrepo-com 1">
<path id="Vector" d="M70.9902 33.7659C70.9902 27.8293 67.6049 23.0195 63.4293 23.0195C59.2537 23.0195 55.8683 27.8293 55.8683 33.7659C55.8683 38.0537 57.639 41.761 60.2 43.4781C61.5512 44.3854 62.3366 45.922 62.2439 47.5415L60.7658 73.5415C60.7453 73.904 60.7989 74.2669 60.9234 74.6079C61.048 74.949 61.2408 75.2611 61.4902 75.525C61.7395 75.789 62.0401 75.9992 62.3735 76.143C62.7069 76.2867 63.0662 76.3609 63.4293 76.361C63.7924 76.3609 64.1516 76.2867 64.485 76.143C64.8185 75.9992 65.119 75.789 65.3684 75.525C65.6177 75.2611 65.8105 74.949 65.9351 74.6079C66.0596 74.2669 66.1133 73.904 66.0927 73.5415L64.6146 47.5415C64.5219 45.922 65.3073 44.3854 66.6585 43.4781C69.2195 41.761 70.9902 38.0537 70.9902 33.7659Z" fill="#FAFAFA"/>
<path id="Vector_2" d="M47.7024 28.0391H30.5902V30.0322H47.7024V28.0391Z" fill="#E0E1E2"/>
<path id="Vector_3" d="M28.0732 71.9756V47.4683C28.0731 45.8084 28.5977 44.191 29.5719 42.8471C30.546 41.5032 31.9201 40.5016 33.4976 39.9854H30.8146C29.2366 40.5014 27.862 41.5029 26.887 42.8467C25.9119 44.1905 25.3864 45.808 25.3854 47.4683V71.9756C25.3847 72.5517 25.4977 73.1222 25.7179 73.6546C25.938 74.1869 26.261 74.6706 26.6684 75.0779C27.0757 75.4853 27.5594 75.8083 28.0918 76.0285C28.6241 76.2486 29.1947 76.3616 29.7707 76.361H32.4537C31.878 76.361 31.308 76.2475 30.7762 76.027C30.2444 75.8066 29.7613 75.4835 29.3545 75.0762C28.9476 74.6689 28.6251 74.1855 28.4052 73.6534C28.1854 73.1214 28.0725 72.5513 28.0732 71.9756Z" fill="#E0E1E2"/>
<path id="Vector_4" d="M35.2585 24.4634H33.8439V30.0326H35.2585V24.4634Z" fill="#78B7FF"/>
<path id="Vector_5" d="M39.8537 24.4634H38.439V30.0326H39.8537V24.4634Z" fill="#78B7FF"/>
<path id="Vector_6" d="M44.4537 24.4634H43.039V30.0326H44.4537V24.4634Z" fill="#78B7FF"/>
<path id="Vector_7" d="M52.9073 47.161H25.3854V48.5771H52.9073V47.161Z" fill="#78B7FF"/>
<path id="Vector_8" d="M52.9073 68.6049H25.3854V70.021H52.9073V68.6049Z" fill="#78B7FF"/>
<path id="Vector_9" d="M40.3024 57.8975V55.5853H37.9902V57.8975H35.6829V60.2097H37.9902V62.517H40.3024V60.2097H42.6146V57.8975H40.3024Z" fill="#78B7FF"/>
<path id="Vector_10" d="M63.4293 41.5804C62.0244 41.5804 60.9756 40.3853 60.4781 39.678C59.4098 38.156 58.7951 36.0048 58.7951 33.7658C58.7951 31.5268 59.4098 29.3707 60.4781 27.8536C60.9756 27.1414 62.0244 25.9463 63.4293 25.9463C64.8342 25.9463 65.8781 27.1414 66.3805 27.8536C67.4488 29.3707 68.0634 31.5268 68.0634 33.7658C68.0634 36.0048 67.4488 38.156 66.3805 39.678C65.8781 40.3853 64.8293 41.5804 63.4293 41.5804Z" fill="#E0E1E2"/>
<path id="Vector_11" d="M63.4293 41.8243C62.1903 41.8243 61.2195 40.9756 60.6244 40.2682C60.6035 40.2441 60.5876 40.216 60.5777 40.1856C60.5679 40.1552 60.5642 40.1232 60.5669 40.0913C60.5696 40.0595 60.5787 40.0285 60.5936 40.0003C60.6085 39.972 60.6289 39.947 60.6537 39.9268C60.7038 39.8855 60.7681 39.8654 60.8328 39.8709C60.8975 39.8764 60.9575 39.9069 61 39.956C61.5268 40.5853 62.3756 41.3365 63.4293 41.3365C64.0878 41.3365 64.7415 41.0439 65.3756 40.4634C65.4231 40.4206 65.4855 40.3981 65.5493 40.4009C65.6132 40.4036 65.6734 40.4313 65.7171 40.478C65.739 40.5016 65.756 40.5294 65.7672 40.5596C65.7783 40.5899 65.7834 40.622 65.782 40.6542C65.7806 40.6864 65.7729 40.718 65.7593 40.7472C65.7456 40.7764 65.7263 40.8027 65.7024 40.8243C64.9805 41.4878 64.2146 41.8243 63.4293 41.8243ZM67.2439 38.3268C67.2124 38.3271 67.1811 38.3222 67.1512 38.3121C67.1213 38.2999 67.094 38.2818 67.0711 38.2589C67.0483 38.236 67.0301 38.2087 67.0179 38.1788C67.0056 38.1488 66.9995 38.1167 66.9997 38.0843C67 38.0519 67.0067 38.0199 67.0195 37.9902C67.4 37.0542 67.6448 36.0686 67.7463 35.0634C67.7528 34.9987 67.7847 34.9392 67.835 34.898C67.8853 34.8569 67.95 34.8374 68.0146 34.8439C68.0793 34.8503 68.1388 34.8822 68.18 34.9325C68.2211 34.9829 68.2406 35.0475 68.2342 35.1121C68.1254 36.1644 67.8675 37.1959 67.4683 38.1756C67.4506 38.2205 67.4196 38.259 67.3796 38.286C67.3395 38.313 67.2922 38.3272 67.2439 38.3268ZM59.361 37.639C59.3088 37.6393 59.2579 37.6229 59.2158 37.5922C59.1737 37.5614 59.1425 37.518 59.1268 37.4682C58.8037 36.4634 58.6151 35.4202 58.5659 34.3658C58.5643 34.3338 58.569 34.3017 58.5798 34.2715C58.5905 34.2413 58.6072 34.2135 58.6287 34.1898C58.6502 34.166 58.6762 34.1467 58.7052 34.1329C58.7341 34.1192 58.7655 34.1113 58.7976 34.1097C58.8296 34.1081 58.8616 34.1128 58.8918 34.1236C58.922 34.1344 58.9498 34.151 58.9736 34.1725C58.9974 34.194 59.0167 34.22 59.0304 34.249C59.0442 34.278 59.0521 34.3094 59.0537 34.3414C59.0967 35.353 59.2772 36.3541 59.5902 37.317C59.6008 37.3474 59.6052 37.3796 59.603 37.4118C59.6009 37.4439 59.5922 37.4752 59.5776 37.5039C59.5631 37.5326 59.5428 37.5581 59.5182 37.5788C59.4935 37.5995 59.4649 37.615 59.4342 37.6243C59.4109 37.6339 59.3861 37.6388 59.361 37.639ZM67.9317 32.239C67.8738 32.2396 67.8177 32.2191 67.7737 32.1814C67.7297 32.1438 67.701 32.0914 67.6927 32.0341C67.5525 31.032 67.2665 30.0559 66.8439 29.1365C66.8251 29.0798 66.8278 29.0181 66.8515 28.9633C66.8752 28.9084 66.9181 28.8641 66.9723 28.8389C67.0265 28.8136 67.088 28.8091 67.1453 28.8262C67.2025 28.8433 67.2515 28.8808 67.2829 28.9317C67.7275 29.8921 68.0283 30.9128 68.1756 31.9609C68.1805 31.9926 68.179 32.025 68.1713 32.0562C68.1636 32.0873 68.1499 32.1166 68.1309 32.1425C68.1118 32.1683 68.0879 32.1901 68.0604 32.2067C68.0329 32.2232 68.0025 32.2342 67.9707 32.239H67.9317ZM59.0537 31.517H59.0049C58.9735 31.5106 58.9437 31.4981 58.9171 31.4802C58.8906 31.4622 58.8678 31.4393 58.8501 31.4125C58.8325 31.3858 58.8202 31.3559 58.8142 31.3244C58.8081 31.293 58.8082 31.2606 58.8146 31.2292C59.0488 30.1268 59.4244 29.1268 59.9268 28.2634C59.9603 28.2089 60.0134 28.1695 60.0751 28.1531C60.1369 28.1368 60.2026 28.1448 60.2585 28.1756C60.3143 28.2091 60.3546 28.2631 60.371 28.326C60.3875 28.3889 60.3786 28.4557 60.3463 28.5121C59.8781 29.317 59.5122 30.2926 59.2927 31.3268C59.2805 31.381 59.2501 31.4294 59.2066 31.464C59.1632 31.4986 59.1092 31.5173 59.0537 31.517ZM65.1951 26.839C65.1423 26.8393 65.0908 26.8222 65.0488 26.7902C64.522 26.3951 63.9756 26.1902 63.4293 26.1902C63.0692 26.1941 62.7144 26.2774 62.3902 26.4341C62.361 26.4522 62.3282 26.4639 62.294 26.4684C62.2599 26.4729 62.2252 26.4702 62.1922 26.4603C62.1592 26.4505 62.1287 26.4337 62.1026 26.4112C62.0766 26.3887 62.0556 26.361 62.041 26.3298C62.0265 26.2986 62.0187 26.2646 62.0182 26.2302C62.0177 26.1958 62.0244 26.1616 62.0381 26.13C62.0517 26.0984 62.0719 26.07 62.0973 26.0468C62.1227 26.0235 62.1527 26.0059 62.1854 25.9951C62.5726 25.8047 62.9978 25.7047 63.4293 25.7024C64.0829 25.7024 64.7268 25.9365 65.3415 26.4C65.3671 26.4192 65.3887 26.4432 65.405 26.4708C65.4213 26.4984 65.432 26.5289 65.4366 26.5606C65.4411 26.5923 65.4393 26.6246 65.4314 26.6556C65.4235 26.6866 65.4095 26.7158 65.3902 26.7414C65.3681 26.7723 65.3387 26.7973 65.3047 26.8143C65.2707 26.8313 65.2331 26.8398 65.1951 26.839Z" fill="#78B7FF"/>
<path id="Vector_12" d="M63.4293 77.0684C62.9701 77.0677 62.5159 76.9736 62.0944 76.7916C61.6728 76.6097 61.2927 76.3437 60.9773 76.0101C60.6619 75.6764 60.4178 75.282 60.2598 74.8509C60.1018 74.4197 60.0334 73.961 60.0585 73.5025L61.5366 47.5025C61.6146 46.1513 60.9512 44.8391 59.8049 44.0684C58.4195 43.1366 57.2537 41.6879 56.4293 39.8781C55.6049 38.0684 55.161 35.9366 55.161 33.7659C55.161 30.7513 55.9951 27.9074 57.5024 25.761C59.0683 23.5366 61.1707 22.3123 63.4293 22.3123C65.6878 22.3123 67.7902 23.5366 69.3512 25.761C70.8634 27.9074 71.6976 30.7513 71.6976 33.7659C71.6976 35.9366 71.2585 38.0537 70.4293 39.8781C69.6 41.7025 68.439 43.1366 67.0537 44.0684C65.9073 44.8391 65.2439 46.1513 65.3171 47.5025L66.7951 73.5025C66.8217 73.9609 66.7544 74.4199 66.5972 74.8513C66.4401 75.2827 66.1964 75.6775 65.8813 76.0114C65.5661 76.3452 65.186 76.6112 64.7644 76.793C64.3427 76.9748 63.8884 77.0685 63.4293 77.0684ZM63.4293 23.7269C61.6488 23.7269 59.9561 24.7415 58.6634 26.5757C57.3171 28.4879 56.5756 31.0391 56.5756 33.7659C56.5756 37.6684 58.1561 41.2537 60.5951 42.8927C62.1561 43.9415 63.0585 45.7366 62.9512 47.5805L61.4732 73.5805C61.4542 73.849 61.4907 74.1186 61.5804 74.3723C61.6701 74.6261 61.8111 74.8587 61.9946 75.0556C62.1781 75.2526 62.4002 75.4096 62.647 75.517C62.8938 75.6243 63.1601 75.6798 63.4293 75.6798C63.6984 75.6798 63.9647 75.6243 64.2115 75.517C64.4584 75.4096 64.6804 75.2526 64.8639 75.0556C65.0474 74.8587 65.1884 74.6261 65.2781 74.3723C65.3678 74.1186 65.4043 73.849 65.3854 73.5805L63.9073 47.5805C63.8 45.7366 64.7024 43.9415 66.2634 42.8927C68.7024 41.2537 70.2829 37.6684 70.2829 33.7659C70.2829 31.0391 69.5415 28.4879 68.1951 26.5757C66.9024 24.7415 65.2098 23.7269 63.4293 23.7269Z" fill="#2E3A58"/>
<path id="Vector_13" d="M39.1463 67.361C38.1763 67.3614 37.2136 67.1913 36.3024 66.8585C36.2719 66.8482 36.2439 66.8318 36.2198 66.8103C36.1958 66.7889 36.1764 66.7628 36.1628 66.7336C36.1491 66.7045 36.1415 66.6728 36.1403 66.6407C36.1392 66.6085 36.1445 66.5764 36.1561 66.5463C36.1781 66.4855 36.2234 66.436 36.2819 66.4085C36.3404 66.3811 36.4075 66.378 36.4683 66.4C37.3259 66.7152 38.2327 66.8754 39.1463 66.8732H39.4195C39.4842 66.8712 39.547 66.8951 39.5941 66.9394C39.6412 66.9838 39.6688 67.0451 39.6707 67.1097C39.6727 67.1744 39.6488 67.2372 39.6045 67.2844C39.5601 67.3315 39.4988 67.359 39.4342 67.361H39.1463ZM42.4244 66.6683C42.3775 66.6681 42.3317 66.6542 42.2926 66.6281C42.2536 66.6021 42.2231 66.5652 42.2049 66.5219C42.1785 66.4631 42.1765 66.3961 42.1994 66.3358C42.2222 66.2754 42.2681 66.2266 42.3268 66.2C43.2444 65.7925 44.0744 65.2111 44.7707 64.4878C44.7931 64.4646 44.8198 64.4461 44.8494 64.4333C44.8789 64.4205 44.9107 64.4137 44.9429 64.4132C44.9751 64.4128 45.0071 64.4187 45.037 64.4306C45.0669 64.4426 45.0941 64.4604 45.1171 64.4829C45.1407 64.5045 45.1597 64.5307 45.1728 64.5598C45.186 64.589 45.193 64.6206 45.1934 64.6526C45.1939 64.6846 45.1878 64.7164 45.1755 64.7459C45.1632 64.7754 45.145 64.8022 45.122 64.8244C44.3831 65.5935 43.5017 66.2115 42.5268 66.6439C42.4947 66.6588 42.4598 66.6671 42.4244 66.6683ZM33.7463 65.2878C33.6868 65.2866 33.6297 65.2641 33.5854 65.2244C32.7922 64.5084 32.1431 63.6474 31.6732 62.6878C31.6591 62.659 31.6508 62.6277 31.6488 62.5956C31.6468 62.5636 31.6512 62.5315 31.6616 62.5011C31.672 62.4708 31.6883 62.4428 31.7095 62.4187C31.7308 62.3947 31.7565 62.3751 31.7854 62.361C31.8142 62.3469 31.8455 62.3386 31.8775 62.3366C31.9096 62.3346 31.9417 62.339 31.972 62.3494C32.0024 62.3598 32.0304 62.3761 32.0544 62.3973C32.0785 62.4186 32.0981 62.4443 32.1122 62.4732C32.5523 63.3772 33.1636 64.1873 33.9122 64.8585C33.936 64.8802 33.9554 64.9064 33.969 64.9356C33.9827 64.9648 33.9904 64.9964 33.9918 65.0286C33.9931 65.0609 33.9881 65.093 33.9769 65.1233C33.9658 65.1535 33.9488 65.1812 33.9268 65.2049C33.9042 65.2306 33.8765 65.2513 33.8454 65.2655C33.8143 65.2798 33.7806 65.2874 33.7463 65.2878ZM46.6293 62.3171C46.5978 62.3174 46.5665 62.3124 46.5366 62.3024C46.5068 62.2906 46.4796 62.273 46.4566 62.2507C46.4336 62.2283 46.4152 62.2017 46.4025 62.1722C46.3899 62.1428 46.3831 62.1111 46.3827 62.079C46.3822 62.047 46.3881 62.0151 46.4 61.9854C46.7795 61.0546 46.9733 60.0587 46.9707 59.0537C46.9708 58.6931 46.9464 58.3329 46.8976 57.9756C46.8915 57.943 46.892 57.9095 46.8993 57.8772C46.9066 57.8448 46.9204 57.8143 46.9398 57.7875C46.9593 57.7606 46.984 57.738 47.0125 57.7211C47.041 57.7041 47.0727 57.6931 47.1055 57.6888C47.1384 57.6845 47.1718 57.6869 47.2037 57.696C47.2356 57.705 47.2653 57.7204 47.2911 57.7413C47.3168 57.7622 47.338 57.7882 47.3534 57.8176C47.3688 57.8469 47.378 57.8791 47.3805 57.9122C47.4311 58.2906 47.4572 58.6719 47.4585 59.0537C47.4593 60.1203 47.2539 61.1771 46.8537 62.1658C46.8359 62.2108 46.805 62.2493 46.7649 62.2763C46.7249 62.3033 46.6776 62.3175 46.6293 62.3171ZM31.1024 59.8537C31.0406 59.8526 30.9813 59.8286 30.9362 59.7862C30.8911 59.7438 30.8634 59.6861 30.8585 59.6244C30.8439 59.4341 30.839 59.2439 30.839 59.0537C30.8377 58.1772 30.9761 57.3061 31.2488 56.4732C31.2689 56.4117 31.3125 56.3608 31.3701 56.3315C31.4278 56.3023 31.4946 56.2971 31.5561 56.3171C31.6168 56.3382 31.6669 56.382 31.696 56.4393C31.7251 56.4966 31.7309 56.5629 31.7122 56.6244C31.4547 57.4083 31.3246 58.2285 31.3268 59.0537C31.3268 59.2293 31.3317 59.4146 31.3463 59.5902C31.349 59.6224 31.3451 59.6548 31.3349 59.6855C31.3247 59.7161 31.3084 59.7443 31.287 59.7685C31.2655 59.7927 31.2394 59.8122 31.2102 59.826C31.181 59.8398 31.1493 59.8476 31.1171 59.8488L31.1024 59.8537ZM46.1415 55.2732C46.0989 55.2729 46.0571 55.2615 46.0203 55.2401C45.9835 55.2187 45.953 55.1881 45.9317 55.1512C45.4275 54.282 44.7619 53.5171 43.9707 52.8976C43.9212 52.8557 43.8896 52.7966 43.8823 52.7321C43.8751 52.6677 43.8927 52.603 43.9317 52.5512C43.972 52.501 44.0304 52.4687 44.0944 52.4613C44.1584 52.454 44.2226 52.4723 44.2732 52.5122C45.1136 53.1693 45.8193 53.9826 46.3512 54.9073C46.3835 54.9638 46.3923 55.0306 46.3759 55.0935C46.3595 55.1564 46.3191 55.2104 46.2634 55.2439C46.2255 55.2628 46.1838 55.2728 46.1415 55.2732ZM32.9756 54.1024C32.9188 54.1041 32.8633 54.085 32.8195 54.0488C32.7704 54.0063 32.7398 53.9463 32.7344 53.8816C32.7289 53.8168 32.749 53.7526 32.7902 53.7024C33.4778 52.8856 34.3157 52.2084 35.2585 51.7073C35.3161 51.6776 35.3831 51.6719 35.4449 51.6916C35.5066 51.7112 35.5581 51.7546 35.5878 51.8122C35.6176 51.8698 35.6232 51.9368 35.6036 51.9985C35.5839 52.0603 35.5405 52.1117 35.4829 52.1415C34.5958 52.613 33.8075 53.2506 33.161 54.0195C33.1375 54.0454 33.1089 54.0661 33.077 54.0803C33.0451 54.0946 33.0106 54.1021 32.9756 54.1024ZM41.3854 51.5463L41.3171 51.5366C40.6117 51.3319 39.8808 51.2284 39.1463 51.2293C38.8775 51.2292 38.6088 51.2438 38.3415 51.2732C38.3094 51.2765 38.277 51.2735 38.2461 51.2643C38.2152 51.255 38.1865 51.2398 38.1615 51.2194C38.1366 51.199 38.1159 51.1738 38.1008 51.1454C38.0856 51.1169 38.0762 51.0857 38.0732 51.0537C38.0698 51.0216 38.0728 50.9892 38.0821 50.9583C38.0913 50.9274 38.1066 50.8987 38.127 50.8737C38.1474 50.8488 38.1725 50.8281 38.201 50.813C38.2294 50.7978 38.2606 50.7884 38.2927 50.7854C38.5763 50.7561 38.8612 50.7415 39.1463 50.7415C39.9254 50.7416 40.7005 50.8516 41.4488 51.0683C41.5107 51.0854 41.5633 51.1263 41.5953 51.182C41.6273 51.2377 41.636 51.3038 41.6195 51.3658C41.6043 51.4166 41.5735 51.4614 41.5315 51.4937C41.4895 51.5261 41.4384 51.5445 41.3854 51.5463Z" fill="#78B7FF"/>
<path id="Vector_14" d="M48.5268 77.0682H29.7707C28.4205 77.067 27.1259 76.53 26.1711 75.5752C25.2163 74.6204 24.6793 73.3258 24.678 71.9756V47.4682C24.678 42.9756 28.1512 39.278 32.5512 38.917V30.0341C32.5512 29.8465 32.6257 29.6666 32.7584 29.534C32.891 29.4013 33.0709 29.3268 33.2585 29.3268H45.039C45.2266 29.3268 45.4065 29.4013 45.5392 29.534C45.6718 29.6666 45.7463 29.8465 45.7463 30.0341V38.917C50.1463 39.278 53.6195 42.9756 53.6195 47.4682V71.9756C53.6182 73.3258 53.0812 74.6204 52.1265 75.5752C51.1717 76.53 49.8771 77.067 48.5268 77.0682ZM33.9658 30.7414V39.5951C33.9658 39.7827 33.8913 39.9626 33.7587 40.0952C33.626 40.2279 33.4461 40.3024 33.2585 40.3024C29.3073 40.3024 26.0927 43.517 26.0927 47.4682V71.9756C26.094 72.9506 26.4819 73.8854 27.1714 74.5749C27.8609 75.2644 28.7956 75.6523 29.7707 75.6536H48.5268C49.5015 75.6523 50.4357 75.2642 51.1244 74.5746C51.8132 73.885 52.2 72.9502 52.2 71.9756V47.4682C52.2 43.517 48.9902 40.3024 45.039 40.3024C44.8514 40.3024 44.6715 40.2279 44.5389 40.0952C44.4062 39.9626 44.3317 39.7827 44.3317 39.5951V30.7414H33.9658Z" fill="#2E3A58"/>
<path id="Vector_15" d="M47.7073 30.7415H30.5903C30.4027 30.7415 30.2228 30.6669 30.0901 30.5343C29.9575 30.4017 29.8829 30.2217 29.8829 30.0342V24.4634C29.8829 24.2758 29.9575 24.0959 30.0901 23.9633C30.2228 23.8306 30.4027 23.7561 30.5903 23.7561H47.7073C47.8949 23.7561 48.0748 23.8306 48.2075 23.9633C48.3401 24.0959 48.4146 24.2758 48.4146 24.4634V30.0342C48.4146 30.2217 48.3401 30.4017 48.2075 30.5343C48.0748 30.6669 47.8949 30.7415 47.7073 30.7415ZM31.2976 29.3268H46.9951V25.1707H31.2976V29.3268Z" fill="#78B7FF"/>
</g>
</svg>
