<svg width="100" height="100" viewBox="0 0 100 100" fill="none" xmlns="http://www.w3.org/2000/svg">
<g id="cardiograph-emergency-health-healthcare-medical-medicine-svgrepo-com 2">
<path id="Vector" d="M75.2195 69.8829H24.7805C23.673 69.8829 22.6109 69.443 21.8279 68.6599C21.0448 67.8768 20.6049 66.8147 20.6049 65.7073V67.4536C20.6049 68.5611 21.0448 69.6231 21.8279 70.4062C22.6109 71.1893 23.673 71.6292 24.7805 71.6292H75.2195C76.3269 71.6292 77.389 71.1893 78.1721 70.4062C78.9552 69.6231 79.3951 68.5611 79.3951 67.4536V65.7073C79.3951 66.8147 78.9552 67.8768 78.1721 68.6599C77.389 69.443 76.3269 69.8829 75.2195 69.8829Z" fill="#E0E1E2"/>
<path id="Vector_2" d="M75.2195 72.361H24.7805C23.4794 72.3597 22.2319 71.8422 21.3119 70.9222C20.3919 70.0022 19.8745 68.7547 19.8732 67.4536V30.7707C19.8745 29.4692 20.3917 28.2212 21.3116 27.3004C22.2315 26.3796 23.4789 25.8611 24.7805 25.8585H75.2195C76.5211 25.8611 77.7685 26.3796 78.6884 27.3004C79.6083 28.2212 80.1255 29.4692 80.1268 30.7707V67.4536C80.1255 68.7547 79.6081 70.0022 78.6881 70.9222C77.7681 71.8422 76.5206 72.3597 75.2195 72.361ZM24.7805 27.3219C23.8667 27.3232 22.9907 27.6872 22.345 28.3338C21.6993 28.9804 21.3366 29.8569 21.3366 30.7707V67.4536C21.3379 68.3666 21.7011 69.2418 22.3467 69.8874C22.9923 70.533 23.8675 70.8963 24.7805 70.8975H75.2195C76.1325 70.8963 77.0077 70.533 77.6533 69.8874C78.2989 69.2418 78.6621 68.3666 78.6634 67.4536V30.7707C78.6634 29.8569 78.3007 28.9804 77.655 28.3338C77.0093 27.6872 76.1333 27.3232 75.2195 27.3219H24.7805Z" fill="#2E3A58"/>
<path id="Vector_3" d="M74.6098 60.1073H26.1902V62.0839H74.6098V60.1073Z" fill="#E0E1E2"/>
<path id="Vector_4" d="M41.5317 57.6C41.3593 57.6 41.1925 57.5386 41.0611 57.4269C40.9298 57.3152 40.8424 57.1605 40.8146 56.9903L37.439 36.7464L34.4146 42.6439C34.3529 42.7642 34.2592 42.8651 34.1439 42.9356C34.0286 43.0062 33.8961 43.0437 33.761 43.0439H26.6098C26.4157 43.0439 26.2296 42.9668 26.0924 42.8296C25.9551 42.6924 25.8781 42.5063 25.8781 42.3122C25.8781 42.1182 25.9551 41.9321 26.0924 41.7948C26.2296 41.6576 26.4157 41.5805 26.6098 41.5805H33.3171L37.1463 34.1122C37.2158 33.9743 37.327 33.8618 37.4643 33.7909C37.6015 33.7201 37.7576 33.6944 37.9103 33.7177C38.063 33.741 38.2044 33.812 38.3142 33.9205C38.4241 34.0291 38.4968 34.1696 38.522 34.322L41.3073 51.0634L42.1415 41.5952C42.1562 41.4127 42.2392 41.2425 42.374 41.1187C42.5087 40.9948 42.6853 40.9263 42.8683 40.9269H48.8829L51.1171 37.0732C51.1872 36.9525 51.2903 36.8545 51.4143 36.7905C51.5383 36.7265 51.678 36.6993 51.817 36.7121C51.9559 36.725 52.0883 36.7772 52.1985 36.8628C52.3087 36.9484 52.3922 37.0637 52.439 37.1952L54.639 43.3464L56.3756 41C56.4445 40.9088 56.5337 40.8348 56.6362 40.784C56.7386 40.7332 56.8515 40.707 56.9659 40.7074H60.3512L62.6098 34.8488C62.6657 34.7028 62.7669 34.5786 62.8986 34.4944C63.0303 34.4101 63.1855 34.3702 63.3415 34.3806C63.4975 34.3909 63.6461 34.451 63.7654 34.5519C63.8848 34.6529 63.9687 34.7894 64.0049 34.9415L67.5122 49.7122L68.0049 41.0634C68.0148 40.8771 68.0956 40.7015 68.2307 40.5728C68.3659 40.444 68.5451 40.3717 68.7317 40.3708H74.6146C74.8087 40.3708 74.9948 40.4479 75.132 40.5851C75.2692 40.7223 75.3463 40.9084 75.3463 41.1025C75.3463 41.2965 75.2692 41.4826 75.132 41.6199C74.9948 41.7571 74.8087 41.8342 74.6146 41.8342H69.4244L68.6878 54.8C68.6789 54.9764 68.6065 55.1436 68.4839 55.2708C68.3614 55.3979 68.197 55.4765 68.0211 55.4919C67.8451 55.5074 67.6696 55.4587 67.5267 55.3548C67.3839 55.251 67.2834 55.099 67.2439 54.9269L63.1268 37.5756L61.5317 41.7025C61.48 41.8404 61.3873 41.9592 61.2661 42.0429C61.1449 42.1266 61.001 42.1712 60.8537 42.1708H57.3317L55 45.3171C54.9211 45.4239 54.8146 45.5072 54.692 45.5581C54.5693 45.609 54.4352 45.6255 54.3038 45.606C54.1725 45.5864 54.049 45.5315 53.9465 45.4471C53.844 45.3627 53.7663 45.252 53.722 45.1269L51.5902 39.1708L49.9366 42.0244C49.8739 42.136 49.7825 42.2288 49.6718 42.2931C49.5612 42.3575 49.4353 42.391 49.3073 42.3903H43.5366L42.2634 56.9317C42.2481 57.1097 42.1682 57.2758 42.0388 57.3989C41.9094 57.522 41.7394 57.5936 41.561 57.6H41.5317Z" fill="#78B7FF"/>
<path id="Vector_5" d="M31.5659 57.7561H28.7561V59.2195H31.5659V57.7561Z" fill="#78B7FF"/>
<path id="Vector_6" d="M77.6927 65.1804H74.7659C74.7016 65.1792 74.6403 65.1531 74.5948 65.1076C74.5493 65.0621 74.5232 65.0008 74.522 64.9365C74.522 64.8718 74.5477 64.8098 74.5934 64.7641C74.6391 64.7183 74.7012 64.6926 74.7659 64.6926H77.6927C77.7574 64.6926 77.8194 64.7183 77.8652 64.7641C77.9109 64.8098 77.9366 64.8718 77.9366 64.9365C77.9366 65.0012 77.9109 65.0633 77.8652 65.109C77.8194 65.1547 77.7574 65.1804 77.6927 65.1804ZM71.8391 65.1804H68.9122C68.8479 65.1792 68.7866 65.1531 68.7411 65.1076C68.6957 65.0621 68.6696 65.0008 68.6683 64.9365C68.6683 64.8718 68.694 64.8098 68.7397 64.7641C68.7855 64.7183 68.8475 64.6926 68.9122 64.6926H71.8391C71.9037 64.6926 71.9658 64.7183 72.0115 64.7641C72.0572 64.8098 72.083 64.8718 72.083 64.9365C72.083 65.0012 72.0572 65.0633 72.0115 65.109C71.9658 65.1547 71.9037 65.1804 71.8391 65.1804ZM65.9854 65.1804H63.0586C62.9943 65.1792 62.9329 65.1531 62.8875 65.1076C62.842 65.0621 62.8159 65.0008 62.8147 64.9365C62.8147 64.8718 62.8404 64.8098 62.8861 64.7641C62.9318 64.7183 62.9939 64.6926 63.0586 64.6926H65.9854C66.0501 64.6926 66.1121 64.7183 66.1579 64.7641C66.2036 64.8098 66.2293 64.8718 66.2293 64.9365C66.2293 65.0012 66.2036 65.0633 66.1579 65.109C66.1121 65.1547 66.0501 65.1804 65.9854 65.1804ZM60.1317 65.1804H57.2049C57.1406 65.1792 57.0793 65.1531 57.0338 65.1076C56.9883 65.0621 56.9622 65.0008 56.961 64.9365C56.961 64.8718 56.9867 64.8098 57.0324 64.7641C57.0782 64.7183 57.1402 64.6926 57.2049 64.6926H60.1317C60.1964 64.6926 60.2585 64.7183 60.3042 64.7641C60.3499 64.8098 60.3756 64.8718 60.3756 64.9365C60.3756 65.0012 60.3499 65.0633 60.3042 65.109C60.2585 65.1547 60.1964 65.1804 60.1317 65.1804ZM54.2781 65.1804H51.3512C51.2869 65.1792 51.2256 65.1531 51.1802 65.1076C51.1347 65.0621 51.1086 65.0008 51.1073 64.9365C51.1073 64.8718 51.133 64.8098 51.1788 64.7641C51.2245 64.7183 51.2866 64.6926 51.3512 64.6926H54.2781C54.3428 64.6926 54.4048 64.7183 54.4505 64.7641C54.4963 64.8098 54.522 64.8718 54.522 64.9365C54.522 65.0012 54.4963 65.0633 54.4505 65.109C54.4048 65.1547 54.3428 65.1804 54.2781 65.1804ZM48.4244 65.1804H45.4976C45.4333 65.1792 45.372 65.1531 45.3265 65.1076C45.281 65.0621 45.2549 65.0008 45.2537 64.9365C45.2537 64.8718 45.2794 64.8098 45.3251 64.7641C45.3709 64.7183 45.4329 64.6926 45.4976 64.6926H48.4244C48.4891 64.6926 48.5511 64.7183 48.5969 64.7641C48.6426 64.8098 48.6683 64.8718 48.6683 64.9365C48.6683 65.0012 48.6426 65.0633 48.5969 65.109C48.5511 65.1547 48.4891 65.1804 48.4244 65.1804ZM42.5708 65.1804H39.6439C39.5796 65.1792 39.5183 65.1531 39.4728 65.1076C39.4274 65.0621 39.4013 65.0008 39.4 64.9365C39.4 64.8718 39.4257 64.8098 39.4715 64.7641C39.5172 64.7183 39.5792 64.6926 39.6439 64.6926H42.5708C42.6354 64.6926 42.6975 64.7183 42.7432 64.7641C42.789 64.8098 42.8147 64.8718 42.8147 64.9365C42.8147 65.0012 42.789 65.0633 42.7432 65.109C42.6975 65.1547 42.6354 65.1804 42.5708 65.1804ZM36.7171 65.1804H33.7903C33.726 65.1792 33.6647 65.1531 33.6192 65.1076C33.5737 65.0621 33.5476 65.0008 33.5464 64.9365C33.5464 64.8718 33.5721 64.8098 33.6178 64.7641C33.6635 64.7183 33.7256 64.6926 33.7903 64.6926H36.7171C36.7818 64.6926 36.8438 64.7183 36.8896 64.7641C36.9353 64.8098 36.961 64.8718 36.961 64.9365C36.961 65.0012 36.9353 65.0633 36.8896 65.109C36.8438 65.1547 36.7818 65.1804 36.7171 65.1804ZM30.8634 65.1804H27.9366C27.8723 65.1792 27.811 65.1531 27.7655 65.1076C27.7201 65.0621 27.694 65.0008 27.6927 64.9365C27.6927 64.8718 27.7184 64.8098 27.7641 64.7641C27.8099 64.7183 27.8719 64.6926 27.9366 64.6926H30.8634C30.9281 64.6926 30.9902 64.7183 31.0359 64.7641C31.0816 64.8098 31.1073 64.8718 31.1073 64.9365C31.1073 65.0012 31.0816 65.0633 31.0359 65.109C30.9902 65.1547 30.9281 65.1804 30.8634 65.1804ZM25.0098 65.1804H22.083C22.0187 65.1792 21.9573 65.1531 21.9119 65.1076C21.8664 65.0621 21.8403 65.0008 21.8391 64.9365C21.8391 64.8718 21.8647 64.8098 21.9105 64.7641C21.9562 64.7183 22.0183 64.6926 22.083 64.6926H25.0098C25.0745 64.6926 25.1365 64.7183 25.1822 64.7641C25.228 64.8098 25.2537 64.8718 25.2537 64.9365C25.2537 65.0012 25.228 65.0633 25.1822 65.109C25.1365 65.1547 25.0745 65.1804 25.0098 65.1804Z" fill="#78B7FF"/>
<path id="Vector_7" d="M27.7561 67.1268H25.8195V69.0629H27.7561V67.1268Z" fill="#78B7FF"/>
<path id="Vector_8" d="M31.6976 67.1268H29.761V69.0629H31.6976V67.1268Z" fill="#78B7FF"/>
<path id="Vector_9" d="M26.6097 71.6293H35.6293V74.1707C35.6293 74.3994 35.5842 74.6259 35.4967 74.8372C35.4092 75.0484 35.2809 75.2404 35.1192 75.4021C34.9575 75.5638 34.7655 75.6921 34.5542 75.7796C34.3429 75.8672 34.1165 75.9122 33.8878 75.9122H28.3561C28.1274 75.9122 27.9009 75.8672 27.6897 75.7796C27.4784 75.6921 27.2864 75.5638 27.1247 75.4021C26.963 75.2404 26.8347 75.0484 26.7472 74.8372C26.6597 74.6259 26.6146 74.3994 26.6146 74.1707V71.6293H26.6097Z" fill="#E0E1E2"/>
<path id="Vector_10" d="M72.4488 75.9122H66.9171C66.6884 75.9122 66.4619 75.8672 66.2506 75.7797C66.0394 75.6922 65.8474 75.5639 65.6857 75.4022C65.524 75.2405 65.3957 75.0485 65.3082 74.8372C65.2207 74.6259 65.1756 74.3995 65.1756 74.1708V71.6293H74.1902V74.1708C74.1902 74.3995 74.1452 74.6259 74.0577 74.8372C73.9702 75.0485 73.8419 75.2405 73.6802 75.4022C73.5185 75.5639 73.3265 75.6922 73.1152 75.7797C72.9039 75.8672 72.6775 75.9122 72.4488 75.9122Z" fill="#E0E1E2"/>
<path id="Vector_11" d="M33.8878 76.6439H28.3561C27.6997 76.6439 27.0702 76.3835 26.6056 75.9198C26.141 75.4562 25.8793 74.8271 25.8781 74.1708V71.6293C25.8781 71.4352 25.9551 71.2491 26.0924 71.1119C26.2296 70.9747 26.4157 70.8976 26.6098 70.8976H35.6293C35.8233 70.8976 36.0094 70.9747 36.1467 71.1119C36.2839 71.2491 36.361 71.4352 36.361 71.6293V74.1708C36.361 74.8267 36.1004 75.4557 35.6366 75.9195C35.1728 76.3834 34.5437 76.6439 33.8878 76.6439ZM27.3415 72.361V74.1708C27.3428 74.439 27.4502 74.6958 27.6404 74.8851C27.8305 75.0743 28.0878 75.1805 28.3561 75.1805H33.8878C34.0204 75.1805 34.1517 75.1544 34.2742 75.1036C34.3967 75.0529 34.508 74.9785 34.6018 74.8848C34.6956 74.791 34.77 74.6797 34.8207 74.5572C34.8714 74.4347 34.8976 74.3034 34.8976 74.1708V72.361H27.3415Z" fill="#2E3A58"/>
<path id="Vector_12" d="M72.4488 76.6439H66.9171C66.2612 76.6439 65.6321 76.3834 65.1683 75.9195C64.7045 75.4557 64.4439 74.8267 64.4439 74.1708V71.6293C64.4439 71.4352 64.521 71.2491 64.6582 71.1119C64.7954 70.9747 64.9816 70.8976 65.1756 70.8976H74.1951C74.3892 70.8976 74.5753 70.9747 74.7125 71.1119C74.8497 71.2491 74.9268 71.4352 74.9268 71.6293V74.1708C74.9255 74.8271 74.6639 75.4562 74.1993 75.9198C73.7347 76.3835 73.1052 76.6439 72.4488 76.6439ZM65.9073 72.361V74.1708C65.9073 74.4386 66.0137 74.6954 66.2031 74.8848C66.3924 75.0741 66.6493 75.1805 66.9171 75.1805H72.4488C72.717 75.1805 72.9744 75.0743 73.1645 74.8851C73.3547 74.6958 73.4621 74.439 73.4634 74.1708V72.361H65.9073Z" fill="#2E3A58"/>
<path id="Vector_13" d="M74.6147 62.8147H26.1903C25.9962 62.8147 25.8101 62.7376 25.6729 62.6004C25.5356 62.4632 25.4586 62.277 25.4586 62.083V30.7952C25.4586 30.6011 25.5356 30.415 25.6729 30.2778C25.8101 30.1406 25.9962 30.0635 26.1903 30.0635H74.6147C74.8087 30.0635 74.9948 30.1406 75.132 30.2778C75.2693 30.415 75.3464 30.6011 75.3464 30.7952V62.083C75.3464 62.1791 75.3274 62.2742 75.2907 62.363C75.2539 62.4518 75.2 62.5324 75.132 62.6004C75.0641 62.6683 74.9834 62.7222 74.8947 62.759C74.8059 62.7958 74.7107 62.8147 74.6147 62.8147ZM26.922 61.3513H73.8829V31.5269H26.922V61.3513Z" fill="#2E3A58"/>
</g>
</svg>
