<svg width="100" height="100" viewBox="0 0 100 100" fill="none" xmlns="http://www.w3.org/2000/svg">
<g id="blood-cell-health-healthcare-hospital-medical-medicine-svgrepo-com 1">
<path id="Vector" d="M50 21.283C34.1415 21.283 21.283 34.1415 21.283 50C21.283 65.8586 34.1415 78.7171 50 78.7171C65.8586 78.7171 78.7171 65.8586 78.7171 50C78.7171 34.1415 65.8586 21.283 50 21.283ZM50 74.6342C36.3952 74.6342 25.3659 63.6049 25.3659 50C25.3659 36.3952 36.3952 25.3659 50 25.3659C63.6049 25.3659 74.6342 36.3952 74.6342 50C74.6342 63.6049 63.6049 74.6342 50 74.6342Z" fill="#E0E1E2"/>
<path id="Vector_2" d="M50 79.4488C42.7127 79.4427 35.6874 76.7301 30.2871 71.837C24.8868 66.944 21.4965 60.2194 20.774 52.968C20.0516 45.7166 22.0483 38.4553 26.377 32.5929C30.7057 26.7305 37.0577 22.685 44.2005 21.2412C51.3434 19.7974 58.768 21.0583 65.0337 24.7793C71.2994 28.5003 75.9597 34.416 78.1103 41.3787C80.2609 48.3415 79.7485 55.8549 76.6725 62.4612C73.5966 69.0676 68.1763 74.2958 61.4634 77.1317C57.8371 78.6675 53.9381 79.4556 50 79.4488ZM50 22.0146C43.0897 22.024 36.4292 24.5996 31.3103 29.2417C26.1915 33.8839 22.9791 40.2617 22.2964 47.1382C21.6136 54.0147 23.5091 60.8997 27.6152 66.4578C31.7213 72.0159 37.7454 75.8509 44.5189 77.2189C51.2924 78.587 58.3327 77.3906 64.274 73.8618C70.2154 70.333 74.6345 64.7234 76.6741 58.1209C78.7137 51.5185 78.2284 44.3938 75.3125 38.1289C72.3965 31.8639 67.2577 26.9052 60.8927 24.2146C57.4468 22.7559 53.742 22.0076 50 22.0146Z" fill="#2E3A58"/>
<path id="Vector_3" d="M50 74.8781C49.4683 74.8781 48.9366 74.8585 48.4098 74.8244C48.3775 74.8232 48.3458 74.8154 48.3166 74.8017C48.2874 74.7879 48.2613 74.7683 48.2399 74.7441C48.2184 74.72 48.2021 74.6917 48.1919 74.6611C48.1817 74.6304 48.1778 74.598 48.1805 74.5659C48.1855 74.5016 48.2152 74.4418 48.2635 74.399C48.3117 74.3562 48.3746 74.3339 48.439 74.3366C48.9561 74.3707 49.4829 74.3902 50 74.3902C50.5024 74.3902 51.0098 74.3707 51.5073 74.3415C51.5712 74.3388 51.6336 74.3613 51.681 74.4042C51.7285 74.4471 51.7572 74.5069 51.761 74.5707C51.7636 74.6025 51.7599 74.6345 51.75 74.6649C51.7401 74.6952 51.7242 74.7232 51.7033 74.7473C51.6824 74.7714 51.6569 74.7911 51.6282 74.8052C51.5996 74.8192 51.5684 74.8274 51.5366 74.8293C51.0293 74.8585 50.5122 74.8781 50 74.8781ZM54.5902 74.4488C54.5336 74.4477 54.479 74.4272 54.4355 74.3909C54.3921 74.3545 54.3623 74.3044 54.3512 74.2488C54.3398 74.1854 54.3539 74.1201 54.3905 74.0671C54.427 74.0141 54.4831 73.9777 54.5463 73.9659C55.5511 73.7748 56.5432 73.5223 57.5171 73.2098C57.5785 73.1898 57.6454 73.195 57.703 73.2242C57.7606 73.2535 57.8043 73.3044 57.8244 73.3659C57.8431 73.4273 57.8373 73.4936 57.8082 73.5509C57.7791 73.6082 57.729 73.652 57.6683 73.6732C56.6756 73.9929 55.6638 74.2503 54.639 74.4439L54.5902 74.4488ZM45.3512 74.439H45.3073C44.2823 74.2421 43.2706 73.9815 42.278 73.6585C42.2188 73.6367 42.1704 73.5928 42.1428 73.536C42.1153 73.4792 42.1109 73.414 42.1305 73.354C42.15 73.294 42.1921 73.2439 42.2478 73.2143C42.3035 73.1847 42.3686 73.1778 42.4293 73.1951C43.4021 73.5137 44.3944 73.7695 45.4 73.961C45.4315 73.9662 45.4616 73.9778 45.4885 73.995C45.5154 74.0123 45.5384 74.0349 45.5562 74.0614C45.574 74.0879 45.5863 74.1177 45.5921 74.1491C45.598 74.1805 45.5973 74.2128 45.5902 74.2439C45.5799 74.2994 45.5502 74.3495 45.5064 74.3852C45.4627 74.4209 45.4077 74.44 45.3512 74.439ZM60.4732 72.5463C60.4263 72.5458 60.3806 72.5322 60.341 72.5073C60.3014 72.4823 60.2695 72.4469 60.2488 72.4049C60.2221 72.3466 60.2194 72.2801 60.2413 72.2199C60.2632 72.1596 60.3079 72.1104 60.3658 72.0829C61.2914 71.6461 62.1891 71.1525 63.0537 70.6049C63.0807 70.5872 63.111 70.5751 63.1428 70.5695C63.1746 70.5638 63.2072 70.5647 63.2386 70.572C63.2701 70.5793 63.2997 70.5929 63.3258 70.6119C63.3518 70.631 63.3738 70.6552 63.3902 70.6829C63.4073 70.7101 63.4188 70.7404 63.4241 70.7721C63.4294 70.8038 63.4283 70.8362 63.4211 70.8674C63.4138 70.8987 63.4005 70.9282 63.3818 70.9543C63.3631 70.9804 63.3395 71.0026 63.3122 71.0195C62.4324 71.5772 61.5184 72.079 60.5756 72.522C60.5434 72.5369 60.5086 72.5452 60.4732 72.5463ZM39.478 72.522C39.441 72.5208 39.4046 72.5125 39.3707 72.4976C38.4278 72.0512 37.5138 71.5462 36.6341 70.9854C36.5799 70.9504 36.5417 70.8953 36.528 70.8322C36.5143 70.7691 36.5261 70.7031 36.561 70.6488C36.5778 70.6214 36.6001 70.5977 36.6263 70.5791C36.6525 70.5605 36.6823 70.5474 36.7137 70.5406C36.7451 70.5338 36.7776 70.5333 36.8092 70.5394C36.8408 70.5454 36.8708 70.5577 36.8976 70.5756C37.7609 71.124 38.6569 71.6192 39.5805 72.0585C39.6096 72.0717 39.6358 72.0905 39.6575 72.1139C39.6792 72.1373 39.6961 72.1648 39.707 72.1948C39.7179 72.2248 39.7227 72.2567 39.7211 72.2886C39.7194 72.3205 39.7115 72.3517 39.6976 72.3805C39.6777 72.4221 39.6466 72.4574 39.6079 72.4823C39.5691 72.5073 39.5241 72.521 39.478 72.522ZM65.6878 69.2342C65.6516 69.2346 65.6157 69.2269 65.5828 69.2117C65.5499 69.1965 65.5207 69.1742 65.4976 69.1463C65.4571 69.0964 65.438 69.0325 65.4444 68.9686C65.4508 68.9047 65.4822 68.8458 65.5317 68.8049C66.3194 68.1529 67.0656 67.4524 67.7658 66.7073C67.7879 66.6838 67.8143 66.6649 67.8437 66.6517C67.8731 66.6384 67.9048 66.6312 67.937 66.6303C67.9692 66.6293 68.0013 66.6348 68.0313 66.6464C68.0614 66.6579 68.0889 66.6753 68.1122 66.6976C68.1356 66.7192 68.1544 66.7452 68.1675 66.7742C68.1807 66.8031 68.1879 66.8344 68.1889 66.8662C68.1898 66.898 68.1843 66.9297 68.1728 66.9594C68.1613 66.9891 68.144 67.0161 68.1219 67.039C67.4083 67.8 66.6474 68.5152 65.8439 69.1805C65.7997 69.216 65.7445 69.235 65.6878 69.2342ZM34.2634 69.1951C34.2071 69.1938 34.1526 69.175 34.1073 69.1415C33.3064 68.4732 32.5473 67.7564 31.8341 66.9951C31.8097 66.9723 31.7903 66.9447 31.777 66.914C31.7637 66.8833 31.7569 66.8502 31.7569 66.8168C31.7569 66.7833 31.7638 66.7502 31.7772 66.7196C31.7906 66.6889 31.8101 66.6614 31.8345 66.6386C31.859 66.6158 31.8879 66.5983 31.9194 66.5871C31.951 66.5759 31.9844 66.5714 32.0178 66.5737C32.0511 66.5761 32.0837 66.5852 32.1133 66.6007C32.143 66.6161 32.1692 66.6374 32.1902 66.6634C32.8912 67.4076 33.6356 68.1096 34.4195 68.7659C34.4446 68.7857 34.4654 68.8105 34.4808 68.8386C34.4961 68.8666 34.5057 68.8975 34.5088 68.9294C34.512 68.9612 34.5088 68.9934 34.4993 69.0239C34.4898 69.0545 34.4743 69.0829 34.4537 69.1073C34.4305 69.1352 34.4014 69.1575 34.3684 69.1727C34.3355 69.1879 34.2997 69.1955 34.2634 69.1951ZM69.9219 64.7366C69.8691 64.7369 69.8177 64.7198 69.7756 64.6878C69.7242 64.6489 69.6898 64.5916 69.6798 64.5279C69.6698 64.4642 69.6849 64.3991 69.722 64.3463C70.3263 63.5207 70.8771 62.6572 71.3707 61.761C71.4026 61.7049 71.455 61.6634 71.5169 61.6452C71.5788 61.627 71.6453 61.6335 71.7024 61.6634C71.7586 61.6952 71.8 61.7479 71.8173 61.8101C71.8347 61.8723 71.8267 61.9388 71.7951 61.9951C71.2946 62.9109 70.7341 63.7925 70.1171 64.6342C70.0951 64.6656 70.066 64.6914 70.032 64.7092C69.9981 64.727 69.9603 64.7364 69.9219 64.7366ZM30.0439 64.6829C30.0053 64.6833 29.9671 64.6747 29.9324 64.6578C29.8977 64.6408 29.8674 64.616 29.8439 64.5854C29.2328 63.74 28.6756 62.8569 28.1756 61.9415C28.1594 61.9141 28.1489 61.8838 28.1448 61.8523C28.1407 61.8207 28.1431 61.7887 28.1517 61.7581C28.1604 61.7276 28.1752 61.6991 28.1952 61.6744C28.2153 61.6497 28.2401 61.6294 28.2683 61.6146C28.296 61.5983 28.3267 61.5878 28.3586 61.5836C28.3905 61.5795 28.4229 61.5818 28.4539 61.5904C28.4848 61.5991 28.5137 61.6139 28.5388 61.634C28.564 61.6541 28.5848 61.679 28.6 61.7073C29.0938 62.6029 29.6412 63.4678 30.239 64.2976C30.2761 64.3503 30.2912 64.4154 30.2812 64.4791C30.2712 64.5428 30.2368 64.6002 30.1854 64.639C30.1436 64.6674 30.0944 64.6827 30.0439 64.6829ZM72.9073 59.322C72.8753 59.323 72.8435 59.3163 72.8146 59.3024C72.7553 59.2775 72.7079 59.2306 72.6824 59.1715C72.6569 59.1123 72.6554 59.0456 72.678 58.9854C73.057 58.0348 73.3731 57.0603 73.6244 56.0683C73.6426 56.0068 73.6834 55.9546 73.7386 55.922C73.7938 55.8894 73.8593 55.8789 73.9219 55.8927C73.953 55.9006 73.9823 55.9147 74.0079 55.9339C74.0336 55.9532 74.0552 55.9774 74.0715 56.005C74.0878 56.0327 74.0985 56.0632 74.103 56.095C74.1075 56.1268 74.1056 56.1592 74.0976 56.1903C73.8398 57.2018 73.5171 58.1957 73.1317 59.1659C73.1147 59.2117 73.0841 59.2512 73.044 59.2791C73.0039 59.3071 72.9562 59.322 72.9073 59.322ZM27.0732 59.2683C27.0249 59.2687 26.9776 59.2545 26.9375 59.2275C26.8975 59.2005 26.8665 59.162 26.8488 59.1171C26.4634 58.1457 26.1424 57.1501 25.8878 56.1366C25.8798 56.1058 25.878 56.0738 25.8825 56.0423C25.887 56.0109 25.8978 55.9806 25.9141 55.9534C25.9305 55.9261 25.9521 55.9024 25.9778 55.8836C26.0034 55.8648 26.0325 55.8513 26.0634 55.8439C26.0945 55.8358 26.1268 55.834 26.1586 55.8385C26.1904 55.8429 26.221 55.8536 26.2486 55.8699C26.2763 55.8863 26.3004 55.9079 26.3197 55.9335C26.339 55.9592 26.353 55.9884 26.361 56.0195C26.612 57.011 26.9265 57.9854 27.3024 58.9366C27.3142 58.9667 27.3198 58.9988 27.3191 59.0311C27.3183 59.0634 27.3111 59.0952 27.298 59.1247C27.2848 59.1542 27.2659 59.1808 27.2424 59.2029C27.2189 59.2251 27.1912 59.2423 27.161 59.2537C27.1327 59.2632 27.103 59.2682 27.0732 59.2683ZM74.439 53.3317H74.4098C74.3778 53.3281 74.3469 53.3181 74.3189 53.3023C74.2909 53.2865 74.2663 53.2652 74.2468 53.2397C74.2272 53.2142 74.2129 53.185 74.2049 53.1539C74.1969 53.1228 74.1952 53.0903 74.2 53.0585C74.3247 52.0438 74.3882 51.0224 74.3902 50C74.3902 49.9353 74.4159 49.8733 74.4617 49.8275C74.5074 49.7818 74.5695 49.7561 74.6341 49.7561C74.6988 49.7561 74.7609 49.7818 74.8066 49.8275C74.8523 49.8733 74.878 49.9353 74.878 50C74.8767 51.0437 74.8115 52.0863 74.6829 53.122C74.6746 53.1806 74.6453 53.2342 74.6005 53.2727C74.5556 53.3113 74.4982 53.3323 74.439 53.3317ZM25.5512 53.2781C25.4926 53.2785 25.4358 53.2574 25.3918 53.2187C25.3477 53.18 25.3194 53.1265 25.3122 53.0683C25.1854 52.0505 25.1218 51.0257 25.1219 50V49.9464C25.1232 49.8821 25.1493 49.8207 25.1948 49.7753C25.2402 49.7298 25.3016 49.7037 25.3659 49.7024H25.3707C25.4025 49.7024 25.434 49.7088 25.4633 49.7211C25.4927 49.7334 25.5192 49.7515 25.5415 49.7742C25.5638 49.7969 25.5813 49.8238 25.593 49.8534C25.6047 49.8829 25.6104 49.9146 25.6098 49.9464V50C25.6103 51.0045 25.6722 52.008 25.7951 53.0049C25.8034 53.0689 25.786 53.1336 25.7467 53.1848C25.7074 53.236 25.6494 53.2696 25.5854 53.2781H25.5512ZM74.4537 47.2634C74.394 47.2628 74.3366 47.2408 74.2918 47.2014C74.2471 47.162 74.2179 47.1079 74.2098 47.0488C74.0885 46.0331 73.9028 45.0262 73.6537 44.0342C73.6456 44.0031 73.6437 43.9707 73.6482 43.9389C73.6527 43.9072 73.6634 43.8766 73.6797 43.8489C73.696 43.8213 73.7176 43.7971 73.7433 43.7778C73.7689 43.7586 73.7982 43.7445 73.8293 43.7366C73.8919 43.7216 73.958 43.7316 74.0135 43.7643C74.069 43.7971 74.1096 43.8501 74.1268 43.9122C74.3804 44.9255 74.571 45.9534 74.6976 46.9902C74.7044 47.0542 74.6857 47.1183 74.6455 47.1686C74.6053 47.2189 74.5469 47.2512 74.4829 47.2585L74.4537 47.2634ZM25.5658 47.1024H25.5366C25.5046 47.0989 25.4737 47.0889 25.4457 47.0731C25.4177 47.0573 25.3932 47.036 25.3736 47.0105C25.354 46.985 25.3398 46.9558 25.3317 46.9246C25.3237 46.8935 25.322 46.8611 25.3268 46.8293C25.4583 45.7954 25.6538 44.7707 25.9122 43.761C25.9284 43.6982 25.9688 43.6445 26.0246 43.6115C26.0804 43.5786 26.147 43.5692 26.2098 43.5854C26.2725 43.6015 26.3263 43.642 26.3592 43.6978C26.3921 43.7536 26.4015 43.8202 26.3854 43.8829C26.1303 44.8731 25.938 45.8783 25.8098 46.8927C25.8005 46.9509 25.7709 47.0039 25.7263 47.0423C25.6816 47.0807 25.6248 47.102 25.5658 47.1024ZM72.9463 41.2683C72.8969 41.268 72.8488 41.253 72.8079 41.2252C72.7671 41.1974 72.7355 41.158 72.7171 41.1122C72.344 40.1611 71.9123 39.2342 71.4244 38.3366C71.3933 38.2797 71.3862 38.2127 71.4045 38.1505C71.4228 38.0883 71.465 38.0359 71.5219 38.0049C71.5789 37.9738 71.6458 37.9667 71.708 37.985C71.7702 38.0033 71.8226 38.0455 71.8537 38.1024C72.3526 39.0181 72.7925 39.9648 73.1707 40.9366C73.1833 40.9663 73.1897 40.9982 73.1896 41.0305C73.1895 41.0628 73.1829 41.0947 73.1701 41.1243C73.1574 41.1539 73.1387 41.1806 73.1154 41.2029C73.092 41.2251 73.0644 41.2424 73.0341 41.2537C73.0058 41.2632 72.9762 41.2682 72.9463 41.2683ZM27.1122 41.1171C27.0818 41.1177 27.0517 41.111 27.0244 41.0976C26.9946 41.0857 26.9674 41.0682 26.9444 41.0458C26.9214 41.0235 26.903 40.9968 26.8903 40.9674C26.8777 40.9379 26.8709 40.9062 26.8705 40.8742C26.87 40.8421 26.8759 40.8103 26.8878 40.7805C27.2744 39.8114 27.7224 38.868 28.2293 37.9561C28.2611 37.9 28.3135 37.8585 28.3754 37.8403C28.4373 37.8221 28.5038 37.8286 28.561 37.8585C28.6172 37.8903 28.6585 37.9431 28.6759 38.0052C28.6932 38.0674 28.6853 38.134 28.6537 38.1903C28.1585 39.0854 27.7202 40.0108 27.3415 40.961C27.3231 41.0068 27.2914 41.0461 27.2506 41.0739C27.2098 41.1017 27.1616 41.1168 27.1122 41.1171ZM69.9902 35.8488C69.9513 35.8482 69.913 35.8387 69.8783 35.8209C69.8436 35.8032 69.8135 35.7776 69.7902 35.7463C69.1918 34.9161 68.5418 34.1242 67.8439 33.3756C67.7999 33.3277 67.7767 33.2644 67.7795 33.1994C67.7822 33.1345 67.8107 33.0733 67.8585 33.0293C67.9064 32.9853 67.9698 32.9621 68.0347 32.9649C68.0997 32.9676 68.1609 32.996 68.2049 33.0439C68.9142 33.8072 69.5756 34.6136 70.1854 35.4585C70.2224 35.5113 70.2375 35.5764 70.2275 35.6401C70.2175 35.7038 70.1832 35.7611 70.1317 35.8C70.0915 35.832 70.0416 35.8492 69.9902 35.8488ZM30.1122 35.7073C30.0601 35.7078 30.0091 35.6925 29.9658 35.6634C29.9144 35.6246 29.88 35.5672 29.87 35.5035C29.86 35.4398 29.8751 35.3747 29.9122 35.322C30.5292 34.4789 31.1988 33.6757 31.9171 32.9171C31.9387 32.8937 31.9647 32.8749 31.9937 32.8617C32.0226 32.8486 32.0539 32.8413 32.0857 32.8404C32.1176 32.8395 32.1492 32.845 32.1789 32.8564C32.2086 32.8679 32.2356 32.8852 32.2585 32.9073C32.282 32.9293 32.301 32.9558 32.3142 32.9852C32.3274 33.0146 32.3347 33.0463 32.3356 33.0785C32.3365 33.1107 32.331 33.1427 32.3195 33.1728C32.3079 33.2029 32.2905 33.2304 32.2683 33.2537C31.5661 33.9973 30.9111 34.7842 30.3073 35.6098C30.2843 35.6398 30.2548 35.6642 30.221 35.6811C30.1872 35.698 30.15 35.707 30.1122 35.7073ZM65.7756 31.3268C65.7182 31.3267 65.6628 31.3059 65.6195 31.2683C64.834 30.6121 64.008 30.006 63.1463 29.4537C63.1176 29.4373 63.0924 29.4152 63.0725 29.3887C63.0526 29.3623 63.0382 29.3321 63.0303 29.2999C63.0224 29.2677 63.0212 29.2343 63.0266 29.2016C63.0321 29.169 63.0441 29.1378 63.062 29.1099C63.0799 29.0821 63.1033 29.0581 63.1308 29.0396C63.1582 29.0211 63.1892 29.0084 63.2217 29.0022C63.2542 28.996 63.2877 28.9965 63.32 29.0037C63.3524 29.0109 63.3829 29.0246 63.4098 29.0439C64.2877 29.6077 65.1299 30.2251 65.9317 30.8927C65.9808 30.9352 66.0114 30.9952 66.0169 31.0599C66.0223 31.1246 66.0023 31.1889 65.961 31.239C65.9388 31.2668 65.9105 31.2891 65.8784 31.3043C65.8463 31.3195 65.8111 31.3272 65.7756 31.3268ZM34.3561 31.2195C34.3053 31.2202 34.2555 31.2051 34.2137 31.1762C34.172 31.1472 34.1403 31.106 34.1231 31.0582C34.1059 31.0103 34.1041 30.9584 34.1178 30.9094C34.1316 30.8605 34.1604 30.8172 34.2 30.7854C35.005 30.122 35.8505 29.5094 36.7317 28.9512C36.787 28.9181 36.853 28.9077 36.9158 28.9223C36.9785 28.9368 37.0332 28.9752 37.0683 29.0293C37.1031 29.0836 37.115 29.1496 37.1013 29.2127C37.0876 29.2758 37.0494 29.3309 36.9951 29.3659C36.1295 29.9098 35.3001 30.5095 34.5122 31.161C34.4684 31.1979 34.4133 31.2185 34.3561 31.2195ZM60.5707 27.9903C60.5353 27.9891 60.5004 27.9808 60.4683 27.9659C59.5432 27.5269 58.5918 27.1457 57.6195 26.8244C57.588 26.8154 57.5586 26.8001 57.5331 26.7795C57.5076 26.7589 57.4865 26.7333 57.4711 26.7044C57.4557 26.6754 57.4463 26.6436 57.4435 26.611C57.4406 26.5783 57.4444 26.5454 57.4546 26.5142C57.4647 26.483 57.4811 26.4542 57.5027 26.4295C57.5242 26.4048 57.5506 26.3847 57.5801 26.3704C57.6096 26.3561 57.6417 26.3479 57.6744 26.3463C57.7072 26.3446 57.74 26.3497 57.7707 26.361C58.7633 26.6883 59.7343 27.0777 60.678 27.5268C60.7278 27.5509 60.7679 27.5912 60.7918 27.6411C60.8156 27.691 60.8218 27.7475 60.8093 27.8014C60.7969 27.8552 60.7665 27.9033 60.7231 27.9376C60.6798 27.9719 60.626 27.9905 60.5707 27.9903ZM39.5805 27.9171C39.5252 27.9173 39.4715 27.8987 39.4281 27.8644C39.3847 27.8301 39.3543 27.7821 39.3419 27.7282C39.3294 27.6743 39.3356 27.6178 39.3594 27.5679C39.3833 27.5181 39.4234 27.4778 39.4732 27.4537C40.419 27.0124 41.3916 26.6312 42.3854 26.3122C42.446 26.2949 42.5111 26.3018 42.5668 26.3314C42.6225 26.361 42.6646 26.4111 42.6842 26.4711C42.7037 26.5311 42.6993 26.5963 42.6718 26.6531C42.6443 26.7099 42.5958 26.7538 42.5366 26.7756C41.5623 27.0881 40.6091 27.4629 39.6829 27.8976C39.6505 27.9111 39.6156 27.9177 39.5805 27.9171ZM54.7024 26.0585H54.6537C53.6494 25.8674 52.6346 25.737 51.6146 25.6683C51.5826 25.6664 51.5512 25.6583 51.5223 25.6442C51.4934 25.6302 51.4676 25.6107 51.4463 25.5866C51.425 25.5626 51.4087 25.5346 51.3982 25.5043C51.3877 25.4739 51.3834 25.4418 51.3854 25.4098C51.3872 25.3777 51.3954 25.3463 51.4094 25.3175C51.4234 25.2886 51.443 25.2627 51.467 25.2414C51.491 25.2201 51.519 25.2038 51.5494 25.1933C51.5797 25.1829 51.6119 25.1785 51.6439 25.1805C52.6853 25.2501 53.7214 25.3837 54.7463 25.5805C54.81 25.5935 54.8661 25.6309 54.9025 25.6846C54.939 25.7384 54.953 25.8043 54.9415 25.8683C54.9292 25.9225 54.8989 25.9709 54.8554 26.0055C54.812 26.0401 54.758 26.0588 54.7024 26.0585ZM45.4585 26.0293C45.4019 26.0281 45.3473 26.0077 45.3038 25.9713C45.2604 25.935 45.2306 25.8849 45.2195 25.8293C45.2081 25.7659 45.2222 25.7006 45.2588 25.6476C45.2953 25.5946 45.3513 25.5582 45.4146 25.5463C46.4416 25.3557 47.4793 25.2286 48.5219 25.1659C48.5858 25.1632 48.6482 25.1857 48.6957 25.2286C48.7431 25.2715 48.7718 25.3313 48.7756 25.3951C48.7783 25.4273 48.7744 25.4597 48.7642 25.4903C48.754 25.521 48.7377 25.5492 48.7162 25.5734C48.6948 25.5976 48.6687 25.6171 48.6395 25.6309C48.6103 25.6447 48.5786 25.6525 48.5463 25.6537C47.5266 25.7135 46.5116 25.8373 45.5073 26.0244L45.4585 26.0293Z" fill="#78B7FF"/>
<path id="Vector_4" d="M50.7658 42.5219C53.8263 42.5219 56.3073 41.6986 56.3073 40.6829C56.3073 39.6672 53.8263 38.8439 50.7658 38.8439C47.7054 38.8439 45.2244 39.6672 45.2244 40.6829C45.2244 41.6986 47.7054 42.5219 50.7658 42.5219Z" fill="#E0E1E2"/>
<path id="Vector_5" d="M58.8265 58.3685C61.0875 57.4778 62.681 56.1483 62.3858 55.3988C62.0906 54.6493 60.0184 54.7637 57.7574 55.6544C55.4965 56.545 53.9029 57.8745 54.1981 58.624C54.4934 59.3735 56.5656 59.2591 58.8265 58.3685Z" fill="#E0E1E2"/>
<path id="Vector_6" d="M41.1279 55.2292C41.3728 54.6659 40.1954 53.6109 38.4981 52.8729C36.8008 52.1349 35.2263 51.9933 34.9813 52.5566C34.7364 53.1199 35.9138 54.1748 37.6111 54.9128C39.3084 55.6508 40.8829 55.7925 41.1279 55.2292Z" fill="#E0E1E2"/>
<path id="Vector_7" d="M50.5366 49.3463C46.9464 49.3463 43.5659 48.6292 41.0098 47.3365C38.2927 45.956 36.8 44.0682 36.8 42.0195C36.8 39.9707 38.2927 38.078 41.0098 36.7024C43.5659 35.4048 46.9464 34.6926 50.5366 34.6926C54.1269 34.6926 57.5074 35.4048 60.0635 36.7024C62.7757 38.078 64.2732 39.9658 64.2732 42.0195C64.2732 44.0731 62.7757 45.956 60.0635 47.3365C57.5074 48.6292 54.122 49.3463 50.5366 49.3463ZM50.5366 36.156C47.1757 36.156 44.0244 36.8146 41.6683 38.0048C40.5659 38.5658 39.7025 39.2097 39.1122 39.917C38.522 40.6243 38.2635 41.3024 38.2635 42.0195C38.2635 42.7365 38.5464 43.439 39.1122 44.117C39.6781 44.7951 40.5659 45.4682 41.6683 46.0292C44.0244 47.2243 47.1757 47.8829 50.5366 47.8829C53.8976 47.8829 57.0439 47.2243 59.4 46.0292C60.5074 45.4682 61.3659 44.8243 61.9561 44.117C62.5464 43.4097 62.8098 42.7317 62.8098 42.0195C62.8098 41.3073 62.522 40.5951 61.9561 39.917C61.3903 39.239 60.5074 38.5658 59.4 38.0048C57.0439 36.8146 53.8976 36.156 50.5366 36.156Z" fill="#78B7FF"/>
<path id="Vector_8" d="M50.5366 43.5122C49.0244 43.5122 47.5951 43.2683 46.5073 42.8293C45.7561 42.5268 44.4976 41.8342 44.4976 40.6293C44.4976 40.4352 44.5746 40.2491 44.7119 40.1119C44.8491 39.9747 45.0352 39.8976 45.2293 39.8976C45.4233 39.8976 45.6094 39.9747 45.7467 40.1119C45.8839 40.2491 45.961 40.4352 45.961 40.6293C45.961 40.7903 46.2537 41.1464 47.0585 41.4732C47.961 41.839 49.2293 42.0488 50.5366 42.0488C51.8439 42.0488 53.1073 41.839 54.0146 41.4732C54.8195 41.1464 55.1122 40.7903 55.1122 40.6293C55.1122 40.4352 55.1893 40.2491 55.3265 40.1119C55.4637 39.9747 55.6498 39.8976 55.8439 39.8976C56.038 39.8976 56.2241 39.9747 56.3613 40.1119C56.4985 40.2491 56.5756 40.4352 56.5756 40.6293C56.5756 41.8342 55.3122 42.5268 54.561 42.8293C53.4732 43.2683 52.0439 43.5122 50.5366 43.5122Z" fill="#78B7FF"/>
<path id="Vector_9" d="M54.4634 65.2732C54.0732 65.2732 53.6927 65.2537 53.322 65.2196C50.8488 64.9903 49.1415 63.9903 48.5171 62.4147C47.2829 59.2878 50.8585 55.0488 56.6537 52.761C59.3366 51.7025 62.0781 51.2342 64.3805 51.4537C66.8585 51.683 68.5659 52.6781 69.1854 54.2586C70.4195 57.3854 66.8488 61.6244 61.0537 63.9122C58.8 64.8 56.5024 65.2732 54.4634 65.2732ZM63.2342 52.8635C61.3805 52.8635 59.2732 53.2976 57.1903 54.122C54.7171 55.0976 52.5903 56.4927 51.2049 58.0537C49.961 59.4586 49.4732 60.8537 49.8781 61.8781C50.2829 62.9025 51.5903 63.5903 53.4585 63.7659C55.5366 63.961 58.0439 63.5269 60.5171 62.5513C62.9903 61.5757 65.1122 60.1805 66.4976 58.6196C67.7463 57.2098 68.2293 55.8196 67.8244 54.7952C67.4195 53.7708 66.1171 53.083 64.2439 52.9074C63.9155 52.8781 63.5789 52.8635 63.2342 52.8635Z" fill="#78B7FF"/>
<path id="Vector_10" d="M56.3902 60.1365H56.3414C54.8536 60.1219 54.3707 59.4536 54.2146 59.0585C54.179 58.9695 54.1614 58.8743 54.1628 58.7785C54.1642 58.6826 54.1845 58.588 54.2226 58.5001C54.2606 58.4121 54.3157 58.3326 54.3847 58.266C54.4537 58.1994 54.5351 58.1471 54.6243 58.1122C54.8025 58.0421 55.0009 58.0442 55.1776 58.118C55.3542 58.1917 55.4952 58.3314 55.5707 58.5073C55.6195 58.5561 55.8926 58.6926 56.5268 58.6682C57.1609 58.6439 57.9853 58.4634 58.7804 58.1512C59.5756 57.839 60.278 57.4243 60.7804 56.9902C61.2829 56.5561 61.3658 56.2878 61.3707 56.2195C61.3035 56.0401 61.3093 55.8416 61.3868 55.6665C61.4643 55.4914 61.6074 55.3537 61.7853 55.2829C61.9665 55.2125 62.1681 55.2166 62.3463 55.2943C62.5245 55.3719 62.6648 55.5169 62.7365 55.6975C62.8926 56.0926 62.9902 56.9121 61.917 57.9365C61.2829 58.5414 60.356 59.0975 59.317 59.5121C58.278 59.9268 57.2536 60.1365 56.3902 60.1365Z" fill="#78B7FF"/>
<path id="Vector_11" d="M41.1463 60.6829C39.4244 60.6829 37.4488 60.2097 35.5366 59.3366C33.4878 58.4 31.7366 57.1073 30.6098 55.6927C29.3707 54.1366 29 52.5951 29.5756 51.3414C30.1512 50.0878 31.5512 49.3561 33.5366 49.278C35.3463 49.2 37.4732 49.678 39.522 50.6146C41.5707 51.5512 43.322 52.8439 44.4488 54.2585C45.6878 55.8146 46.0585 57.361 45.4829 58.6097H45.4878C44.9122 59.8585 43.5073 60.5951 41.522 60.678L41.1463 60.6829ZM33.9171 50.7317H33.6C32.2146 50.7902 31.2293 51.2292 30.9073 51.9463C30.5854 52.6634 30.8878 53.6878 31.7512 54.7756C32.7415 56.0146 34.3024 57.161 36.1463 58C37.9902 58.839 39.8781 59.2731 41.4585 59.2097C42.8488 59.1512 43.8293 58.7122 44.1561 57.9951C44.4781 57.2829 44.1707 56.2536 43.3073 55.1658C42.3171 53.9268 40.761 52.7805 38.9122 51.9414C37.1902 51.1561 35.4293 50.7317 33.9171 50.7317Z" fill="#78B7FF"/>
<path id="Vector_12" d="M39.5561 56.6341C38.7805 56.6341 37.8731 56.3854 37.0536 56.0146C35.4341 55.2732 33.9365 53.922 34.4926 52.7122C34.5734 52.5367 34.7203 52.4003 34.9012 52.3327C35.0821 52.2651 35.2825 52.2717 35.4585 52.3512C35.6244 52.4273 35.7561 52.5622 35.8282 52.7298C35.9003 52.8974 35.9076 53.0858 35.8487 53.2585C35.917 53.4829 36.4829 54.1415 37.6634 54.6829C38.8439 55.2244 39.7122 55.2195 39.9268 55.122C40.0154 54.9492 40.169 54.8188 40.3538 54.7593C40.4453 54.7299 40.5417 54.7188 40.6375 54.7266C40.7333 54.7344 40.8266 54.761 40.9122 54.8049C40.9977 54.8488 41.0737 54.9091 41.1359 54.9823C41.1982 55.0556 41.2453 55.1404 41.2748 55.2319C41.3042 55.3234 41.3153 55.4198 41.3075 55.5156C41.2997 55.6114 41.2731 55.7047 41.2292 55.7902C40.9561 56.3951 40.3219 56.6341 39.5561 56.6341Z" fill="#78B7FF"/>
<path id="Vector_13" d="M68.961 46.6927C70.3619 46.6927 71.4976 46.0921 71.4976 45.3512C71.4976 44.6104 70.3619 44.0098 68.961 44.0098C67.5601 44.0098 66.4244 44.6104 66.4244 45.3512C66.4244 46.0921 67.5601 46.6927 68.961 46.6927Z" fill="#78B7FF"/>
<path id="Vector_14" d="M47.9366 53.3756C49.0466 53.3756 49.9464 52.8995 49.9464 52.3122C49.9464 51.7249 49.0466 51.2488 47.9366 51.2488C46.8267 51.2488 45.9269 51.7249 45.9269 52.3122C45.9269 52.8995 46.8267 53.3756 47.9366 53.3756Z" fill="#78B7FF"/>
<path id="Vector_15" d="M49.9463 33.0683C51.4469 33.0683 52.6634 32.4087 52.6634 31.5951C52.6634 30.7815 51.4469 30.1219 49.9463 30.1219C48.4457 30.1219 47.2292 30.7815 47.2292 31.5951C47.2292 32.4087 48.4457 33.0683 49.9463 33.0683Z" fill="#78B7FF"/>
<path id="Vector_16" d="M32.3952 44.2537C33.8958 44.2537 35.1122 43.5942 35.1122 42.7805C35.1122 41.9669 33.8958 41.3074 32.3952 41.3074C30.8946 41.3074 29.6781 41.9669 29.6781 42.7805C29.6781 43.5942 30.8946 44.2537 32.3952 44.2537Z" fill="#78B7FF"/>
<path id="Vector_17" d="M45.067 67.2156C45.3703 66.3913 44.4253 65.285 42.9563 64.7445C41.4873 64.204 40.0506 64.4341 39.7474 65.2583C39.4441 66.0825 40.3891 67.1889 41.8581 67.7294C43.3271 68.2698 44.7637 68.0398 45.067 67.2156Z" fill="#78B7FF"/>
</g>
</svg>
