<svg width="72" height="70" viewBox="0 0 72 70" fill="none" xmlns="http://www.w3.org/2000/svg">
<g id="health-healthcare-medical-medicine-secure-security-svgrepo-com 1">
<path id="Vector" d="M37.0699 53.9034C37.0699 53.9034 20.1975 49.9322 19.5478 22.5127C18.6409 23.0727 18.0919 23.561 18.0919 23.9161C18.7312 51.3629 35.614 55.3342 35.614 55.3342C35.614 55.3342 39.8182 54.3405 44.1162 49.7444C40.3742 53.1215 37.0699 53.9034 37.0699 53.9034Z" fill="#E0E1E2"/>
<path id="Vector_2" d="M35.6001 51.3526C35.2562 51.2092 34.8288 51.0112 34.3458 50.7517C32.6086 49.8195 30.9859 48.5458 29.5197 46.9683C27.4489 44.7351 25.7672 41.9522 24.5233 38.6912C23.0779 34.9009 22.2197 30.4551 21.973 25.4595C22.7165 25.0326 24.0577 24.3497 26.4204 23.3322C29.1479 22.1575 32.1708 21 34.2242 20.2351C35.1203 19.8994 36.1104 19.8982 37.0073 20.2317C39.0608 20.9931 42.0802 22.1439 44.8077 23.3151C47.1356 24.3156 48.4733 24.9951 49.2238 25.4185C48.8659 30.4346 47.9417 34.8941 46.472 38.698C45.2003 41.9761 43.5221 44.7726 41.4825 47.0092C40.0476 48.5834 38.4666 49.8502 36.7884 50.7722C36.3333 51.0214 35.9302 51.2126 35.6001 51.3526Z" fill="#E0E1E2"/>
<path id="Vector_3" d="M42.0246 30.1308C42.1628 30.1308 42.2954 30.1847 42.3931 30.2808C42.4908 30.3769 42.5457 30.5071 42.5457 30.643V34.843C42.5457 34.9788 42.4908 35.1091 42.3931 35.2052C42.2954 35.3012 42.1628 35.3552 42.0246 35.3552H38.2721V39.043C38.2721 39.1788 38.2171 39.3091 38.1194 39.4052C38.0217 39.5012 37.8891 39.5552 37.7509 39.5552H33.4772C33.339 39.5552 33.2064 39.5012 33.1087 39.4052C33.0109 39.3091 32.956 39.1788 32.956 39.043V35.3552H29.2035C29.0653 35.3552 28.9327 35.3012 28.835 35.2052C28.7372 35.1091 28.6823 34.9788 28.6823 34.843V30.643C28.6823 30.5071 28.7372 30.3769 28.835 30.2808C28.9327 30.1847 29.0653 30.1308 29.2035 30.1308H32.956V26.443C32.956 26.3071 33.0109 26.1769 33.1087 26.0808C33.2064 25.9847 33.339 25.9308 33.4772 25.9308H37.7509C37.8891 25.9308 38.0217 25.9847 38.1194 26.0808C38.2171 26.1769 38.2721 26.3071 38.2721 26.443V30.1308" fill="#78B7FF"/>
<path id="Vector_4" d="M35.614 55.8464C35.5731 55.8469 35.5322 55.8423 35.4924 55.8327C35.4473 55.8225 34.3597 55.5595 32.7302 54.74C31.2396 53.9922 28.9881 52.6093 26.7157 50.2703C24.1724 47.6546 22.1189 44.3971 20.6144 40.5898C18.7417 35.8537 17.7167 30.2468 17.5708 23.9298V23.9161C17.5708 23.2332 18.2796 22.2805 23.4149 19.9756C26.4829 18.5995 30.1521 17.1859 32.6885 16.2434C34.5729 15.5411 36.6534 15.5387 38.5396 16.2366C41.0864 17.1825 44.7695 18.5961 47.8409 19.9722C49.5504 20.7371 50.8916 21.4132 51.8262 21.9766C53.1361 22.7688 53.6851 23.3561 53.6573 23.94C53.3724 30.2844 52.264 35.9049 50.36 40.6444C48.8312 44.4551 46.7882 47.7093 44.29 50.3147C43.0565 51.602 41.0378 53.4151 38.418 54.7571C36.8336 55.5664 35.7808 55.8225 35.7356 55.8327C35.6959 55.8425 35.655 55.8471 35.614 55.8464ZM18.6131 23.9332C18.759 30.1 19.7528 35.5634 21.5665 40.1698C23.0119 43.8473 24.9819 46.9888 27.4211 49.5122C28.6163 50.7483 30.5794 52.4966 33.1471 53.801C34.3841 54.4259 35.2944 54.7127 35.614 54.8049C35.9233 54.7161 36.8023 54.4361 37.9941 53.8181C39.37 53.1078 41.4547 51.7932 43.5846 49.5566C45.9786 47.0434 47.9417 43.8986 49.4114 40.2142C51.2564 35.5976 52.3335 30.1171 52.615 23.9161C52.5906 23.8547 52.3891 23.4893 51.0306 22.7039C50.1029 22.1644 48.7964 21.519 47.1565 20.7917C44.151 19.4566 40.6104 18.101 38.1713 17.1961C36.5227 16.5853 34.7037 16.5878 33.0568 17.2029C30.6177 18.1078 27.0771 19.4703 24.0751 20.8054C22.4351 21.5361 21.1322 22.1815 20.201 22.721C18.839 23.5098 18.6374 23.8751 18.6131 23.9332Z" fill="#2E3A58"/>
<path id="Vector_5" d="M35.6001 51.5234C35.5774 51.5238 35.5548 51.5192 35.5341 51.5097C35.2214 51.38 34.8983 51.2297 34.5786 51.0692C34.5583 51.0589 34.5403 51.0448 34.5255 51.0276C34.5108 51.0104 34.4996 50.9906 34.4927 50.9692C34.4858 50.9478 34.4832 50.9253 34.4851 50.9029C34.487 50.8805 34.4934 50.8587 34.5039 50.8387C34.5144 50.8188 34.5288 50.8011 34.5463 50.7866C34.5637 50.7721 34.5839 50.7611 34.6057 50.7543C34.6275 50.7475 34.6504 50.7449 34.6732 50.7468C34.696 50.7487 34.7181 50.755 34.7385 50.7653C35.0268 50.9122 35.3187 51.0453 35.6001 51.1648C35.8816 51.0453 36.17 50.9053 36.4584 50.7551C36.4782 50.7443 36.4999 50.7376 36.5224 50.7352C36.5449 50.7328 36.5677 50.7349 36.5893 50.7412C36.611 50.7476 36.6312 50.7581 36.6486 50.7722C36.6661 50.7863 36.6806 50.8037 36.6911 50.8234C36.7022 50.8431 36.7091 50.8648 36.7115 50.8871C36.714 50.9095 36.712 50.9321 36.7055 50.9537C36.699 50.9752 36.6883 50.9954 36.6739 51.0128C36.6595 51.0303 36.6418 51.0449 36.6217 51.0556C36.302 51.2229 35.9823 51.3765 35.6696 51.5097C35.6473 51.5178 35.6239 51.5224 35.6001 51.5234Z" fill="#78B7FF"/>
<path id="Vector_6" d="M32.9908 50.1132C32.9558 50.1134 32.9217 50.1027 32.8935 50.0825C32.3523 49.7221 31.8305 49.3346 31.3299 48.9215C31.3123 48.9073 31.2978 48.8898 31.2872 48.87C31.2766 48.8503 31.2701 48.8286 31.2681 48.8063C31.2662 48.784 31.2688 48.7616 31.2759 48.7403C31.2829 48.719 31.2942 48.6994 31.3091 48.6825C31.3389 48.6476 31.3814 48.6255 31.4275 48.6211C31.4736 48.6166 31.5196 48.6301 31.5558 48.6586C32.0443 49.0667 32.5559 49.4475 33.0881 49.799C33.1071 49.8117 33.1234 49.828 33.136 49.8469C33.1486 49.8658 33.1573 49.887 33.1615 49.9093C33.1657 49.9315 33.1654 49.9544 33.1605 49.9765C33.1557 49.9986 33.1464 50.0195 33.1332 50.0381C33.1177 50.0612 33.0965 50.0802 33.0716 50.0933C33.0468 50.1064 33.019 50.1133 32.9908 50.1132ZM30.0235 47.6615C29.9766 47.6614 29.9316 47.643 29.8984 47.6103C29.7282 47.4395 29.5579 47.262 29.3911 47.0844C29.1201 46.7942 28.8526 46.4869 28.5955 46.1761C28.5667 46.1412 28.5531 46.0965 28.5576 46.0517C28.5622 46.0069 28.5845 45.9658 28.6198 45.9371C28.6375 45.9226 28.658 45.9116 28.68 45.9049C28.7021 45.8983 28.7253 45.896 28.7482 45.8982C28.7712 45.9004 28.7935 45.9071 28.8138 45.9179C28.8341 45.9287 28.852 45.9433 28.8665 45.961C29.1201 46.2649 29.3807 46.5688 29.6483 46.8556C29.8116 47.0298 29.9783 47.2039 30.1451 47.3712C30.1612 47.3873 30.1738 47.4064 30.1824 47.4273C30.1909 47.4483 30.1951 47.4706 30.1948 47.4932C30.1945 47.5157 30.1896 47.538 30.1805 47.5586C30.1714 47.5793 30.1582 47.598 30.1416 47.6137C30.1265 47.6294 30.1081 47.6417 30.0878 47.65C30.0674 47.6582 30.0455 47.6621 30.0235 47.6615ZM27.5705 44.7112C27.5423 44.7113 27.5145 44.7045 27.4896 44.6914C27.4647 44.6782 27.4436 44.6593 27.428 44.6361C27.0667 44.1171 26.7157 43.5708 26.3891 43.0108C26.3748 42.9914 26.3648 42.9694 26.3597 42.946C26.3547 42.9227 26.3546 42.8985 26.3596 42.8751C26.3647 42.8518 26.3746 42.8297 26.3888 42.8103C26.4031 42.791 26.4213 42.7747 26.4423 42.7627C26.4633 42.7507 26.4867 42.7432 26.5108 42.7406C26.535 42.738 26.5595 42.7405 26.5826 42.7477C26.6058 42.755 26.6271 42.767 26.6452 42.7829C26.6634 42.7988 26.6779 42.8183 26.6879 42.84C27.0146 43.3932 27.3585 43.9327 27.7129 44.4449C27.7305 44.4705 27.7407 44.5003 27.7425 44.5311C27.7442 44.5619 27.7374 44.5926 27.7228 44.62C27.7082 44.6473 27.6863 44.6702 27.6595 44.6863C27.6326 44.7024 27.6019 44.711 27.5705 44.7112ZM25.6317 41.4093C25.5988 41.4086 25.5668 41.399 25.5392 41.3816C25.5116 41.3641 25.4895 41.3394 25.4753 41.3103C25.1974 40.7469 24.9298 40.1561 24.6831 39.5586C24.6741 39.538 24.6694 39.5158 24.6692 39.4934C24.669 39.471 24.6735 39.4488 24.6822 39.4281C24.691 39.4074 24.7039 39.3886 24.7201 39.3729C24.7364 39.3572 24.7557 39.3448 24.777 39.3366C24.8199 39.3195 24.8679 39.3195 24.9107 39.3368C24.9536 39.354 24.9879 39.387 25.0063 39.4288C25.2495 40.0229 25.5136 40.6034 25.788 41.1634C25.7981 41.1836 25.8041 41.2055 25.8055 41.228C25.8069 41.2504 25.8038 41.2729 25.7964 41.2941C25.789 41.3154 25.7774 41.335 25.7622 41.3518C25.7471 41.3687 25.7287 41.3824 25.7081 41.3922C25.684 41.4027 25.658 41.4085 25.6317 41.4093ZM24.1654 37.8751C24.1298 37.8746 24.0952 37.8636 24.0661 37.8435C24.037 37.8234 24.0147 37.7952 24.0021 37.7625C23.7971 37.1683 23.606 36.5503 23.4288 35.9288C23.4224 35.9073 23.4204 35.8847 23.4229 35.8624C23.4254 35.8402 23.4323 35.8186 23.4433 35.7989C23.4654 35.7592 23.5027 35.7298 23.547 35.7171C23.5916 35.7064 23.6387 35.7127 23.6788 35.7349C23.7188 35.7571 23.7487 35.7935 23.7624 35.8366C23.9361 36.4547 24.1307 37.0625 24.3322 37.6498C24.3399 37.6711 24.3432 37.6936 24.3419 37.7162C24.3406 37.7387 24.3348 37.7608 24.3248 37.7811C24.3148 37.8015 24.3007 37.8196 24.2835 37.8346C24.2663 37.8496 24.2463 37.861 24.2245 37.8683C24.2054 37.8739 24.1854 37.8762 24.1654 37.8751ZM23.1196 34.2044C23.08 34.2046 23.0416 34.1915 23.0106 34.1673C22.9797 34.1431 22.958 34.1092 22.9493 34.0712C22.8069 33.46 22.6783 32.8283 22.5602 32.1932C22.5536 32.1702 22.552 32.1461 22.5554 32.1224C22.5589 32.0987 22.5674 32.076 22.5804 32.0558C22.5933 32.0356 22.6105 32.0182 22.6307 32.0049C22.6509 31.9916 22.6737 31.9826 22.6977 31.9785C22.7217 31.9745 22.7462 31.9754 22.7698 31.9812C22.7934 31.9871 22.8155 31.9977 22.8346 32.0125C22.8538 32.0272 22.8695 32.0458 22.8809 32.0669C22.8923 32.088 22.899 32.1113 22.9007 32.1351C23.0188 32.7634 23.1474 33.3917 23.2864 33.9961C23.292 34.0179 23.2932 34.0405 23.2897 34.0627C23.2863 34.085 23.2783 34.1063 23.2663 34.1254C23.2543 34.1445 23.2385 34.161 23.2199 34.174C23.2013 34.187 23.1801 34.1962 23.1578 34.201L23.1196 34.2044ZM22.4247 30.4517C22.3829 30.452 22.3425 30.4373 22.3111 30.4102C22.2797 30.3831 22.2595 30.3456 22.2544 30.3049C22.1641 29.6834 22.0877 29.0449 22.0216 28.4029C22.0168 28.3796 22.017 28.3555 22.0223 28.3322C22.0275 28.3089 22.0376 28.2869 22.052 28.2677C22.0664 28.2485 22.0847 28.2325 22.1058 28.2207C22.1269 28.2088 22.1503 28.2015 22.1744 28.1991C22.1986 28.1967 22.223 28.1993 22.246 28.2067C22.2691 28.2142 22.2903 28.2263 22.3083 28.2423C22.3263 28.2583 22.3408 28.2778 22.3506 28.2996C22.3605 28.3214 22.3656 28.3449 22.3656 28.3688C22.4316 29.0039 22.5081 29.639 22.5984 30.2571C22.6034 30.3018 22.5907 30.3466 22.5628 30.3822C22.535 30.4179 22.4942 30.4415 22.449 30.4483L22.4247 30.4517Z" fill="#78B7FF"/>
<path id="Vector_7" d="M22.0321 26.6512C21.9883 26.6514 21.9461 26.6353 21.9139 26.6061C21.8817 26.577 21.8618 26.537 21.8583 26.4942C21.834 26.1527 21.8166 25.8078 21.7993 25.4663C21.7972 25.4352 21.8039 25.404 21.8186 25.3763C21.8333 25.3487 21.8555 25.3255 21.8827 25.3093C22.1537 25.159 22.4629 24.9917 22.8069 24.8176C22.8269 24.807 22.8489 24.8004 22.8715 24.7982C22.8941 24.7961 22.917 24.7985 22.9387 24.8051C22.9604 24.8118 22.9805 24.8227 22.9978 24.8372C23.0152 24.8516 23.0294 24.8693 23.0397 24.8893C23.0605 24.9292 23.0646 24.9756 23.0509 25.0184C23.0373 25.0612 23.007 25.097 22.9667 25.1181C22.6644 25.2717 22.3934 25.4185 22.1502 25.5551C22.1676 25.859 22.1849 26.1663 22.2058 26.4703C22.2072 26.4927 22.2041 26.5152 22.1966 26.5364C22.1892 26.5577 22.1775 26.5772 22.1624 26.5941C22.1472 26.6109 22.1288 26.6246 22.1082 26.6344C22.0877 26.6442 22.0653 26.6499 22.0425 26.6512H22.0321Z" fill="#78B7FF"/>
<path id="Vector_8" d="M24.7839 24.2268C24.7506 24.2264 24.718 24.217 24.6898 24.1995C24.6616 24.182 24.6388 24.1572 24.6241 24.1278C24.605 24.087 24.6031 24.0405 24.6187 23.9983C24.6343 23.9561 24.6662 23.9217 24.7075 23.9024C25.2147 23.6703 25.7672 23.4244 26.3509 23.1751L26.6393 23.0522C26.6603 23.0432 26.6829 23.0383 26.7058 23.0379C26.7287 23.0374 26.7514 23.0415 26.7728 23.0497C26.7941 23.058 26.8135 23.0703 26.83 23.0859C26.8464 23.1016 26.8596 23.1203 26.8686 23.141C26.8863 23.1827 26.8867 23.2296 26.8699 23.2716C26.853 23.3137 26.8202 23.3477 26.7783 23.3663L26.4899 23.4859C25.9096 23.7385 25.3607 23.981 24.8569 24.2098C24.8345 24.2218 24.8093 24.2277 24.7839 24.2268ZM46.4129 24.1961C46.3877 24.1953 46.3629 24.1895 46.3399 24.179C45.8431 23.9537 45.3045 23.7146 44.7382 23.4722L44.4151 23.3356C44.3941 23.3266 44.3751 23.3137 44.3592 23.2975C44.3433 23.2813 44.3308 23.2622 44.3224 23.2413C44.314 23.2204 44.3099 23.198 44.3103 23.1756C44.3107 23.1531 44.3156 23.1309 44.3247 23.1103C44.3338 23.0896 44.347 23.071 44.3635 23.0553C44.3799 23.0397 44.3994 23.0274 44.4207 23.0192C44.442 23.0109 44.4647 23.0069 44.4876 23.0073C44.5105 23.0077 44.533 23.0125 44.554 23.0215L44.8772 23.1581C45.447 23.4039 45.989 23.6429 46.4859 23.8683C46.5067 23.8778 46.5255 23.8913 46.541 23.908C46.5565 23.9247 46.5685 23.9443 46.5762 23.9656C46.584 23.9868 46.5874 24.0094 46.5862 24.032C46.585 24.0546 46.5792 24.0767 46.5693 24.0971C46.5558 24.1267 46.5338 24.1518 46.5061 24.1694C46.4783 24.187 46.4459 24.1963 46.4129 24.1961ZM28.6511 22.5673C28.6172 22.5674 28.584 22.5578 28.5556 22.5396C28.5272 22.5214 28.5048 22.4954 28.4912 22.4649C28.4747 22.4226 28.4752 22.3758 28.4926 22.3339C28.5101 22.292 28.5431 22.2583 28.585 22.2395C29.207 21.9868 29.8671 21.7239 30.5447 21.4576C30.5659 21.4493 30.5886 21.4452 30.6114 21.4455C30.6342 21.4458 30.6568 21.4505 30.6778 21.4594C30.6987 21.4683 30.7177 21.4811 30.7336 21.4972C30.7496 21.5133 30.7621 21.5323 30.7705 21.5532C30.779 21.574 30.7832 21.5963 30.7828 21.6187C30.7825 21.6412 30.7777 21.6633 30.7687 21.684C30.7596 21.7046 30.7466 21.7232 30.7302 21.7389C30.7138 21.7545 30.6945 21.7668 30.6732 21.7751C29.9957 22.0415 29.339 22.3044 28.7206 22.5571C28.698 22.5638 28.6746 22.5673 28.6511 22.5673ZM42.5388 22.54C42.5164 22.5399 42.4941 22.5365 42.4728 22.5298C41.8508 22.2771 41.1942 22.0142 40.5166 21.7512C40.4738 21.7345 40.4394 21.7017 40.4212 21.6601C40.403 21.6184 40.4023 21.5714 40.4193 21.5293C40.4364 21.4872 40.4697 21.4534 40.5121 21.4355C40.5545 21.4176 40.6023 21.4169 40.6452 21.4337C41.3227 21.6966 41.9829 21.9595 42.6048 22.2122C42.626 22.2204 42.6454 22.2328 42.6616 22.2485C42.6779 22.2642 42.6908 22.283 42.6995 22.3037C42.7083 22.3244 42.7127 22.3466 42.7126 22.369C42.7124 22.3914 42.7077 22.4136 42.6986 22.4342C42.6864 22.4659 42.6645 22.4931 42.6358 22.5121C42.6072 22.531 42.5733 22.5408 42.5388 22.54ZM32.5738 21.0273C32.5327 21.0281 32.4926 21.0145 32.4607 20.989C32.4288 20.9634 32.4072 20.9275 32.3996 20.8878C32.3921 20.848 32.3992 20.8069 32.4197 20.7718C32.4401 20.7367 32.4726 20.7099 32.5113 20.6961L34.1617 20.0746C34.2763 20.0337 34.3875 19.9961 34.5022 19.9654C34.5464 19.9527 34.594 19.9578 34.6344 19.9796C34.6748 20.0013 34.7047 20.038 34.7176 20.0815C34.7305 20.1249 34.7253 20.1717 34.7032 20.2114C34.681 20.2511 34.6437 20.2805 34.5995 20.2932C34.4929 20.325 34.3887 20.3592 34.2868 20.3956C33.7343 20.6005 33.1784 20.8088 32.6364 21.0171C32.6162 21.0238 32.5951 21.0272 32.5738 21.0273ZM38.616 21.0068C38.5944 21.0073 38.5729 21.0026 38.5535 20.9932L36.9448 20.3922C36.829 20.348 36.7106 20.3104 36.5904 20.2795C36.5463 20.2675 36.5088 20.2389 36.486 20.1999C36.4633 20.1609 36.4571 20.1147 36.4688 20.0712C36.474 20.0493 36.4837 20.0286 36.4974 20.0105C36.511 19.9924 36.5284 19.9773 36.5482 19.9661C36.5681 19.9549 36.5902 19.9478 36.613 19.9453C36.6358 19.9429 36.6588 19.945 36.6807 19.9517C36.8128 19.9859 36.9413 20.0268 37.0664 20.0712L38.6786 20.6756C38.7173 20.6894 38.7497 20.7162 38.7702 20.7513C38.7906 20.7864 38.7977 20.8275 38.7902 20.8673C38.7827 20.9071 38.7611 20.9429 38.7292 20.9685C38.6973 20.994 38.6572 21.0076 38.616 21.0068Z" fill="#78B7FF"/>
<path id="Vector_9" d="M49.1404 26.6103H49.1265C49.1037 26.6086 49.0814 26.6024 49.061 26.5922C49.0406 26.582 49.0224 26.5679 49.0076 26.5508C48.9927 26.5336 48.9815 26.5138 48.9744 26.4924C48.9674 26.4709 48.9648 26.4483 48.9667 26.4259C48.9945 26.1254 49.0188 25.8215 49.0397 25.5142C48.7999 25.381 48.5254 25.2342 48.2266 25.0805C48.1915 25.0569 48.1665 25.0215 48.1562 24.981C48.1459 24.9404 48.1511 24.8976 48.1708 24.8606C48.1905 24.8235 48.2233 24.7949 48.2631 24.78C48.3028 24.7652 48.3467 24.7652 48.3864 24.7801C48.7304 24.9542 49.0397 25.1181 49.3107 25.2718C49.3384 25.2882 49.3609 25.3119 49.3757 25.3403C49.3904 25.3687 49.3968 25.4005 49.3941 25.4322C49.3697 25.7737 49.3454 26.1186 49.3141 26.4566C49.3106 26.4992 49.2906 26.5388 49.2583 26.5674C49.2261 26.596 49.1839 26.6113 49.1404 26.6103Z" fill="#78B7FF"/>
<path id="Vector_10" d="M38.4284 49.9082C38.401 49.908 38.374 49.9017 38.3493 49.8899C38.3247 49.8781 38.303 49.861 38.286 49.84C38.2726 49.8216 38.2631 49.8008 38.258 49.7789C38.2529 49.7569 38.2522 49.7341 38.2561 49.7119C38.26 49.6897 38.2683 49.6684 38.2806 49.6494C38.2929 49.6303 38.3089 49.6139 38.3276 49.6009C38.9228 49.1724 39.4924 48.7107 40.0336 48.218C40.0499 48.2023 40.0694 48.1901 40.0907 48.182C40.112 48.174 40.1347 48.1704 40.1575 48.1713C40.1803 48.1723 40.2027 48.1778 40.2232 48.1876C40.2437 48.1974 40.262 48.2112 40.2769 48.2282C40.2926 48.2443 40.3049 48.2632 40.3131 48.284C40.3213 48.3048 40.3252 48.3269 40.3245 48.3492C40.3239 48.3715 40.3187 48.3934 40.3093 48.4136C40.3 48.4339 40.2866 48.4522 40.2699 48.4673C39.7194 48.9717 39.1381 49.4427 38.5292 49.8775C38.4994 49.8974 38.4644 49.9081 38.4284 49.9082ZM41.7014 46.9375C41.659 46.937 41.6182 46.9212 41.5868 46.8931C41.5525 46.8635 41.5315 46.8218 41.5282 46.7771C41.525 46.7324 41.5398 46.6882 41.5694 46.6541C42.0454 46.118 42.5075 45.5409 42.9418 44.94C42.9689 44.9042 43.0091 44.8802 43.0539 44.8732C43.0987 44.8662 43.1445 44.8766 43.1816 44.9024C43.2003 44.915 43.2162 44.9312 43.2284 44.9499C43.2406 44.9687 43.249 44.9896 43.2528 45.0116C43.2567 45.0335 43.2561 45.056 43.251 45.0777C43.246 45.0994 43.2365 45.1199 43.2233 45.138C42.782 45.7458 42.3164 46.3331 41.8335 46.8761C41.8175 46.8953 41.7973 46.9108 41.7745 46.9214C41.7517 46.932 41.7267 46.9375 41.7014 46.9375ZM44.2934 43.3658C44.2633 43.3656 44.2336 43.3586 44.2066 43.3453C44.1669 43.3219 44.1381 43.2841 44.1264 43.24C44.1147 43.196 44.1211 43.1492 44.144 43.1097C44.5123 42.4951 44.8633 41.8497 45.1899 41.1873C45.1986 41.1654 45.2118 41.1456 45.2287 41.129C45.2455 41.1124 45.2657 41.0994 45.2879 41.0908C45.3101 41.0822 45.3338 41.0782 45.3577 41.0791C45.3815 41.0799 45.4049 41.0855 45.4265 41.0956C45.448 41.1057 45.4672 41.1201 45.4828 41.1378C45.4984 41.1555 45.5102 41.1762 45.5173 41.1986C45.5245 41.221 45.5269 41.2445 45.5243 41.2679C45.5218 41.2912 45.5144 41.3137 45.5026 41.3341C45.1725 42.0068 44.8146 42.6624 44.4428 43.2839C44.4275 43.3093 44.4056 43.3302 44.3794 43.3446C44.3531 43.359 44.3235 43.3663 44.2934 43.3658ZM46.2496 39.4253C46.227 39.424 46.2048 39.4194 46.1836 39.4117C46.1624 39.4034 46.143 39.3911 46.1268 39.3754C46.1105 39.3597 46.0976 39.3409 46.0889 39.3202C46.0801 39.2995 46.0757 39.2773 46.0758 39.2549C46.076 39.2324 46.0807 39.2103 46.0898 39.1897L46.3087 38.6365C46.4963 38.1482 46.677 37.6463 46.8472 37.1375C46.8623 37.0943 46.894 37.0586 46.9356 37.0381C46.9772 37.0177 47.0253 37.0141 47.0696 37.0282C47.1127 37.043 47.1482 37.0738 47.1683 37.1141C47.1885 37.1544 47.1917 37.2008 47.1773 37.2434C47.0071 37.7556 46.8229 38.2678 46.6318 38.7561C46.5623 38.9439 46.4859 39.1317 46.4094 39.3161C46.3978 39.3484 46.3761 39.3764 46.3474 39.396C46.3187 39.4156 46.2845 39.4258 46.2496 39.4253ZM47.6498 35.2561H47.6047C47.5606 35.2441 47.5231 35.2155 47.5003 35.1765C47.4775 35.1375 47.4713 35.0912 47.4831 35.0478C47.6707 34.358 47.8444 33.6443 48.0008 32.9204C48.0057 32.8984 48.015 32.8776 48.0282 32.8591C48.0413 32.8406 48.0581 32.8249 48.0775 32.8129C48.0969 32.8008 48.1185 32.7926 48.1411 32.7888C48.1637 32.785 48.1869 32.7856 48.2092 32.7907C48.2315 32.7951 48.2526 32.8039 48.2714 32.8165C48.2902 32.8291 48.3062 32.8453 48.3185 32.8641C48.3308 32.8828 48.3391 32.9038 48.3431 32.9258C48.347 32.9478 48.3464 32.9704 48.3413 32.9921C48.1814 33.7195 48.0077 34.44 47.8166 35.1331C47.8066 35.1689 47.7848 35.2004 47.7546 35.2226C47.7244 35.2449 47.6876 35.2566 47.6498 35.2561ZM48.588 30.9673H48.5602C48.5375 30.9644 48.5156 30.957 48.4959 30.9455C48.4763 30.934 48.4592 30.9187 48.4459 30.9004C48.4325 30.8821 48.4231 30.8614 48.4183 30.8394C48.4134 30.8174 48.4132 30.7947 48.4177 30.7726C48.5358 30.0658 48.6436 29.3385 48.7374 28.6078C48.7426 28.563 48.7656 28.5221 48.8014 28.494C48.8372 28.4658 48.8829 28.4527 48.9285 28.4575C48.9513 28.46 48.9735 28.467 48.9936 28.478C49.0137 28.4891 49.0314 28.5039 49.0456 28.5217C49.0598 28.5395 49.0703 28.5599 49.0765 28.5817C49.0826 28.6035 49.0843 28.6263 49.0814 28.6487C48.9875 29.3863 48.8798 30.117 48.7582 30.8273C48.7516 30.8668 48.7307 30.9026 48.6995 30.9283C48.6683 30.954 48.6287 30.9678 48.588 30.9673Z" fill="#78B7FF"/>
</g>
</svg>
