<svg width="72" height="70" viewBox="0 0 72 70" fill="none" xmlns="http://www.w3.org/2000/svg">
<g id="cardiograph-emergency-health-healthcare-medical-medicine-svgrepo-com 1">
<path id="Vector" d="M53.7067 48.918H17.6933C16.9026 48.918 16.1442 48.6101 15.5851 48.0619C15.026 47.5138 14.7119 46.7703 14.7119 45.9951V47.2176C14.7119 47.9928 15.026 48.7362 15.5851 49.2844C16.1442 49.8325 16.9026 50.1405 17.6933 50.1405H53.7067C54.4974 50.1405 55.2558 49.8325 55.8149 49.2844C56.374 48.7362 56.6881 47.9928 56.6881 47.2176V45.9951C56.6881 46.7703 56.374 47.5138 55.8149 48.0619C55.2558 48.6101 54.4974 48.918 53.7067 48.918Z" fill="#E0E1E2"/>
<path id="Vector_2" d="M53.7067 50.6527H17.6933C16.7643 50.6518 15.8736 50.2896 15.2167 49.6455C14.5598 49.0015 14.1904 48.1283 14.1894 47.2175V21.5395C14.1904 20.6284 14.5597 19.7548 15.2165 19.1103C15.8733 18.4657 16.764 18.1028 17.6933 18.101H53.7067C54.636 18.1028 55.5267 18.4657 56.1835 19.1103C56.8403 19.7548 57.2096 20.6284 57.2105 21.5395V47.2175C57.2096 48.1283 56.8402 49.0015 56.1833 49.6455C55.5264 50.2896 54.6357 50.6518 53.7067 50.6527ZM17.6933 19.1253C17.0408 19.1262 16.4154 19.381 15.9543 19.8336C15.4933 20.2863 15.2343 20.8998 15.2343 21.5395V47.2175C15.2352 47.8566 15.4946 48.4693 15.9555 48.9212C16.4165 49.3731 17.0414 49.6274 17.6933 49.6283H53.7067C54.3586 49.6274 54.9835 49.3731 55.4444 48.9212C55.9054 48.4693 56.1647 47.8566 56.1657 47.2175V21.5395C56.1657 20.8998 55.9067 20.2863 55.4457 19.8336C54.9846 19.381 54.3592 19.1262 53.7067 19.1253H17.6933Z" fill="#2E3A58"/>
<path id="Vector_3" d="M53.2714 42.0751H18.6998V43.4587H53.2714V42.0751Z" fill="#E0E1E2"/>
<path id="Vector_4" d="M29.6536 40.32C29.5305 40.32 29.4114 40.277 29.3176 40.1989C29.2239 40.1207 29.1615 40.0123 29.1416 39.8932L26.7315 25.7225L24.572 29.8508C24.5279 29.9349 24.4611 30.0056 24.3788 30.055C24.2964 30.1043 24.2018 30.1306 24.1053 30.1308H18.9994C18.8608 30.1308 18.7279 30.0768 18.6299 29.9807C18.532 29.8847 18.4769 29.7544 18.4769 29.6186C18.4769 29.4827 18.532 29.3525 18.6299 29.2564C18.7279 29.1603 18.8608 29.1064 18.9994 29.1064H23.7884L26.5225 23.8786C26.572 23.782 26.6515 23.7033 26.7495 23.6537C26.8475 23.6041 26.9589 23.5861 27.068 23.6024C27.177 23.6187 27.2779 23.6684 27.3564 23.7444C27.4348 23.8204 27.4867 23.9187 27.5047 24.0254L29.4934 35.7444L30.089 29.1166C30.0995 28.9889 30.1588 28.8698 30.255 28.7831C30.3512 28.6963 30.4773 28.6484 30.608 28.6488H34.9024L36.4976 25.9513C36.5476 25.8668 36.6213 25.7981 36.7098 25.7533C36.7984 25.7086 36.8981 25.6895 36.9973 25.6985C37.0965 25.7075 37.1911 25.7441 37.2697 25.804C37.3484 25.8639 37.408 25.9446 37.4415 26.0366L39.0123 30.3425L40.2522 28.7C40.3014 28.6362 40.3651 28.5844 40.4382 28.5488C40.5114 28.5133 40.592 28.4949 40.6736 28.4952H43.0908L44.7034 24.3942C44.7433 24.292 44.8156 24.205 44.9096 24.1461C45.0036 24.0871 45.1145 24.0592 45.2258 24.0664C45.3372 24.0737 45.4433 24.1157 45.5285 24.1864C45.6138 24.257 45.6737 24.3526 45.6995 24.4591L48.2037 34.7986L48.5555 28.7444C48.5626 28.614 48.6203 28.4911 48.7167 28.401C48.8132 28.3108 48.9412 28.2602 49.0744 28.2595H53.2748C53.4134 28.2595 53.5463 28.3135 53.6443 28.4096C53.7422 28.5056 53.7973 28.6359 53.7973 28.7717C53.7973 28.9076 53.7422 29.0379 53.6443 29.1339C53.5463 29.23 53.4134 29.2839 53.2748 29.2839H49.569L49.0431 38.36C49.0367 38.4835 48.985 38.6005 48.8975 38.6895C48.81 38.7786 48.6926 38.8336 48.567 38.8444C48.4414 38.8552 48.3161 38.8211 48.2141 38.7484C48.1121 38.6757 48.0404 38.5693 48.0121 38.4488L45.0726 26.303L43.9336 29.1917C43.8967 29.2883 43.8305 29.3714 43.744 29.43C43.6574 29.4886 43.5547 29.5199 43.4495 29.5195H40.9348L39.27 31.722C39.2137 31.7967 39.1376 31.855 39.0501 31.8907C38.9625 31.9263 38.8667 31.9379 38.7729 31.9242C38.6792 31.9105 38.591 31.8721 38.5178 31.813C38.4446 31.7539 38.3892 31.6764 38.3575 31.5888L36.8354 27.4195L35.6547 29.4171C35.61 29.4952 35.5447 29.5602 35.4657 29.6052C35.3867 29.6502 35.2968 29.6737 35.2054 29.6732H31.0851L30.1761 39.8522C30.1651 39.9768 30.1081 40.0931 30.0157 40.1793C29.9233 40.2654 29.802 40.3155 29.6745 40.32H29.6536Z" fill="#78B7FF"/>
<path id="Vector_5" d="M22.538 40.4293H20.5319V41.4537H22.538V40.4293Z" fill="#78B7FF"/>
<path id="Vector_6" d="M55.4726 45.6264H53.3828C53.3369 45.6255 53.2931 45.6072 53.2607 45.5754C53.2282 45.5436 53.2096 45.5007 53.2087 45.4556C53.2087 45.4104 53.227 45.3669 53.2597 45.3349C53.2923 45.3029 53.3366 45.2849 53.3828 45.2849H55.4726C55.5188 45.2849 55.563 45.3029 55.5957 45.3349C55.6284 45.3669 55.6467 45.4104 55.6467 45.4556C55.6467 45.5009 55.6284 45.5444 55.5957 45.5764C55.563 45.6084 55.5188 45.6264 55.4726 45.6264ZM51.2931 45.6264H49.2033C49.1574 45.6255 49.1136 45.6072 49.0811 45.5754C49.0487 45.5436 49.03 45.5007 49.0292 45.4556C49.0292 45.4104 49.0475 45.3669 49.0802 45.3349C49.1128 45.3029 49.1571 45.2849 49.2033 45.2849H51.2931C51.3392 45.2849 51.3835 45.3029 51.4162 45.3349C51.4489 45.3669 51.4672 45.4104 51.4672 45.4556C51.4672 45.5009 51.4489 45.5444 51.4162 45.5764C51.3835 45.6084 51.3392 45.6264 51.2931 45.6264ZM47.1135 45.6264H45.0238C44.9779 45.6255 44.9341 45.6072 44.9016 45.5754C44.8692 45.5436 44.8505 45.5007 44.8496 45.4556C44.8496 45.4104 44.868 45.3669 44.9006 45.3349C44.9333 45.3029 44.9776 45.2849 45.0238 45.2849H47.1135C47.1597 45.2849 47.204 45.3029 47.2367 45.3349C47.2693 45.3669 47.2877 45.4104 47.2877 45.4556C47.2877 45.5009 47.2693 45.5444 47.2367 45.5764C47.204 45.6084 47.1597 45.6264 47.1135 45.6264ZM42.934 45.6264H40.8443C40.7984 45.6255 40.7546 45.6072 40.7221 45.5754C40.6897 45.5436 40.671 45.5007 40.6701 45.4556C40.6701 45.4104 40.6885 45.3669 40.7211 45.3349C40.7538 45.3029 40.7981 45.2849 40.8443 45.2849H42.934C42.9802 45.2849 43.0245 45.3029 43.0572 45.3349C43.0898 45.3669 43.1082 45.4104 43.1082 45.4556C43.1082 45.5009 43.0898 45.5444 43.0572 45.5764C43.0245 45.6084 42.9802 45.6264 42.934 45.6264ZM38.7545 45.6264H36.6648C36.6189 45.6255 36.5751 45.6072 36.5426 45.5754C36.5101 45.5436 36.4915 45.5007 36.4906 45.4556C36.4906 45.4104 36.509 45.3669 36.5416 45.3349C36.5743 45.3029 36.6186 45.2849 36.6648 45.2849H38.7545C38.8007 45.2849 38.845 45.3029 38.8777 45.3349C38.9103 45.3669 38.9287 45.4104 38.9287 45.4556C38.9287 45.5009 38.9103 45.5444 38.8777 45.5764C38.845 45.6084 38.8007 45.6264 38.7545 45.6264ZM34.575 45.6264H32.4853C32.4393 45.6255 32.3956 45.6072 32.3631 45.5754C32.3306 45.5436 32.312 45.5007 32.3111 45.4556C32.3111 45.4104 32.3295 45.3669 32.3621 45.3349C32.3948 45.3029 32.4391 45.2849 32.4853 45.2849H34.575C34.6212 45.2849 34.6655 45.3029 34.6982 45.3349C34.7308 45.3669 34.7492 45.4104 34.7492 45.4556C34.7492 45.5009 34.7308 45.5444 34.6982 45.5764C34.6655 45.6084 34.6212 45.6264 34.575 45.6264ZM30.3955 45.6264H28.3057C28.2598 45.6255 28.2161 45.6072 28.1836 45.5754C28.1511 45.5436 28.1325 45.5007 28.1316 45.4556C28.1316 45.4104 28.1499 45.3669 28.1826 45.3349C28.2153 45.3029 28.2596 45.2849 28.3057 45.2849H30.3955C30.4417 45.2849 30.486 45.3029 30.5186 45.3349C30.5513 45.3669 30.5696 45.4104 30.5696 45.4556C30.5696 45.5009 30.5513 45.5444 30.5186 45.5764C30.486 45.6084 30.4417 45.6264 30.3955 45.6264ZM26.216 45.6264H24.1262C24.0803 45.6255 24.0365 45.6072 24.0041 45.5754C23.9716 45.5436 23.953 45.5007 23.9521 45.4556C23.9521 45.4104 23.9704 45.3669 24.0031 45.3349C24.0358 45.3029 24.08 45.2849 24.1262 45.2849H26.216C26.2622 45.2849 26.3065 45.3029 26.3391 45.3349C26.3718 45.3669 26.3901 45.4104 26.3901 45.4556C26.3901 45.5009 26.3718 45.5444 26.3391 45.5764C26.3065 45.6084 26.2622 45.6264 26.216 45.6264ZM22.0365 45.6264H19.9467C19.9008 45.6255 19.857 45.6072 19.8246 45.5754C19.7921 45.5436 19.7735 45.5007 19.7726 45.4556C19.7726 45.4104 19.7909 45.3669 19.8236 45.3349C19.8562 45.3029 19.9005 45.2849 19.9467 45.2849H22.0365C22.0827 45.2849 22.127 45.3029 22.1596 45.3349C22.1923 45.3669 22.2106 45.4104 22.2106 45.4556C22.2106 45.5009 22.1923 45.5444 22.1596 45.5764C22.127 45.6084 22.0827 45.6264 22.0365 45.6264ZM17.857 45.6264H15.7672C15.7213 45.6255 15.6775 45.6072 15.6451 45.5754C15.6126 45.5436 15.594 45.5007 15.5931 45.4556C15.5931 45.4104 15.6114 45.3669 15.6441 45.3349C15.6767 45.3029 15.721 45.2849 15.7672 45.2849H17.857C17.9032 45.2849 17.9474 45.3029 17.9801 45.3349C18.0128 45.3669 18.0311 45.4104 18.0311 45.4556C18.0311 45.5009 18.0128 45.5444 17.9801 45.5764C17.9474 45.6084 17.9032 45.6264 17.857 45.6264Z" fill="#78B7FF"/>
<path id="Vector_7" d="M19.8179 46.9888H18.4351V48.344H19.8179V46.9888Z" fill="#78B7FF"/>
<path id="Vector_8" d="M22.6321 46.9888H21.2493V48.344H22.6321V46.9888Z" fill="#78B7FF"/>
<path id="Vector_9" d="M18.9994 50.1405H25.4393V51.9195C25.4393 52.0796 25.4071 52.2381 25.3446 52.386C25.2822 52.5339 25.1906 52.6683 25.0751 52.7815C24.9597 52.8947 24.8226 52.9845 24.6717 53.0458C24.5209 53.107 24.3592 53.1385 24.1959 53.1385H20.2463C20.083 53.1385 19.9213 53.107 19.7704 53.0458C19.6196 52.9845 19.4825 52.8947 19.367 52.7815C19.2516 52.6683 19.16 52.5339 19.0975 52.386C19.035 52.2381 19.0028 52.0796 19.0028 51.9195V50.1405H18.9994Z" fill="#E0E1E2"/>
<path id="Vector_10" d="M51.7284 53.1385H47.7788C47.6155 53.1385 47.4538 53.107 47.3029 53.0458C47.1521 52.9845 47.015 52.8947 46.8996 52.7815C46.7841 52.6683 46.6925 52.5339 46.63 52.386C46.5675 52.2381 46.5354 52.0796 46.5354 51.9195V50.1405H52.9718V51.9195C52.9718 52.0796 52.9397 52.2381 52.8772 52.386C52.8147 52.5339 52.7231 52.6683 52.6076 52.7815C52.4922 52.8947 52.3551 52.9845 52.2043 53.0458C52.0534 53.107 51.8917 53.1385 51.7284 53.1385Z" fill="#E0E1E2"/>
<path id="Vector_11" d="M24.1959 53.6507H20.2463C19.7776 53.6507 19.3281 53.4684 18.9964 53.1439C18.6647 52.8193 18.4778 52.379 18.4769 51.9195V50.1405C18.4769 50.0046 18.532 49.8744 18.6299 49.7783C18.7279 49.6823 18.8608 49.6283 18.9994 49.6283H25.4393C25.5779 49.6283 25.7107 49.6823 25.8087 49.7783C25.9067 49.8744 25.9617 50.0046 25.9617 50.1405V51.9195C25.9617 52.3787 25.7757 52.819 25.4445 53.1437C25.1134 53.4683 24.6642 53.6507 24.1959 53.6507ZM19.5218 50.6527V51.9195C19.5227 52.1073 19.5995 52.2871 19.7352 52.4195C19.871 52.552 20.0547 52.6263 20.2463 52.6263H24.1959C24.2906 52.6263 24.3843 52.6081 24.4718 52.5725C24.5593 52.537 24.6387 52.485 24.7057 52.4193C24.7726 52.3537 24.8257 52.2758 24.862 52.19C24.8982 52.1042 24.9169 52.0123 24.9169 51.9195V50.6527H19.5218Z" fill="#2E3A58"/>
<path id="Vector_12" d="M51.7284 53.6507H47.7788C47.3105 53.6507 46.8613 53.4683 46.5301 53.1437C46.199 52.819 46.0129 52.3787 46.0129 51.9195V50.1405C46.0129 50.0046 46.068 49.8744 46.166 49.7783C46.2639 49.6823 46.3968 49.6283 46.5354 49.6283H52.9753C53.1139 49.6283 53.2468 49.6823 53.3447 49.7783C53.4427 49.8744 53.4978 50.0046 53.4978 50.1405V51.9195C53.4968 52.379 53.31 52.8193 52.9783 53.1439C52.6466 53.4684 52.1971 53.6507 51.7284 53.6507ZM47.0578 50.6527V51.9195C47.0578 52.107 47.1338 52.2868 47.269 52.4193C47.4042 52.5519 47.5876 52.6263 47.7788 52.6263H51.7284C51.92 52.6263 52.1037 52.552 52.2395 52.4195C52.3752 52.2871 52.452 52.1073 52.4529 51.9195V50.6527H47.0578Z" fill="#2E3A58"/>
<path id="Vector_13" d="M53.2748 43.9703H18.6998C18.5613 43.9703 18.4284 43.9163 18.3304 43.8203C18.2324 43.7242 18.1774 43.5939 18.1774 43.4581V21.5566C18.1774 21.4208 18.2324 21.2905 18.3304 21.1945C18.4284 21.0984 18.5613 21.0444 18.6998 21.0444H53.2748C53.4134 21.0444 53.5463 21.0984 53.6443 21.1945C53.7422 21.2905 53.7973 21.4208 53.7973 21.5566V43.4581C53.7973 43.5254 53.7838 43.592 53.7575 43.6541C53.7313 43.7162 53.6928 43.7727 53.6443 43.8203C53.5957 43.8678 53.5382 43.9056 53.4748 43.9313C53.4114 43.957 53.3434 43.9703 53.2748 43.9703ZM19.2223 42.9459H52.7524V22.0688H19.2223V42.9459Z" fill="#2E3A58"/>
</g>
</svg>
