<svg width="72" height="70" viewBox="0 0 72 70" fill="none" xmlns="http://www.w3.org/2000/svg">
<g id="health-healthcare-hospital-medical-medicine-medicine-box-svgrepo-com 1">
<path id="Vector" d="M47.5628 21.1639H45.4731C45.3345 21.1639 45.2017 21.11 45.1037 21.0139C45.0057 20.9179 44.9507 20.7876 44.9507 20.6517V18.6952C44.9507 18.618 44.9352 18.5417 44.9051 18.4704C44.8749 18.3991 44.8308 18.3344 44.7752 18.2799C44.7196 18.2253 44.6535 18.1821 44.5808 18.1525C44.5082 18.123 44.4303 18.1078 44.3516 18.1078H27.0484C26.9697 18.1078 26.8918 18.123 26.8192 18.1525C26.7465 18.1821 26.6804 18.2253 26.6248 18.2799C26.5692 18.3344 26.5251 18.3991 26.4949 18.4704C26.4648 18.5417 26.4493 18.618 26.4493 18.6952V20.6517C26.4493 20.7876 26.3943 20.9179 26.2963 21.0139C26.1984 21.11 26.0655 21.1639 25.9269 21.1639H23.8372C23.6986 21.1639 23.5657 21.11 23.4677 21.0139C23.3698 20.9179 23.3147 20.7876 23.3147 20.6517V18.6952C23.3156 17.7246 23.7093 16.7941 24.4093 16.1078C25.1093 15.4215 26.0585 15.0356 27.0484 15.0347H44.3516C45.3415 15.0356 46.2907 15.4215 46.9907 16.1078C47.6907 16.7941 48.0844 17.7246 48.0853 18.6952V20.6517C48.0853 20.7876 48.0302 20.9179 47.9323 21.0139C47.8343 21.11 47.7014 21.1639 47.5628 21.1639ZM45.9955 20.1395H47.0404V18.6952C47.0404 17.996 46.7571 17.3255 46.2529 16.8312C45.7486 16.3368 45.0647 16.0591 44.3516 16.0591H27.0484C26.6953 16.0591 26.3457 16.1272 26.0194 16.2597C25.6932 16.3922 25.3968 16.5864 25.1471 16.8312C24.8974 17.0759 24.6994 17.3665 24.5643 17.6864C24.4291 18.0062 24.3596 18.349 24.3596 18.6952V20.1395H25.4045V18.6952C25.4045 18.2677 25.5777 17.8578 25.886 17.5555C26.1943 17.2533 26.6124 17.0834 27.0484 17.0834H44.3516C44.7876 17.0834 45.2057 17.2533 45.514 17.5555C45.8223 17.8578 45.9955 18.2677 45.9955 18.6952V20.1395Z" fill="#78B7FF"/>
<path id="Vector_2" d="M15.398 48.2966C15.6709 49.1296 16.2065 49.8562 16.9275 50.3717C17.6486 50.8871 18.5179 51.1649 19.4103 51.1649H51.9896C52.882 51.1649 53.7514 50.8871 54.4725 50.3717C55.1935 49.8562 55.7291 49.1296 56.002 48.2966H15.398Z" fill="#E0E1E2"/>
<path id="Vector_3" d="M17.4007 47.0332V26.8937C17.4007 26.3513 17.5097 25.8141 17.7216 25.3131C17.9334 24.812 18.2439 24.3567 18.6353 23.9733C19.0267 23.5899 19.4913 23.2859 20.0025 23.0786C20.5138 22.8714 21.0618 22.7649 21.615 22.7654H19.4104C18.8571 22.7649 18.3091 22.8714 17.7979 23.0786C17.2866 23.2859 16.822 23.5899 16.4306 23.9733C16.0392 24.3567 15.7287 24.812 15.5169 25.3131C15.305 25.8141 15.196 26.3513 15.196 26.8937V47.0332C15.196 48.129 15.64 49.1799 16.4304 49.9547C17.2207 50.7296 18.2926 51.1649 19.4104 51.1649H21.615C20.4973 51.1649 19.4254 50.7296 18.6351 49.9547C17.8447 49.1799 17.4007 48.129 17.4007 47.0332Z" fill="#E0E1E2"/>
<path id="Vector_4" d="M40.5761 34.9453H37.7584V32.1829H33.6416V34.9453H30.8239V38.9814H33.6416V41.7473H37.7584V38.9814H40.5761V34.9453Z" fill="#78B7FF"/>
<path id="Vector_5" d="M54.9014 26.0196H52.8116C52.7654 26.0196 52.7211 26.0016 52.6885 25.9696C52.6558 25.9375 52.6375 25.8941 52.6375 25.8488C52.6375 25.8036 52.6558 25.7601 52.6885 25.7281C52.7211 25.6961 52.7654 25.6781 52.8116 25.6781H54.9014C54.9476 25.6781 54.9919 25.6961 55.0245 25.7281C55.0572 25.7601 55.0755 25.8036 55.0755 25.8488C55.0755 25.8941 55.0572 25.9375 55.0245 25.9696C54.9919 26.0016 54.9476 26.0196 54.9014 26.0196ZM50.7219 26.0196H48.6321C48.5859 26.0196 48.5416 26.0016 48.509 25.9696C48.4763 25.9375 48.458 25.8941 48.458 25.8488C48.458 25.8036 48.4763 25.7601 48.509 25.7281C48.5416 25.6961 48.5859 25.6781 48.6321 25.6781H50.7219C50.7681 25.6781 50.8123 25.6961 50.845 25.7281C50.8777 25.7601 50.896 25.8036 50.896 25.8488C50.896 25.8941 50.8777 25.9375 50.845 25.9696C50.8123 26.0016 50.7681 26.0196 50.7219 26.0196ZM46.5424 26.0196H44.4526C44.4064 26.0196 44.3621 26.0016 44.3295 25.9696C44.2968 25.9375 44.2785 25.8941 44.2785 25.8488C44.2785 25.8036 44.2968 25.7601 44.3295 25.7281C44.3621 25.6961 44.4064 25.6781 44.4526 25.6781H46.5424C46.5885 25.6781 46.6328 25.6961 46.6655 25.7281C46.6982 25.7601 46.7165 25.8036 46.7165 25.8488C46.7165 25.8941 46.6982 25.9375 46.6655 25.9696C46.6328 26.0016 46.5885 26.0196 46.5424 26.0196ZM42.3628 26.0196H40.2731C40.2269 26.0196 40.1826 26.0016 40.1499 25.9696C40.1173 25.9375 40.0989 25.8941 40.0989 25.8488C40.0989 25.8036 40.1173 25.7601 40.1499 25.7281C40.1826 25.6961 40.2269 25.6781 40.2731 25.6781H42.3628C42.409 25.6781 42.4533 25.6961 42.486 25.7281C42.5186 25.7601 42.537 25.8036 42.537 25.8488C42.537 25.8941 42.5186 25.9375 42.486 25.9696C42.4533 26.0016 42.409 26.0196 42.3628 26.0196ZM38.1833 26.0196H36.0936C36.0474 26.0196 36.0031 26.0016 35.9704 25.9696C35.9378 25.9375 35.9194 25.8941 35.9194 25.8488C35.9194 25.8036 35.9378 25.7601 35.9704 25.7281C36.0031 25.6961 36.0474 25.6781 36.0936 25.6781H38.1833C38.2295 25.6781 38.2738 25.6961 38.3065 25.7281C38.3391 25.7601 38.3575 25.8036 38.3575 25.8488C38.3575 25.8941 38.3391 25.9375 38.3065 25.9696C38.2738 26.0016 38.2295 26.0196 38.1833 26.0196ZM34.0038 26.0196H31.9141C31.8679 26.0196 31.8236 26.0016 31.7909 25.9696C31.7583 25.9375 31.7399 25.8941 31.7399 25.8488C31.7399 25.8036 31.7583 25.7601 31.7909 25.7281C31.8236 25.6961 31.8679 25.6781 31.9141 25.6781H34.0038C34.05 25.6781 34.0943 25.6961 34.127 25.7281C34.1596 25.7601 34.178 25.8036 34.178 25.8488C34.178 25.8941 34.1596 25.9375 34.127 25.9696C34.0943 26.0016 34.05 26.0196 34.0038 26.0196ZM29.8243 26.0196H27.7345C27.6884 26.0196 27.6441 26.0016 27.6114 25.9696C27.5787 25.9375 27.5604 25.8941 27.5604 25.8488C27.5604 25.8036 27.5787 25.7601 27.6114 25.7281C27.6441 25.6961 27.6884 25.6781 27.7345 25.6781H29.8243C29.8705 25.6781 29.9148 25.6961 29.9474 25.7281C29.9801 25.7601 29.9984 25.8036 29.9984 25.8488C29.9984 25.8941 29.9801 25.9375 29.9474 25.9696C29.9148 26.0016 29.8705 26.0196 29.8243 26.0196ZM25.6448 26.0196H23.555C23.5088 26.0196 23.4646 26.0016 23.4319 25.9696C23.3992 25.9375 23.3809 25.8941 23.3809 25.8488C23.3809 25.8036 23.3992 25.7601 23.4319 25.7281C23.4646 25.6961 23.5088 25.6781 23.555 25.6781H25.6448C25.691 25.6781 25.7353 25.6961 25.7679 25.7281C25.8006 25.7601 25.8189 25.8036 25.8189 25.8488C25.8189 25.8941 25.8006 25.9375 25.7679 25.9696C25.7353 26.0016 25.691 26.0196 25.6448 26.0196ZM21.4653 26.0196H19.3755C19.3293 26.0196 19.285 26.0016 19.2524 25.9696C19.2197 25.9375 19.2014 25.8941 19.2014 25.8488C19.2014 25.8036 19.2197 25.7601 19.2524 25.7281C19.285 25.6961 19.3293 25.6781 19.3755 25.6781H21.4653C21.5115 25.6781 21.5558 25.6961 21.5884 25.7281C21.6211 25.7601 21.6394 25.8036 21.6394 25.8488C21.6394 25.8941 21.6211 25.9375 21.5884 25.9696C21.5558 26.0016 21.5115 26.0196 21.4653 26.0196ZM17.2858 26.0196H15.196C15.1498 26.0196 15.1055 26.0016 15.0729 25.9696C15.0402 25.9375 15.0219 25.8941 15.0219 25.8488C15.0219 25.8036 15.0402 25.7601 15.0729 25.7281C15.1055 25.6961 15.1498 25.6781 15.196 25.6781H17.2858C17.332 25.6781 17.3762 25.6961 17.4089 25.7281C17.4416 25.7601 17.4599 25.8036 17.4599 25.8488C17.4599 25.8941 17.4416 25.9375 17.4089 25.9696C17.3762 26.0016 17.332 26.0196 17.2858 26.0196Z" fill="#78B7FF"/>
<path id="Vector_6" d="M54.9014 48.4673H52.8116C52.7657 48.4664 52.7219 48.4482 52.6895 48.4163C52.657 48.3845 52.6384 48.3416 52.6375 48.2966C52.6375 48.2513 52.6558 48.2079 52.6885 48.1759C52.7211 48.1438 52.7654 48.1259 52.8116 48.1259H54.9014C54.9476 48.1259 54.9919 48.1438 55.0245 48.1759C55.0572 48.2079 55.0755 48.2513 55.0755 48.2966C55.0755 48.3419 55.0572 48.3853 55.0245 48.4173C54.9919 48.4493 54.9476 48.4673 54.9014 48.4673ZM50.7219 48.4673H48.6321C48.5862 48.4664 48.5424 48.4482 48.51 48.4163C48.4775 48.3845 48.4589 48.3416 48.458 48.2966C48.458 48.2513 48.4763 48.2079 48.509 48.1759C48.5416 48.1438 48.5859 48.1259 48.6321 48.1259H50.7219C50.7681 48.1259 50.8123 48.1438 50.845 48.1759C50.8777 48.2079 50.896 48.2513 50.896 48.2966C50.896 48.3419 50.8777 48.3853 50.845 48.4173C50.8123 48.4493 50.7681 48.4673 50.7219 48.4673ZM46.5424 48.4673H44.4526C44.4067 48.4664 44.3629 48.4482 44.3304 48.4163C44.298 48.3845 44.2793 48.3416 44.2785 48.2966C44.2785 48.2513 44.2968 48.2079 44.3295 48.1759C44.3621 48.1438 44.4064 48.1259 44.4526 48.1259H46.5424C46.5885 48.1259 46.6328 48.1438 46.6655 48.1759C46.6982 48.2079 46.7165 48.2513 46.7165 48.2966C46.7165 48.3419 46.6982 48.3853 46.6655 48.4173C46.6328 48.4493 46.5885 48.4673 46.5424 48.4673ZM42.3628 48.4673H40.2731C40.2272 48.4664 40.1834 48.4482 40.1509 48.4163C40.1185 48.3845 40.0998 48.3416 40.0989 48.2966C40.0989 48.2513 40.1173 48.2079 40.1499 48.1759C40.1826 48.1438 40.2269 48.1259 40.2731 48.1259H42.3628C42.409 48.1259 42.4533 48.1438 42.486 48.1759C42.5186 48.2079 42.537 48.2513 42.537 48.2966C42.537 48.3419 42.5186 48.3853 42.486 48.4173C42.4533 48.4493 42.409 48.4673 42.3628 48.4673ZM38.1833 48.4673H36.0936C36.0477 48.4664 36.0039 48.4482 35.9714 48.4163C35.939 48.3845 35.9203 48.3416 35.9194 48.2966C35.9194 48.2513 35.9378 48.2079 35.9704 48.1759C36.0031 48.1438 36.0474 48.1259 36.0936 48.1259H38.1833C38.2295 48.1259 38.2738 48.1438 38.3065 48.1759C38.3391 48.2079 38.3575 48.2513 38.3575 48.2966C38.3575 48.3419 38.3391 48.3853 38.3065 48.4173C38.2738 48.4493 38.2295 48.4673 38.1833 48.4673ZM34.0038 48.4673H31.9141C31.8682 48.4664 31.8244 48.4482 31.7919 48.4163C31.7594 48.3845 31.7408 48.3416 31.7399 48.2966C31.7399 48.2513 31.7583 48.2079 31.7909 48.1759C31.8236 48.1438 31.8679 48.1259 31.9141 48.1259H34.0038C34.05 48.1259 34.0943 48.1438 34.127 48.1759C34.1596 48.2079 34.178 48.2513 34.178 48.2966C34.178 48.3419 34.1596 48.3853 34.127 48.4173C34.0943 48.4493 34.05 48.4673 34.0038 48.4673ZM29.8243 48.4673H27.7345C27.6886 48.4664 27.6449 48.4482 27.6124 48.4163C27.5799 48.3845 27.5613 48.3416 27.5604 48.2966C27.5604 48.2513 27.5787 48.2079 27.6114 48.1759C27.6441 48.1438 27.6884 48.1259 27.7345 48.1259H29.8243C29.8705 48.1259 29.9148 48.1438 29.9474 48.1759C29.9801 48.2079 29.9984 48.2513 29.9984 48.2966C29.9984 48.3419 29.9801 48.3853 29.9474 48.4173C29.9148 48.4493 29.8705 48.4673 29.8243 48.4673ZM25.6448 48.4673H23.555C23.5091 48.4664 23.4653 48.4482 23.4329 48.4163C23.4004 48.3845 23.3818 48.3416 23.3809 48.2966C23.3809 48.2513 23.3992 48.2079 23.4319 48.1759C23.4646 48.1438 23.5088 48.1259 23.555 48.1259H25.6448C25.691 48.1259 25.7353 48.1438 25.7679 48.1759C25.8006 48.2079 25.8189 48.2513 25.8189 48.2966C25.8189 48.3419 25.8006 48.3853 25.7679 48.4173C25.7353 48.4493 25.691 48.4673 25.6448 48.4673ZM21.4653 48.4673H19.3755C19.3296 48.4664 19.2858 48.4482 19.2534 48.4163C19.2209 48.3845 19.2023 48.3416 19.2014 48.2966C19.2014 48.2513 19.2197 48.2079 19.2524 48.1759C19.285 48.1438 19.3293 48.1259 19.3755 48.1259H21.4653C21.5115 48.1259 21.5558 48.1438 21.5884 48.1759C21.6211 48.2079 21.6394 48.2513 21.6394 48.2966C21.6394 48.3419 21.6211 48.3853 21.5884 48.4173C21.5558 48.4493 21.5115 48.4673 21.4653 48.4673ZM17.2858 48.4673H15.196C15.1501 48.4664 15.1063 48.4482 15.0739 48.4163C15.0414 48.3845 15.0228 48.3416 15.0219 48.2966C15.0219 48.2513 15.0402 48.2079 15.0729 48.1759C15.1055 48.1438 15.1498 48.1259 15.196 48.1259H17.2858C17.332 48.1259 17.3762 48.1438 17.4089 48.1759C17.4416 48.2079 17.4599 48.2513 17.4599 48.2966C17.4599 48.3419 17.4416 48.3853 17.4089 48.4173C17.3762 48.4493 17.332 48.4673 17.2858 48.4673Z" fill="#78B7FF"/>
<path id="Vector_7" d="M35.7 46.5654C33.4341 46.566 31.238 45.7963 29.4861 44.3874C27.7341 42.9786 26.5346 41.0177 26.092 38.839C25.6494 36.6603 25.991 34.3986 27.0587 32.4391C28.1263 30.4797 29.854 28.9438 31.9472 28.0932C34.0405 27.2426 36.3698 27.1299 38.5383 27.7743C40.7068 28.4187 42.5803 29.7803 43.8396 31.6271C45.0988 33.474 45.666 35.6918 45.4443 37.9026C45.2227 40.1135 44.226 42.1806 42.6241 43.7517C41.7169 44.6461 40.6379 45.3553 39.4494 45.8383C38.2609 46.3213 36.9865 46.5684 35.7 46.5654ZM35.7 28.3893C33.6786 28.3906 31.7201 29.079 30.1583 30.3372C28.5964 31.5954 27.5278 33.3455 27.1344 35.2894C26.7411 37.2333 27.0473 39.2508 28.0009 40.9982C28.9545 42.7457 30.4966 44.1149 32.3644 44.8728C34.2322 45.6306 36.3103 45.7301 38.2445 45.1545C40.1788 44.5788 41.8497 43.3634 42.9726 41.7155C44.0954 40.0675 44.6008 38.0889 44.4026 36.1166C44.2044 34.1444 43.3149 32.3005 41.8857 30.899C41.0749 30.1008 40.1107 29.468 39.049 29.0372C37.9873 28.6065 36.849 28.3862 35.7 28.3893Z" fill="#2E3A58"/>
<path id="Vector_8" d="M27.9261 20.6517H25.913V22.7654H27.9261V20.6517Z" fill="#E0E1E2"/>
<path id="Vector_9" d="M49.5655 20.6517H47.4096V22.7654H49.5655V20.6517Z" fill="#E0E1E2"/>
<path id="Vector_10" d="M27.9261 23.2776H21.8345C21.6959 23.2776 21.563 23.2236 21.465 23.1276C21.3671 23.0315 21.312 22.9012 21.312 22.7654V20.6517C21.312 20.5159 21.3671 20.3856 21.465 20.2895C21.563 20.1935 21.6959 20.1395 21.8345 20.1395H27.9261C28.0647 20.1395 28.1976 20.1935 28.2955 20.2895C28.3935 20.3856 28.4485 20.5159 28.4485 20.6517V22.7654C28.4485 22.8326 28.435 22.8992 28.4088 22.9614C28.3825 23.0235 28.344 23.08 28.2955 23.1276C28.247 23.1751 28.1894 23.2128 28.126 23.2386C28.0626 23.2643 27.9947 23.2776 27.9261 23.2776ZM22.3569 22.2532H27.4037V21.1639H22.3569V22.2532Z" fill="#2E3A58"/>
<path id="Vector_11" d="M49.5655 23.2776H43.4739C43.3353 23.2776 43.2024 23.2236 43.1045 23.1276C43.0065 23.0315 42.9515 22.9012 42.9515 22.7654V20.6517C42.9515 20.5159 43.0065 20.3856 43.1045 20.2895C43.2024 20.1935 43.3353 20.1395 43.4739 20.1395H49.5655C49.7041 20.1395 49.837 20.1935 49.9349 20.2895C50.0329 20.3856 50.088 20.5159 50.088 20.6517V22.7654C50.088 22.8326 50.0745 22.8992 50.0482 22.9614C50.0219 23.0235 49.9835 23.08 49.9349 23.1276C49.8864 23.1751 49.8288 23.2128 49.7655 23.2386C49.7021 23.2643 49.6341 23.2776 49.5655 23.2776ZM43.9963 22.2532H49.0431V21.1639H43.9963V22.2532Z" fill="#2E3A58"/>
<path id="Vector_12" d="M51.9897 51.6771H19.4104C16.7982 51.6771 14.6736 49.5942 14.6736 47.0332V26.8937C14.6736 24.3361 16.7982 22.2532 19.4104 22.2532H51.9897C54.6018 22.2532 56.7264 24.3361 56.7264 26.8937V47.0332C56.7264 49.5942 54.6018 51.6771 51.9897 51.6771ZM19.4104 23.2776C17.3763 23.2776 15.7184 24.8995 15.7184 26.8937V47.0332C15.7194 47.9929 16.1086 48.913 16.8008 49.5916C17.493 50.2702 18.4315 50.6518 19.4104 50.6527H51.9897C52.9685 50.6518 53.907 50.2702 54.5992 49.5916C55.2914 48.913 55.6806 47.9929 55.6816 47.0332V26.8937C55.6816 24.8995 54.0237 23.2776 51.9897 23.2776H19.4104Z" fill="#2E3A58"/>
</g>
</svg>
