<svg width="29" height="29" viewBox="0 0 29 29" fill="none" xmlns="http://www.w3.org/2000/svg">
<g id="Group 4">
<path id="Vector" d="M18.5436 28.0951H6.75216C6.07682 28.0951 5.42915 27.8273 4.95161 27.3505C4.47408 26.8738 4.2058 26.2272 4.2058 25.553C4.2058 24.8788 4.47408 24.2322 4.95161 23.7554C5.42915 23.2787 6.07682 23.0108 6.75216 23.0108H8.8487C9.32051 22.9933 9.76712 22.7938 10.0947 22.4543C10.4222 22.1149 10.6053 21.6619 10.6053 21.1905C10.6053 20.7192 10.4222 20.2662 10.0947 19.9267C9.76712 19.5873 9.32051 19.3878 8.8487 19.3702H0.381191C0.280093 19.3702 0.183135 19.3301 0.111648 19.2587C0.0401611 19.1874 0 19.0906 0 18.9896C0 18.8887 0.0401611 18.7919 0.111648 18.7205C0.183135 18.6492 0.280093 18.6091 0.381191 18.6091H8.8487C9.52045 18.6301 10.1576 18.9113 10.6254 19.3931C11.0931 19.8749 11.3546 20.5196 11.3546 21.1905C11.3546 21.8615 11.0931 22.5061 10.6254 22.9879C10.1576 23.4697 9.52045 23.7509 8.8487 23.772H6.75216C6.27902 23.772 5.82526 23.9596 5.4907 24.2936C5.15614 24.6276 4.96818 25.0806 4.96818 25.553C4.96818 26.0253 5.15614 26.4783 5.4907 26.8123C5.82526 27.1463 6.27902 27.334 6.75216 27.334H18.5436C18.6447 27.334 18.7417 27.3741 18.8132 27.4454C18.8847 27.5168 18.9248 27.6136 18.9248 27.7145C18.9248 27.8155 18.8847 27.9123 18.8132 27.9836C18.7417 28.055 18.6447 28.0951 18.5436 28.0951Z" fill="#78B7FF"/>
<path id="Vector_2" d="M27.0239 13.3979L19.306 25.3042C19.2418 25.4021 19.1541 25.4825 19.051 25.5381C18.9478 25.5937 18.8324 25.6229 18.7152 25.6229C18.598 25.6229 18.4826 25.5937 18.3794 25.5381C18.2763 25.4825 18.1886 25.4021 18.1243 25.3042L10.4065 13.3979C9.57709 12.1204 9.05521 10.6685 8.88174 9.15594C8.62112 11.4302 9.1601 13.7243 10.4065 15.6457L17.9668 27.3085C18.0477 27.4331 18.1586 27.5355 18.2893 27.6064C18.42 27.6773 18.5664 27.7145 18.7152 27.7145C18.864 27.7145 19.0104 27.6773 19.1411 27.6064C19.2718 27.5355 19.3827 27.4331 19.4636 27.3085L27.0239 15.6457C28.2727 13.7253 28.8118 11.4304 28.5486 9.15594C28.3775 10.669 27.8555 12.1214 27.0239 13.3979Z" fill="#E0E1E2"/>
<path id="Vector_3" d="M18.7167 28.0952C18.5039 28.0953 18.2946 28.0422 18.1077 27.9407C17.9208 27.8392 17.7623 27.6926 17.6468 27.5142L10.0865 15.854C9.07972 14.304 8.51041 12.5116 8.43865 10.6656C8.36688 8.81967 8.79531 6.98857 9.67878 5.36536C10.5622 3.74216 11.868 2.38699 13.4584 1.4427C15.0489 0.498414 16.865 0 18.7154 0C20.5659 0 22.382 0.498414 23.9724 1.4427C25.5628 2.38699 26.8686 3.74216 27.7521 5.36536C28.6355 6.98857 29.064 8.81967 28.9922 10.6656C28.9204 12.5116 28.3511 14.304 27.3443 15.854L19.784 27.5142C19.6689 27.6924 19.5109 27.8389 19.3245 27.9404C19.138 28.0419 18.9291 28.0951 18.7167 28.0952ZM18.7167 0.776327C17.005 0.77626 15.325 1.23706 13.8536 2.11019C12.3822 2.98332 11.1739 4.23645 10.356 5.73759C9.53814 7.23873 9.14091 8.9323 9.20619 10.6399C9.27146 12.3475 9.79683 14.0059 10.7269 15.4404L18.2872 27.1007C18.3332 27.1725 18.3965 27.2315 18.4713 27.2724C18.5462 27.3133 18.6301 27.3348 18.7154 27.3348C18.8007 27.3348 18.8847 27.3133 18.9595 27.2724C19.0344 27.2315 19.0977 27.1725 19.1436 27.1007L26.7039 15.4404C27.8877 13.6154 28.4088 11.4403 28.1804 9.27797C27.9353 6.94339 26.8323 4.78232 25.0844 3.21218C23.3366 1.64203 21.068 0.774204 18.7167 0.776327Z" fill="#2E3A58"/>
<path id="Vector_4" d="M18.7446 16.5263C18.615 16.5263 18.4828 16.5212 18.3558 16.5161C18.3391 16.5151 18.3227 16.5109 18.3077 16.5036C18.2926 16.4963 18.2792 16.4861 18.2681 16.4736C18.257 16.4612 18.2485 16.4466 18.243 16.4308C18.2376 16.415 18.2353 16.3983 18.2363 16.3817C18.2369 16.3649 18.241 16.3484 18.2482 16.3332C18.2553 16.318 18.2655 16.3044 18.2781 16.2933C18.2907 16.2821 18.3054 16.2737 18.3214 16.2684C18.3374 16.2631 18.3542 16.261 18.371 16.2624C18.493 16.27 18.62 16.2726 18.7446 16.2726C19.1185 16.2723 19.4918 16.24 19.8602 16.1762C19.8766 16.1729 19.8935 16.173 19.9099 16.1766C19.9262 16.1801 19.9417 16.187 19.9553 16.1967C19.9689 16.2065 19.9803 16.2189 19.9888 16.2333C19.9974 16.2476 20.0029 16.2636 20.005 16.2802C20.011 16.3131 20.0036 16.3471 19.9846 16.3747C19.9655 16.4022 19.9364 16.4212 19.9034 16.4273C19.5207 16.4933 19.133 16.5264 18.7446 16.5263ZM16.864 16.2523C16.8519 16.2529 16.8399 16.2512 16.8284 16.2472C16.3316 16.0991 15.8539 15.893 15.4053 15.6332C15.3891 15.6259 15.3747 15.6153 15.3628 15.602C15.351 15.5888 15.3421 15.5732 15.3367 15.5563C15.3312 15.5394 15.3294 15.5216 15.3314 15.5039C15.3333 15.4863 15.3389 15.4692 15.3478 15.4539C15.3568 15.4385 15.3688 15.4252 15.3832 15.4148C15.3976 15.4044 15.4141 15.3972 15.4315 15.3935C15.4489 15.3898 15.4668 15.3899 15.4842 15.3936C15.5016 15.3973 15.518 15.4046 15.5324 15.415C15.9645 15.6638 16.4242 15.8614 16.9021 16.0036C16.9342 16.0141 16.9609 16.0367 16.9766 16.0665C16.9922 16.0964 16.9956 16.1312 16.986 16.1635C16.9779 16.1893 16.9616 16.2119 16.9397 16.2279C16.9177 16.2439 16.8912 16.2524 16.864 16.2523ZM21.3392 15.9935C21.3143 15.9939 21.2899 15.9869 21.2691 15.9733C21.2482 15.9597 21.2319 15.9403 21.2223 15.9174C21.2152 15.9021 21.2113 15.8856 21.2108 15.8687C21.2103 15.8519 21.2132 15.8352 21.2194 15.8195C21.2256 15.8039 21.2349 15.7896 21.2468 15.7777C21.2586 15.7657 21.2728 15.7563 21.2884 15.7499C21.746 15.5517 22.1792 15.3014 22.5793 15.004C22.5928 14.9942 22.6082 14.9871 22.6244 14.9831C22.6407 14.9792 22.6576 14.9785 22.6741 14.9811C22.6906 14.9837 22.7065 14.9895 22.7207 14.9982C22.735 15.007 22.7474 15.0184 22.7572 15.0319C22.767 15.0452 22.7741 15.0603 22.778 15.0763C22.7819 15.0924 22.7826 15.109 22.78 15.1253C22.7774 15.1416 22.7716 15.1572 22.7629 15.1713C22.7542 15.1853 22.7427 15.1974 22.7293 15.207C22.3138 15.517 21.8635 15.7776 21.3875 15.9833C21.3724 15.9903 21.3559 15.9938 21.3392 15.9935ZM14.2491 14.7427C14.2167 14.7425 14.1857 14.7298 14.1627 14.7072C13.7846 14.3525 13.4494 13.9549 13.1639 13.5224C13.1454 13.4941 13.1389 13.4597 13.1458 13.4266C13.1527 13.3936 13.1725 13.3646 13.2008 13.3461C13.2291 13.3276 13.2636 13.3211 13.2967 13.328C13.3298 13.3349 13.3589 13.3546 13.3774 13.3829C13.6522 13.7986 13.9736 14.1816 14.3355 14.5245C14.3476 14.5358 14.3574 14.5493 14.3643 14.5644C14.3712 14.5794 14.3749 14.5957 14.3754 14.6123C14.3759 14.6288 14.373 14.6453 14.367 14.6607C14.3611 14.6761 14.3521 14.6902 14.3405 14.7021C14.329 14.715 14.3149 14.7252 14.2992 14.7322C14.2834 14.7392 14.2663 14.7428 14.2491 14.7427ZM23.761 14.1922C23.7311 14.1926 23.702 14.1817 23.6797 14.1617C23.6668 14.1512 23.6562 14.1382 23.6484 14.1235C23.6407 14.1088 23.6359 14.0927 23.6345 14.0762C23.6331 14.0596 23.635 14.0429 23.6402 14.0271C23.6453 14.0113 23.6536 13.9967 23.6645 13.9841C23.9849 13.6016 24.2603 13.1836 24.4853 12.7385C24.5005 12.7086 24.527 12.6859 24.5589 12.6755C24.5908 12.665 24.6256 12.6676 24.6556 12.6826C24.685 12.6983 24.7073 12.7248 24.7177 12.7564C24.7281 12.7881 24.7259 12.8226 24.7115 12.8526C24.4775 13.3152 24.191 13.7494 23.8576 14.1465C23.8459 14.1608 23.8312 14.1723 23.8145 14.1802C23.7978 14.1881 23.7795 14.1922 23.761 14.1922ZM12.5871 12.2234C12.5611 12.2227 12.536 12.2144 12.5147 12.1995C12.4935 12.1846 12.4771 12.1638 12.4676 12.1397C12.2918 11.6526 12.1725 11.1469 12.1119 10.6327C12.1081 10.5991 12.118 10.5653 12.1392 10.5389C12.1604 10.5125 12.1912 10.4956 12.2249 10.4919C12.2586 10.4882 12.2924 10.498 12.3189 10.5192C12.3453 10.5404 12.3623 10.5712 12.366 10.6048C12.4218 11.0994 12.5361 11.5857 12.7065 12.0535C12.718 12.0851 12.7163 12.1199 12.7021 12.1504C12.6878 12.1808 12.6619 12.2044 12.6303 12.2158C12.6165 12.221 12.6018 12.2236 12.5871 12.2234ZM25.1181 11.4953H25.0901C25.0737 11.4917 25.0582 11.4849 25.0445 11.4753C25.0307 11.4657 25.019 11.4534 25.0101 11.4393C25.0011 11.4251 24.995 11.4093 24.9922 11.3928C24.9893 11.3763 24.9898 11.3594 24.9936 11.3431C25.1084 10.8584 25.1664 10.362 25.1664 9.86398C25.166 9.36694 25.1088 8.87156 24.9961 8.38742C24.9885 8.3548 24.994 8.32048 25.0117 8.29196C25.0293 8.26344 25.0575 8.24303 25.0901 8.2352C25.1228 8.22757 25.1572 8.23316 25.1857 8.25075C25.2143 8.26833 25.2348 8.29649 25.2426 8.32907C25.4798 9.33951 25.4798 10.391 25.2426 11.4014C25.2353 11.4287 25.219 11.4527 25.1965 11.4697C25.1739 11.4867 25.1463 11.4957 25.1181 11.4953ZM12.2389 9.22718H12.2237C12.1901 9.22274 12.1597 9.2054 12.1388 9.17886C12.1179 9.15232 12.1082 9.11867 12.1119 9.08511C12.1724 8.57062 12.2927 8.06489 12.4702 7.57811C12.4816 7.54649 12.5052 7.52071 12.5357 7.50644C12.5662 7.49217 12.6011 7.49057 12.6328 7.50199C12.6643 7.5145 12.6897 7.53858 12.7039 7.56926C12.7181 7.59995 12.7199 7.6349 12.709 7.6669C12.5378 8.13457 12.4227 8.62084 12.366 9.11556C12.3617 9.14628 12.3465 9.17445 12.3232 9.19494C12.2999 9.21543 12.27 9.22687 12.2389 9.22718ZM24.5997 7.05547C24.5762 7.05547 24.5531 7.0491 24.533 7.03703C24.5128 7.02497 24.4964 7.00767 24.4853 6.98697C24.2618 6.54231 23.9871 6.12512 23.667 5.74382C23.6451 5.71825 23.6343 5.68504 23.6369 5.6515C23.6395 5.61796 23.6554 5.58683 23.681 5.56496C23.7066 5.54309 23.7399 5.53228 23.7735 5.53489C23.8071 5.53751 23.8382 5.55335 23.8601 5.57891C24.1939 5.97585 24.4804 6.41004 24.714 6.87281C24.7214 6.88779 24.7257 6.90409 24.7268 6.92075C24.7278 6.93741 24.7256 6.95412 24.7201 6.96991C24.7147 6.98571 24.7062 7.00027 24.6951 7.01278C24.684 7.02528 24.6706 7.03548 24.6556 7.04279C24.6384 7.05203 24.6191 7.05642 24.5997 7.05547ZM13.2732 6.39331C13.2478 6.39283 13.223 6.38489 13.2021 6.37047C13.1742 6.35187 13.1548 6.32304 13.1482 6.29026C13.1415 6.25747 13.1481 6.22338 13.1665 6.19542C13.4519 5.76293 13.7871 5.36529 14.1652 5.01062C14.1771 4.99792 14.1915 4.9878 14.2075 4.98089C14.2235 4.97397 14.2407 4.97042 14.2581 4.97044C14.2755 4.97046 14.2928 4.97405 14.3087 4.981C14.3247 4.98795 14.3391 4.9981 14.351 5.01083C14.3628 5.02355 14.3719 5.03858 14.3778 5.05497C14.3836 5.07137 14.3859 5.08878 14.3847 5.10613C14.3835 5.12348 14.3787 5.14039 14.3707 5.15582C14.3627 5.17125 14.3515 5.18487 14.338 5.19582C13.9768 5.5384 13.6554 5.92053 13.3799 6.33495C13.3683 6.35266 13.3525 6.36724 13.3339 6.37741C13.3153 6.38759 13.2944 6.39304 13.2732 6.39331ZM22.6581 4.74676C22.6308 4.74565 22.6044 4.73686 22.5819 4.72139C22.1825 4.42217 21.7492 4.17097 21.2909 3.97296C21.2739 3.96761 21.2582 3.95874 21.2448 3.94692C21.2314 3.9351 21.2207 3.9206 21.2133 3.90437C21.206 3.88814 21.2021 3.87053 21.202 3.85271C21.2019 3.83488 21.2056 3.81723 21.2127 3.80092C21.2199 3.7846 21.2305 3.76997 21.2437 3.758C21.2569 3.74602 21.2725 3.73696 21.2895 3.73141C21.3065 3.72586 21.3244 3.72395 21.3422 3.72579C21.3599 3.72763 21.3771 3.73318 21.3926 3.74209C21.8687 3.94655 22.3191 4.20627 22.7344 4.51589C22.7477 4.52589 22.759 4.53841 22.7675 4.55274C22.776 4.56708 22.7816 4.58294 22.7839 4.59943C22.7863 4.61592 22.7854 4.63272 22.7812 4.64886C22.7771 4.66499 22.7698 4.68016 22.7598 4.69348C22.7484 4.70986 22.7332 4.72324 22.7155 4.73252C22.6978 4.74179 22.6781 4.74668 22.6581 4.74676ZM15.4714 4.32308C15.4437 4.32279 15.4168 4.31346 15.3949 4.29651C15.373 4.27955 15.3572 4.2559 15.35 4.22916C15.3428 4.20243 15.3446 4.17407 15.355 4.14843C15.3655 4.12278 15.384 4.10126 15.4079 4.08713C15.8567 3.82783 16.3343 3.62178 16.831 3.47317C16.8472 3.46812 16.8642 3.46635 16.8811 3.46797C16.898 3.46959 16.9143 3.47457 16.9293 3.48261C16.9442 3.49064 16.9573 3.50158 16.9679 3.51478C16.9786 3.52797 16.9864 3.54315 16.9911 3.55943C16.9998 3.59171 16.9957 3.62612 16.9796 3.65545C16.9635 3.68478 16.9367 3.70674 16.9047 3.71672C16.4267 3.859 15.967 4.05654 15.5349 4.30532C15.516 4.31734 15.4939 4.32352 15.4714 4.32308ZM19.8856 3.54928H19.8627C19.4935 3.48528 19.1194 3.45303 18.7446 3.45287C18.62 3.45287 18.4955 3.45541 18.3735 3.46302C18.3568 3.46405 18.3401 3.46178 18.3243 3.45634C18.3085 3.4509 18.2939 3.4424 18.2814 3.43132C18.2689 3.42024 18.2587 3.4068 18.2514 3.39178C18.2441 3.37676 18.2398 3.36045 18.2389 3.34378C18.2374 3.31028 18.2491 3.27755 18.2714 3.25246C18.2937 3.22738 18.3248 3.21191 18.3583 3.20931C18.4854 3.2017 18.615 3.19917 18.7446 3.19917C19.1338 3.19902 19.5223 3.23212 19.9059 3.29811C19.9396 3.3008 19.9709 3.31675 19.9928 3.34244C20.0147 3.36813 20.0255 3.40147 20.0228 3.43511C20.0201 3.46875 20.0042 3.49995 19.9784 3.52184C19.9527 3.54372 19.9193 3.55451 19.8856 3.55181V3.54928Z" fill="#78B7FF"/>
<path id="Vector_5" d="M21.7306 8.60286H20.0051V6.87767H17.4842V8.60286H15.7561V11.1196H17.4842V12.8423H20.0051V11.1196H21.7306V8.60286Z" fill="#78B7FF"/>
</g>
</svg>
