<svg width="30" height="21" viewBox="0 0 30 21" fill="none" xmlns="http://www.w3.org/2000/svg">
<path id="Vector" d="M26.2401 3.39039L15 12.0541L3.75986 3.39039M2.43369 0.522522C2.05345 0.522522 1.68879 0.680716 1.41992 0.962302C1.15105 1.24389 1 1.6258 1 2.02402V18.9985C1 19.3967 1.15105 19.7786 1.41992 20.0602C1.68879 20.3418 2.05345 20.5 2.43369 20.5H27.5663C27.9465 20.5 28.3112 20.3418 28.5801 20.0602C28.849 19.7786 29 19.3967 29 18.9985V2.0015C29 1.60328 28.849 1.22137 28.5801 0.939779C28.3112 0.658193 27.9465 0.5 27.5663 0.5H2.43369V0.522522Z" stroke="#2E3A58" stroke-linecap="round" stroke-linejoin="round"/>
</svg>
