<svg width="29" height="29" viewBox="0 0 29 29" fill="none" xmlns="http://www.w3.org/2000/svg">
<g id="Group 5">
<path id="Vector" d="M27.9238 21.9756L25.6719 24.1883C24.8273 25.0189 23.7713 25.6032 22.6182 25.8779C21.465 26.1527 20.2586 26.1074 19.1293 25.7471C14.8097 24.3657 10.8826 21.9753 7.67423 18.7744C4.46576 15.5732 2.07101 11.652 0.68996 7.33838C0.616556 7.10605 0.55554 6.87 0.507166 6.63123C0.291496 7.71147 0.354396 8.82872 0.68996 9.87803C2.07139 14.1915 4.46569 18.1129 7.67324 21.3151C10.8808 24.5173 14.8086 26.9076 19.1293 28.2868C20.2584 28.6471 21.4646 28.6926 22.6177 28.4184C23.7708 28.1441 24.8269 27.5605 25.6719 26.7305L27.9238 24.5153C28.3073 24.1386 28.5486 23.6412 28.6069 23.1072C28.6652 22.5733 28.5369 22.0356 28.2437 21.5853C28.1501 21.7256 28.043 21.8563 27.9238 21.9756Z" fill="#E0E1E2"/>
<path id="Vector_2" d="M9.41103 8.23565C9.37482 8.23513 9.34023 8.22059 9.31455 8.1951L8.44882 7.3308C8.42339 7.30517 8.40913 7.27056 8.40913 7.23449C8.40913 7.19842 8.42339 7.1638 8.44882 7.13818C8.47492 7.11263 8.51001 7.09832 8.54656 7.09832C8.58311 7.09832 8.61821 7.11263 8.64431 7.13818L9.5075 8.00247C9.53293 8.0281 9.54719 8.06271 9.54719 8.09878C9.54719 8.13486 9.53293 8.16947 9.5075 8.1951C9.48183 8.22059 9.44724 8.23513 9.41103 8.23565ZM7.31651 6.14462C7.29851 6.14478 7.28067 6.14127 7.26407 6.13429C7.24748 6.12732 7.2325 6.11703 7.22004 6.10406L5.99125 4.87732C5.96966 4.85106 5.95863 4.81771 5.9603 4.78378C5.96197 4.74984 5.97622 4.71774 6.00029 4.69371C6.02435 4.66969 6.05651 4.65545 6.0905 4.65379C6.12449 4.65212 6.15789 4.66314 6.1842 4.68469L7.41298 5.91143C7.43841 5.93706 7.45268 5.97168 7.45268 6.00775C7.45268 6.04382 7.43841 6.07843 7.41298 6.10406C7.40062 6.11715 7.38565 6.12752 7.36904 6.13451C7.35242 6.14149 7.33453 6.14493 7.31651 6.14462ZM4.85894 3.6886C4.82304 3.68903 4.7884 3.67538 4.76247 3.65058L3.53115 2.4213C3.50572 2.39568 3.49146 2.36106 3.49146 2.32499C3.49146 2.28892 3.50572 2.25431 3.53115 2.22868C3.55725 2.20313 3.59234 2.18883 3.62889 2.18883C3.66544 2.18883 3.70053 2.20313 3.72663 2.22868L4.95542 3.45542C4.981 3.48147 4.99533 3.51651 4.99533 3.553C4.99533 3.58949 4.981 3.62452 4.95542 3.65058C4.92907 3.67472 4.8947 3.68826 4.85894 3.6886Z" fill="#78B7FF"/>
<path id="Vector_3" d="M27.0784 25.4176C27.0603 25.4179 27.0425 25.4145 27.0258 25.4075C27.0092 25.4005 26.9943 25.3902 26.9819 25.3771L25.7506 24.1503C25.7252 24.1247 25.7109 24.0901 25.7109 24.054C25.7109 24.0179 25.7252 23.9833 25.7506 23.9577C25.7767 23.9322 25.8118 23.9178 25.8483 23.9178C25.8849 23.9178 25.92 23.9322 25.9461 23.9577L27.1748 25.1844C27.2003 25.2101 27.2145 25.2447 27.2145 25.2807C27.2145 25.3168 27.2003 25.3514 27.1748 25.3771C27.1624 25.39 27.1474 25.4003 27.1308 25.4073C27.1142 25.4143 27.0964 25.4178 27.0784 25.4176ZM24.6183 22.9641C24.5823 22.9626 24.548 22.9482 24.5218 22.9236L23.293 21.6968C23.2674 21.6708 23.2531 21.6357 23.2531 21.5993C23.2531 21.5628 23.2674 21.5277 23.293 21.5017C23.3187 21.4763 23.3534 21.4621 23.3895 21.4621C23.4256 21.4621 23.4603 21.4763 23.486 21.5017L24.7147 22.731C24.728 22.7433 24.7385 22.7582 24.7457 22.7748C24.7529 22.7913 24.7566 22.8092 24.7566 22.8273C24.7566 22.8453 24.7529 22.8632 24.7457 22.8798C24.7385 22.8963 24.728 22.9113 24.7147 22.9236C24.6891 22.9491 24.6545 22.9636 24.6183 22.9641ZM22.1607 20.5081C22.1427 20.5084 22.1248 20.505 22.1082 20.498C22.0916 20.491 22.0766 20.4807 22.0642 20.4676L20.8329 19.2408C20.8075 19.2152 20.7932 19.1806 20.7932 19.1445C20.7932 19.1084 20.8075 19.0738 20.8329 19.0482C20.859 19.0227 20.8941 19.0083 20.9306 19.0083C20.9672 19.0083 21.0023 19.0227 21.0284 19.0482L22.2572 20.2749C22.2826 20.3006 22.2969 20.3352 22.2969 20.3713C22.2969 20.4073 22.2826 20.4419 22.2572 20.4676C22.2447 20.4805 22.2297 20.4908 22.2131 20.4978C22.1965 20.5048 22.1787 20.5083 22.1607 20.5081Z" fill="#78B7FF"/>
<path id="Vector_4" d="M20.9321 12.9449C17.6621 12.9449 14.9735 10.4711 14.6409 7.2953C14.6184 7.51593 14.6073 7.73759 14.6079 7.95937C14.6079 11.447 17.4387 14.273 20.9321 14.273C24.4255 14.273 27.2563 11.447 27.2563 7.95937C27.256 7.73754 27.2442 7.51589 27.2207 7.2953C26.8882 10.4711 24.1996 12.9449 20.9321 12.9449Z" fill="#E0E1E2"/>
<path id="Vector_5" d="M20.9321 14.6532C19.3795 14.6543 17.8745 14.1177 16.6738 13.1351C15.473 12.1524 14.6508 10.7845 14.3471 9.26439C14.0435 7.74428 14.2772 6.16609 15.0086 4.79879C15.74 3.43149 16.9236 2.3597 18.3579 1.76609C19.7922 1.17248 21.3882 1.09379 22.8741 1.54343C24.3599 1.99307 25.6436 2.94321 26.5064 4.23192C27.3691 5.52062 27.7575 7.06814 27.6054 8.61072C27.4533 10.1533 26.77 11.5955 25.6721 12.6915C25.0511 13.315 24.3125 13.8095 23.4989 14.1462C22.6853 14.4829 21.8128 14.6553 20.9321 14.6532ZM20.9321 2.0259C19.5577 2.02634 18.2259 2.50251 17.1638 3.37331C16.1016 4.2441 15.3747 5.45563 15.107 6.80148C14.8392 8.14732 15.0472 9.54421 15.6954 10.7541C16.3437 11.9641 17.3921 12.9122 18.662 13.4369C19.9319 13.9617 21.3448 14.0306 22.66 13.6319C23.9751 13.2333 25.1111 12.3917 25.8744 11.2507C26.6377 10.1096 26.9811 8.73961 26.8461 7.37412C26.711 6.00863 26.1059 4.73212 25.1338 3.76209C24.5832 3.20984 23.9283 2.77204 23.2071 2.47403C22.4859 2.17602 21.7126 2.02371 20.9321 2.0259Z" fill="#2E3A58"/>
<path id="Vector_6" d="M20.9321 12.8892C20.3345 12.8894 19.7418 12.7812 19.1829 12.5698C19.1488 12.5567 19.1212 12.5308 19.106 12.4976C19.0908 12.4645 19.0893 12.4267 19.1017 12.3924C19.1081 12.3755 19.1179 12.3601 19.1303 12.3471C19.1427 12.334 19.1576 12.3235 19.1742 12.3162C19.1907 12.3089 19.2085 12.3049 19.2265 12.3045C19.2446 12.3041 19.2625 12.3073 19.2794 12.3138C19.8073 12.5139 20.3674 12.6162 20.9321 12.6154C20.9501 12.6154 20.968 12.619 20.9846 12.6258C21.0012 12.6327 21.0163 12.6428 21.0291 12.6555C21.0418 12.6682 21.0519 12.6833 21.0588 12.6999C21.0657 12.7165 21.0692 12.7343 21.0692 12.7523C21.0692 12.7703 21.0657 12.7881 21.0588 12.8047C21.0519 12.8213 21.0418 12.8364 21.0291 12.8491C21.0163 12.8618 21.0012 12.8719 20.9846 12.8787C20.968 12.8856 20.9501 12.8892 20.9321 12.8892ZM21.5415 12.8511C21.5079 12.8513 21.4754 12.8389 21.4505 12.8164C21.4256 12.7939 21.4101 12.7629 21.4069 12.7295C21.4026 12.6939 21.4123 12.6581 21.4342 12.6296C21.456 12.6012 21.4882 12.5824 21.5237 12.5774C22.0835 12.5064 22.6256 12.3337 23.1231 12.0679C23.1549 12.0532 23.1911 12.0511 23.2243 12.0622C23.2575 12.0732 23.2852 12.0965 23.3018 12.1273C23.3183 12.1581 23.3225 12.194 23.3133 12.2278C23.3042 12.2615 23.2825 12.2905 23.2526 12.3087C22.7262 12.591 22.1521 12.774 21.5592 12.8486L21.5415 12.8511ZM17.751 11.6827C17.7176 11.683 17.6851 11.6713 17.6596 11.6497C17.2123 11.2544 16.8407 10.7812 16.5628 10.2532C16.5544 10.2376 16.5492 10.2204 16.5475 10.2028C16.5457 10.1851 16.5475 10.1673 16.5527 10.1503C16.5579 10.1333 16.5664 10.1176 16.5777 10.1039C16.589 10.0902 16.603 10.079 16.6187 10.0707C16.6507 10.0536 16.6882 10.0499 16.7229 10.0603C16.7576 10.0708 16.7868 10.0946 16.804 10.1264C17.0677 10.6247 17.4195 11.0712 17.8424 11.4444C17.869 11.4687 17.8852 11.5023 17.8876 11.5382C17.8899 11.5741 17.8783 11.6095 17.8551 11.6371C17.8419 11.6515 17.8258 11.6631 17.8079 11.6709C17.79 11.6788 17.7706 11.6828 17.751 11.6827ZM24.5423 11.2518C24.5162 11.2511 24.4907 11.2431 24.4689 11.2287C24.447 11.2143 24.4297 11.194 24.4188 11.1702C24.408 11.1465 24.404 11.1201 24.4075 11.0942C24.4109 11.0683 24.4216 11.0438 24.4382 11.0237C24.8113 10.6012 25.1038 10.1141 25.3014 9.58658C25.316 9.55568 25.3417 9.53135 25.3734 9.51838C25.405 9.50541 25.4404 9.50474 25.4726 9.51649C25.5047 9.52825 25.5313 9.55158 25.5471 9.5819C25.5628 9.61223 25.5667 9.64735 25.5579 9.68036C25.348 10.2391 25.0383 10.7552 24.6439 11.2036C24.6318 11.2189 24.6163 11.2312 24.5987 11.2396C24.5811 11.2479 24.5618 11.2521 24.5423 11.2518ZM16.1668 8.6792C16.1333 8.67948 16.1009 8.66752 16.0756 8.64558C16.0504 8.62363 16.034 8.59322 16.0297 8.56007C16.0064 8.36068 15.9945 8.16012 15.9942 7.95938C15.9933 7.56486 16.0402 7.17169 16.1338 6.7884C16.1422 6.75312 16.1643 6.72262 16.1953 6.70361C16.2262 6.6846 16.2635 6.67863 16.2988 6.68701C16.3343 6.69601 16.3649 6.71859 16.3839 6.74989C16.4029 6.78118 16.4088 6.81869 16.4004 6.8543C16.311 7.21588 16.2658 7.58694 16.2658 7.95938C16.2662 8.14917 16.2781 8.33876 16.3013 8.52712C16.3038 8.54498 16.3027 8.56315 16.298 8.58055C16.2933 8.59796 16.2851 8.61424 16.274 8.62843C16.2629 8.64262 16.249 8.65443 16.2332 8.66315C16.2174 8.67187 16.2 8.67733 16.182 8.6792H16.1668ZM25.733 8.0709C25.6967 8.0709 25.6618 8.05648 25.6361 8.03081C25.6104 8.00514 25.5959 7.97033 25.5959 7.93403C25.5932 7.37046 25.4874 6.81213 25.2837 6.28655C25.2712 6.25291 25.2725 6.21575 25.2872 6.18305C25.3019 6.15034 25.3289 6.12471 25.3624 6.11166C25.3792 6.10512 25.3972 6.10197 25.4152 6.10239C25.4333 6.1028 25.4511 6.10677 25.4676 6.11407C25.4841 6.12137 25.499 6.13186 25.5114 6.14493C25.5239 6.158 25.5336 6.1734 25.5401 6.19023C25.7551 6.74672 25.8669 7.3376 25.8701 7.93403C25.8701 7.952 25.8666 7.9698 25.8597 7.98641C25.8528 8.00301 25.8427 8.0181 25.83 8.03081C25.8172 8.04352 25.8021 8.0536 25.7855 8.06048C25.7689 8.06736 25.751 8.0709 25.733 8.0709ZM16.9741 5.3817C16.9471 5.38162 16.9206 5.3737 16.898 5.35889C16.8829 5.34895 16.8699 5.33609 16.8599 5.32105C16.8499 5.30602 16.8431 5.28912 16.8397 5.27138C16.8364 5.25363 16.8367 5.23541 16.8406 5.21778C16.8445 5.20016 16.8519 5.1835 16.8624 5.16879C17.2014 4.67789 17.6263 4.25203 18.1166 3.91164C18.1463 3.89092 18.1829 3.88275 18.2186 3.88892C18.2543 3.8951 18.2861 3.91511 18.307 3.94459C18.3275 3.97451 18.3353 4.01133 18.3286 4.04697C18.322 4.08261 18.3014 4.11416 18.2715 4.13468C17.8084 4.45627 17.4075 4.85903 17.0884 5.3234C17.0752 5.34138 17.0581 5.35602 17.0382 5.36615C17.0184 5.37628 16.9964 5.3816 16.9741 5.3817ZM24.5093 4.90266C24.4901 4.90273 24.4711 4.8987 24.4536 4.89083C24.4361 4.88296 24.4205 4.87144 24.4078 4.85704C24.0313 4.43755 23.5824 4.089 23.0825 3.828C23.0662 3.81997 23.0518 3.80874 23.0399 3.79498C23.0281 3.78122 23.0192 3.76521 23.0138 3.74792C23.0083 3.73064 23.0064 3.71243 23.0082 3.69439C23.01 3.67635 23.0154 3.65886 23.0241 3.64297C23.0414 3.61113 23.0704 3.58724 23.105 3.57636C23.1396 3.56548 23.177 3.56846 23.2095 3.58468C23.7389 3.86017 24.2138 4.22946 24.6109 4.67455C24.6351 4.70191 24.6477 4.7377 24.6458 4.7742C24.6439 4.81071 24.6277 4.84501 24.6007 4.86971C24.5754 4.89168 24.5428 4.90343 24.5093 4.90266ZM19.7668 3.44527C19.7364 3.44504 19.7069 3.4347 19.683 3.41589C19.6591 3.39707 19.6421 3.37085 19.6348 3.34135C19.6303 3.32404 19.6292 3.306 19.6318 3.28828C19.6343 3.27056 19.6404 3.25353 19.6496 3.23818C19.6588 3.22283 19.671 3.20948 19.6855 3.1989C19.6999 3.18833 19.7164 3.18075 19.7338 3.17661C20.3137 3.03262 20.9148 2.99399 21.5084 3.06255C21.5423 3.06905 21.5725 3.08807 21.593 3.11581C21.6134 3.14355 21.6227 3.17798 21.6188 3.21221C21.615 3.24645 21.5983 3.27798 21.5722 3.30051C21.5461 3.32304 21.5125 3.33491 21.478 3.33375C21.2967 3.31352 21.1145 3.30336 20.9321 3.30334C20.5505 3.30292 20.1703 3.34888 19.7998 3.4402L19.7668 3.44527Z" fill="#78B7FF"/>
<path id="Vector_7" d="M21.8942 7.13562V5.21187H19.9672V7.13562H18.0403V9.05937H19.9672V10.9857H21.8942V9.05937H23.8212V7.13562H21.8942Z" fill="#78B7FF"/>
<path id="Vector_8" d="M21.1099 28.9762C20.3981 28.9762 19.6907 28.8659 19.0128 28.6492C14.6347 27.2512 10.6549 24.8284 7.40536 21.5828C4.15525 18.3379 1.72851 14.365 0.327161 9.99464C-0.0550682 8.80183 -0.103365 7.52739 0.187494 6.30915C0.478353 5.09091 1.0973 3.97525 1.97739 3.08282L4.19631 0.832103C4.44799 0.577369 4.74764 0.374823 5.07801 0.236113C5.40839 0.0974039 5.76297 0.0252687 6.12137 0.0238554C6.47976 0.0224421 6.83491 0.0917784 7.16637 0.227878C7.49783 0.363977 7.79907 0.564154 8.05276 0.816895L10.9368 3.69872C11.1889 3.95033 11.3889 4.24905 11.5254 4.57783C11.6618 4.90661 11.732 5.259 11.732 5.61487C11.732 5.97075 11.6618 6.32314 11.5254 6.65191C11.3889 6.98069 11.1889 7.27941 10.9368 7.53102L9.69791 8.7679C9.48933 8.97648 9.34573 9.24091 9.28445 9.52923C9.22318 9.81754 9.24686 10.1174 9.35263 10.3926C10.358 13.0032 11.4548 14.8484 12.8029 16.1942C14.151 17.5401 15.9992 18.6351 18.6167 19.6388C18.8918 19.7441 19.1915 19.7679 19.4798 19.7072C19.768 19.6465 20.0326 19.5039 20.2416 19.2966L21.4805 18.0572C21.9903 17.5493 22.681 17.2642 23.4011 17.2642C24.1213 17.2642 24.812 17.5493 25.3217 18.0572L28.2058 20.939C28.4589 21.1921 28.6594 21.4926 28.7957 21.8233C28.932 22.154 29.0014 22.5083 29 22.8659C28.9986 23.2235 28.9263 23.5773 28.7874 23.9069C28.6485 24.2365 28.4457 24.5355 28.1906 24.7865L25.9387 27.0017C24.6509 28.2669 22.9166 28.976 21.1099 28.9762ZM19.2464 27.9243C20.3089 28.2636 21.444 28.3065 22.5292 28.0483C23.6143 27.7901 24.608 27.2406 25.403 26.4593L27.6574 24.2441C27.8408 24.0634 27.9866 23.8483 28.0864 23.6112C28.1862 23.374 28.2381 23.1195 28.239 22.8623C28.2399 22.6051 28.1899 22.3502 28.0919 22.1124C27.9938 21.8745 27.8496 21.6584 27.6676 21.4763L24.7835 18.5945C24.4166 18.2291 23.9194 18.0239 23.4011 18.0239C22.8828 18.0239 22.3857 18.2291 22.0188 18.5945L20.7798 19.8339C20.4668 20.1456 20.07 20.3601 19.6375 20.4515C19.2049 20.5428 18.7552 20.507 18.3426 20.3484C15.6235 19.3042 13.6915 18.156 12.2646 16.7316C10.8378 15.3071 9.68775 13.3809 8.64176 10.6638C8.48294 10.2517 8.44734 9.8024 8.53927 9.37049C8.63121 8.93858 8.84673 8.54259 9.15968 8.23057L10.3986 6.99369C10.7645 6.62778 10.97 6.13189 10.97 5.61487C10.97 5.09785 10.7645 4.60196 10.3986 4.23606L7.51453 1.35423C7.33329 1.17305 7.11798 1.0294 6.88096 0.931536C6.64395 0.833669 6.38991 0.783513 6.13342 0.783946H6.1258C5.86749 0.783935 5.61178 0.835503 5.37372 0.935617C5.13566 1.03573 4.92006 1.18237 4.73961 1.3669L2.52069 3.61508C1.7381 4.4087 1.18773 5.40082 0.92909 6.48413C0.670451 7.56745 0.71339 8.70074 1.05326 9.76146C2.41563 14.0177 4.77774 17.887 7.94254 21.0465C11.1073 24.206 14.9831 26.5642 19.2464 27.9243Z" fill="#2E3A58"/>
</g>
</svg>
