<svg width="28" height="28" viewBox="0 0 28 28" fill="none" xmlns="http://www.w3.org/2000/svg">
<g id="time-svgrepo-com (3) 1" clip-path="url(#clip0_52_580)">
<path id="time_1_" d="M14.0001 27.44C6.58881 27.44 0.560059 21.4112 0.560059 14C0.560059 6.58875 6.58881 0.559998 14.0001 0.559998C21.4113 0.559998 27.4401 6.58875 27.4401 14C27.4401 21.4112 21.4113 27.44 14.0001 27.44ZM13.6851 24.5H14.3151V26.8065C21.1296 26.642 26.6412 21.1295 26.8066 14.315H24.5001V13.685H26.8066C26.6412 6.87137 21.1287 1.35887 14.3151 1.1935V3.5H13.6851V1.1935C6.87143 1.35887 1.35893 6.87137 1.19356 13.685H3.50006V14.315H1.19356C1.35893 21.1295 6.87056 26.6411 13.6851 26.8065V24.5ZM19.9046 17.773L13.6851 14.182V5.25H14.3151V13.818L20.2196 17.227L19.9046 17.773Z" fill="#2E3A58"/>
</g>
<defs>
<clipPath id="clip0_52_580">
<rect width="28" height="28" fill="white"/>
</clipPath>
</defs>
</svg>
