<svg width="181" height="79" viewBox="0 0 181 79" fill="none" xmlns="http://www.w3.org/2000/svg">
<g clip-path="url(#clip0_2_12)">
<path d="M72.904 11.8222C65.1235 4.51518 52.8922 4.89892 45.5852 12.6796L39.5001 19.159L33.4149 12.6796C26.1079 4.89892 13.8767 4.51518 6.0961 11.8222C-1.68445 19.1292 -2.06834 31.3605 5.23899 39.1407L39.5001 72.4166L73.7612 39.1409C81.0682 31.3605 80.6846 19.1292 72.904 11.8222Z" fill="#78B7FF"/>
<path d="M72.9041 11.8222C65.1235 4.51518 52.8922 4.89892 45.5852 12.6796L39.5001 19.159V72.4168L73.7612 39.141C81.0682 31.3605 80.6846 19.1292 72.9041 11.8222Z" fill="#306DB3"/>
<path d="M50.4723 37.3055H43.8889V30.7223H35.1113V37.3055H28.5279V46.0833H35.1113V52.6667H43.8889V46.0833H50.4723V37.3055Z" fill="white"/>
</g>
<path d="M105.475 35V21.275L99.575 31.8H98.3L92.375 21.275V35H90.125V17.25H92.5L98.925 28.775L105.375 17.25H107.725V35H105.475ZM117.181 35.25C116.198 35.25 115.298 35.075 114.481 34.725C113.664 34.3583 112.964 33.8667 112.381 33.25C111.798 32.6333 111.339 31.9167 111.006 31.1C110.689 30.2667 110.531 29.3917 110.531 28.475C110.531 27.5583 110.689 26.6917 111.006 25.875C111.339 25.0583 111.798 24.3417 112.381 23.725C112.981 23.1083 113.689 22.625 114.506 22.275C115.323 21.9083 116.223 21.725 117.206 21.725C118.189 21.725 119.081 21.9083 119.881 22.275C120.698 22.6417 121.389 23.1333 121.956 23.75C122.523 24.35 122.956 25.0583 123.256 25.875C123.573 26.675 123.731 27.5083 123.731 28.375C123.731 28.5583 123.723 28.725 123.706 28.875C123.706 29.025 123.698 29.1417 123.681 29.225H112.856C112.906 29.875 113.056 30.4667 113.306 31C113.556 31.5333 113.881 31.9917 114.281 32.375C114.681 32.7583 115.131 33.0583 115.631 33.275C116.148 33.4917 116.689 33.6 117.256 33.6C117.656 33.6 118.048 33.55 118.431 33.45C118.814 33.3333 119.173 33.1833 119.506 33C119.839 32.8167 120.131 32.5917 120.381 32.325C120.648 32.0583 120.848 31.7583 120.981 31.425L122.881 31.95C122.664 32.4333 122.364 32.875 121.981 33.275C121.614 33.675 121.181 34.025 120.681 34.325C120.198 34.6083 119.656 34.8333 119.056 35C118.456 35.1667 117.831 35.25 117.181 35.25ZM121.656 27.6C121.606 26.9833 121.448 26.4167 121.181 25.9C120.931 25.3667 120.606 24.9167 120.206 24.55C119.823 24.1833 119.373 23.9 118.856 23.7C118.339 23.4833 117.789 23.375 117.206 23.375C116.623 23.375 116.073 23.4833 115.556 23.7C115.039 23.9 114.581 24.1917 114.181 24.575C113.798 24.9417 113.481 25.3833 113.231 25.9C112.998 26.4167 112.856 26.9833 112.806 27.6H121.656ZM131.551 35.25C130.651 35.25 129.818 35.0667 129.051 34.7C128.285 34.3333 127.626 33.8417 127.076 33.225C126.526 32.6083 126.093 31.8917 125.776 31.075C125.476 30.2583 125.326 29.4 125.326 28.5C125.326 27.5833 125.468 26.7167 125.751 25.9C126.051 25.0667 126.46 24.3417 126.976 23.725C127.51 23.1083 128.135 22.625 128.851 22.275C129.585 21.9083 130.385 21.725 131.251 21.725C132.301 21.725 133.235 22 134.051 22.55C134.885 23.1 135.543 23.7667 136.026 24.55V16.75H138.226V32.3C138.226 32.8167 138.46 33.0833 138.926 33.1V35C138.693 35.0333 138.501 35.0583 138.351 35.075C138.218 35.0917 138.085 35.1 137.951 35.1C137.518 35.1 137.135 34.9583 136.801 34.675C136.485 34.375 136.326 34.0333 136.326 33.65V32.55C135.81 33.4 135.118 34.0667 134.251 34.55C133.401 35.0167 132.501 35.25 131.551 35.25ZM132.076 33.35C132.476 33.35 132.885 33.275 133.301 33.125C133.735 32.975 134.135 32.7667 134.501 32.5C134.885 32.2333 135.21 31.925 135.476 31.575C135.76 31.2083 135.943 30.825 136.026 30.425V26.675C135.876 26.2583 135.651 25.8667 135.351 25.5C135.051 25.1167 134.71 24.7917 134.326 24.525C133.96 24.2417 133.56 24.025 133.126 23.875C132.71 23.7083 132.293 23.625 131.876 23.625C131.226 23.625 130.635 23.7667 130.101 24.05C129.585 24.3167 129.135 24.6833 128.751 25.15C128.385 25.6 128.101 26.125 127.901 26.725C127.701 27.3083 127.601 27.9083 127.601 28.525C127.601 29.175 127.718 29.8 127.951 30.4C128.185 30.9833 128.501 31.4917 128.901 31.925C129.301 32.3583 129.768 32.7083 130.301 32.975C130.851 33.225 131.443 33.35 132.076 33.35ZM141.899 35V21.95H144.099V35H141.899ZM141.899 19.5V16.75H144.099V19.5H141.899ZM146.786 28.45C146.786 27.5333 146.944 26.6667 147.261 25.85C147.577 25.0333 148.027 24.325 148.611 23.725C149.194 23.1083 149.886 22.625 150.686 22.275C151.502 21.9083 152.411 21.725 153.411 21.725C154.711 21.725 155.827 22.0167 156.761 22.6C157.711 23.1667 158.427 23.9333 158.911 24.9L156.761 25.575C156.427 24.9583 155.961 24.4833 155.361 24.15C154.761 23.8 154.094 23.625 153.361 23.625C152.761 23.625 152.194 23.75 151.661 24C151.127 24.2333 150.669 24.5667 150.286 25C149.902 25.4333 149.594 25.9417 149.361 26.525C149.144 27.1083 149.036 27.75 149.036 28.45C149.036 29.1333 149.152 29.775 149.386 30.375C149.619 30.975 149.927 31.5 150.311 31.95C150.711 32.3833 151.169 32.725 151.686 32.975C152.219 33.225 152.786 33.35 153.386 33.35C153.769 33.35 154.144 33.3 154.511 33.2C154.894 33.0833 155.236 32.9333 155.536 32.75C155.852 32.5667 156.127 32.3583 156.361 32.125C156.594 31.875 156.761 31.6083 156.861 31.325L159.011 31.975C158.811 32.4583 158.527 32.9 158.161 33.3C157.811 33.7 157.394 34.0417 156.911 34.325C156.427 34.6083 155.886 34.8333 155.286 35C154.702 35.1667 154.086 35.25 153.436 35.25C152.452 35.25 151.552 35.0667 150.736 34.7C149.919 34.3333 149.219 33.8417 148.636 33.225C148.052 32.6083 147.594 31.8917 147.261 31.075C146.944 30.2417 146.786 29.3667 146.786 28.45ZM164.854 35.25C164.237 35.25 163.662 35.15 163.129 34.95C162.595 34.7333 162.129 34.4417 161.729 34.075C161.345 33.7083 161.037 33.2833 160.804 32.8C160.587 32.3 160.479 31.7583 160.479 31.175C160.479 30.575 160.612 30.0333 160.879 29.55C161.145 29.05 161.52 28.625 162.004 28.275C162.504 27.925 163.087 27.65 163.754 27.45C164.437 27.25 165.179 27.15 165.979 27.15C166.612 27.15 167.254 27.2083 167.904 27.325C168.554 27.4417 169.129 27.6 169.629 27.8V26.75C169.629 25.6833 169.329 24.85 168.729 24.25C168.129 23.6333 167.279 23.325 166.179 23.325C164.862 23.325 163.479 23.8333 162.029 24.85L161.304 23.425C162.987 22.2917 164.679 21.725 166.379 21.725C168.095 21.725 169.429 22.1833 170.379 23.1C171.345 24.0167 171.829 25.3083 171.829 26.975V32.3C171.829 32.8167 172.062 33.0833 172.529 33.1V35C172.295 35.0333 172.104 35.0583 171.954 35.075C171.804 35.0917 171.645 35.1 171.479 35.1C171.045 35.1 170.695 34.975 170.429 34.725C170.179 34.4583 170.029 34.1417 169.979 33.775L169.929 32.85C169.345 33.6333 168.604 34.2333 167.704 34.65C166.82 35.05 165.87 35.25 164.854 35.25ZM165.429 33.6C166.212 33.6 166.937 33.4583 167.604 33.175C168.287 32.875 168.804 32.4833 169.154 32C169.47 31.6833 169.629 31.3583 169.629 31.025V29.1C168.562 28.6833 167.454 28.475 166.304 28.475C165.204 28.475 164.304 28.7083 163.604 29.175C162.92 29.6417 162.579 30.25 162.579 31C162.579 31.3667 162.645 31.7083 162.779 32.025C162.929 32.3417 163.129 32.6167 163.379 32.85C163.645 33.0833 163.954 33.2667 164.304 33.4C164.654 33.5333 165.029 33.6 165.429 33.6ZM175.396 16.75H177.596V31.625C177.596 32.1083 177.721 32.4917 177.971 32.775C178.238 33.0417 178.605 33.175 179.071 33.175C179.255 33.175 179.471 33.15 179.721 33.1C179.971 33.0333 180.205 32.9583 180.421 32.875L180.771 34.65C180.405 34.8 179.971 34.925 179.471 35.025C178.971 35.125 178.53 35.175 178.146 35.175C177.296 35.175 176.621 34.9333 176.121 34.45C175.638 33.9667 175.396 33.2917 175.396 32.425V16.75Z" fill="#306DB3"/>
<path d="M88.975 50C88.975 48.9333 89.1583 47.875 89.525 46.825C89.9083 45.7583 90.4583 44.8083 91.175 43.975C91.9083 43.125 92.8 42.4417 93.85 41.925C94.9 41.4083 96.0917 41.15 97.425 41.15C99.0083 41.15 100.367 41.5083 101.5 42.225C102.633 42.9417 103.475 43.875 104.025 45.025L102.25 46.175C101.983 45.6083 101.658 45.1333 101.275 44.75C100.908 44.3667 100.5 44.0583 100.05 43.825C99.6167 43.5917 99.1667 43.425 98.7 43.325C98.2333 43.225 97.775 43.175 97.325 43.175C96.3417 43.175 95.4667 43.3833 94.7 43.8C93.95 44.2 93.3167 44.7333 92.8 45.4C92.2833 46.05 91.8917 46.7917 91.625 47.625C91.375 48.4417 91.25 49.2667 91.25 50.1C91.25 51.0333 91.4 51.925 91.7 52.775C92.0167 53.6083 92.45 54.35 93 55C93.55 55.65 94.2 56.1667 94.95 56.55C95.7 56.9333 96.5167 57.125 97.4 57.125C97.8667 57.125 98.3417 57.0667 98.825 56.95C99.325 56.8333 99.8 56.65 100.25 56.4C100.7 56.1333 101.117 55.8083 101.5 55.425C101.9 55.025 102.225 54.55 102.475 54L104.35 55.025C104.067 55.6917 103.667 56.2833 103.15 56.8C102.65 57.3 102.075 57.725 101.425 58.075C100.792 58.425 100.117 58.6917 99.4 58.875C98.6833 59.0583 97.9833 59.15 97.3 59.15C96.0833 59.15 94.9667 58.8833 93.95 58.35C92.9333 57.8167 92.05 57.125 91.3 56.275C90.5667 55.4083 89.9917 54.4333 89.575 53.35C89.175 52.25 88.975 51.1333 88.975 50ZM110.166 59.25C109.549 59.25 108.974 59.15 108.441 58.95C107.908 58.7333 107.441 58.4417 107.041 58.075C106.658 57.7083 106.349 57.2833 106.116 56.8C105.899 56.3 105.791 55.7583 105.791 55.175C105.791 54.575 105.924 54.0333 106.191 53.55C106.458 53.05 106.833 52.625 107.316 52.275C107.816 51.925 108.399 51.65 109.066 51.45C109.749 51.25 110.491 51.15 111.291 51.15C111.924 51.15 112.566 51.2083 113.216 51.325C113.866 51.4417 114.441 51.6 114.941 51.8V50.75C114.941 49.6833 114.641 48.85 114.041 48.25C113.441 47.6333 112.591 47.325 111.491 47.325C110.174 47.325 108.791 47.8333 107.341 48.85L106.616 47.425C108.299 46.2917 109.991 45.725 111.691 45.725C113.408 45.725 114.741 46.1833 115.691 47.1C116.658 48.0167 117.141 49.3083 117.141 50.975V56.3C117.141 56.8167 117.374 57.0833 117.841 57.1V59C117.608 59.0333 117.416 59.0583 117.266 59.075C117.116 59.0917 116.958 59.1 116.791 59.1C116.358 59.1 116.008 58.975 115.741 58.725C115.491 58.4583 115.341 58.1417 115.291 57.775L115.241 56.85C114.658 57.6333 113.916 58.2333 113.016 58.65C112.133 59.05 111.183 59.25 110.166 59.25ZM110.741 57.6C111.524 57.6 112.249 57.4583 112.916 57.175C113.599 56.875 114.116 56.4833 114.466 56C114.783 55.6833 114.941 55.3583 114.941 55.025V53.1C113.874 52.6833 112.766 52.475 111.616 52.475C110.516 52.475 109.616 52.7083 108.916 53.175C108.233 53.6417 107.891 54.25 107.891 55C107.891 55.3667 107.958 55.7083 108.091 56.025C108.241 56.3417 108.441 56.6167 108.691 56.85C108.958 57.0833 109.266 57.2667 109.616 57.4C109.966 57.5333 110.341 57.6 110.741 57.6ZM127.559 47.875C126.459 47.9083 125.484 48.1917 124.634 48.725C123.8 49.2583 123.209 50 122.859 50.95V59H120.659V45.95H122.709V48.975C123.159 48.075 123.75 47.35 124.484 46.8C125.217 46.2333 126 45.9167 126.834 45.85C127 45.85 127.142 45.85 127.259 45.85C127.375 45.85 127.475 45.8583 127.559 45.875V47.875ZM135.223 59.25C134.24 59.25 133.34 59.075 132.523 58.725C131.706 58.3583 131.006 57.8667 130.423 57.25C129.84 56.6333 129.381 55.9167 129.048 55.1C128.731 54.2667 128.573 53.3917 128.573 52.475C128.573 51.5583 128.731 50.6917 129.048 49.875C129.381 49.0583 129.84 48.3417 130.423 47.725C131.023 47.1083 131.731 46.625 132.548 46.275C133.365 45.9083 134.265 45.725 135.248 45.725C136.231 45.725 137.123 45.9083 137.923 46.275C138.74 46.6417 139.431 47.1333 139.998 47.75C140.565 48.35 140.998 49.0583 141.298 49.875C141.615 50.675 141.773 51.5083 141.773 52.375C141.773 52.5583 141.765 52.725 141.748 52.875C141.748 53.025 141.74 53.1417 141.723 53.225H130.898C130.948 53.875 131.098 54.4667 131.348 55C131.598 55.5333 131.923 55.9917 132.323 56.375C132.723 56.7583 133.173 57.0583 133.673 57.275C134.19 57.4917 134.731 57.6 135.298 57.6C135.698 57.6 136.09 57.55 136.473 57.45C136.856 57.3333 137.215 57.1833 137.548 57C137.881 56.8167 138.173 56.5917 138.423 56.325C138.69 56.0583 138.89 55.7583 139.023 55.425L140.923 55.95C140.706 56.4333 140.406 56.875 140.023 57.275C139.656 57.675 139.223 58.025 138.723 58.325C138.24 58.6083 137.698 58.8333 137.098 59C136.498 59.1667 135.873 59.25 135.223 59.25ZM139.698 51.6C139.648 50.9833 139.49 50.4167 139.223 49.9C138.973 49.3667 138.648 48.9167 138.248 48.55C137.865 48.1833 137.415 47.9 136.898 47.7C136.381 47.4833 135.831 47.375 135.248 47.375C134.665 47.375 134.115 47.4833 133.598 47.7C133.081 47.9 132.623 48.1917 132.223 48.575C131.84 48.9417 131.523 49.3833 131.273 49.9C131.04 50.4167 130.898 50.9833 130.848 51.6H139.698Z" fill="#306DB3"/>
<defs>
<clipPath id="clip0_2_12">
<rect width="79" height="79" fill="white"/>
</clipPath>
</defs>
</svg>
