<svg width="19" height="19" viewBox="0 0 19 19" fill="none" xmlns="http://www.w3.org/2000/svg">
<g id="fe:phone">
<g id="fePhone0">
<g id="fePhone1">
<path id="fePhone2" fill-rule="evenodd" clip-rule="evenodd" d="M3.18567 7.125L3.16667 7.07037C2.73917 5.84567 2.375 4.17208 2.375 3.16667C2.375 2.73125 2.73125 2.375 3.16667 2.375H5.54167C5.96159 2.375 6.36432 2.54181 6.66125 2.83875C6.95818 3.13568 7.125 3.53841 7.125 3.95833V5.54167C7.125 5.96159 6.95818 6.36432 6.66125 6.66125C6.36432 6.95818 5.96159 7.125 5.54167 7.125H4.87904C5.51821 8.6996 6.46667 10.13 7.66832 11.3317C8.86997 12.5333 10.3004 13.4818 11.875 14.121V13.4583C11.875 13.0384 12.0418 12.6357 12.3387 12.3387C12.6357 12.0418 13.0384 11.875 13.4583 11.875H15.0417C15.4616 11.875 15.8643 12.0418 16.1613 12.3387C16.4582 12.6357 16.625 13.0384 16.625 13.4583V15.8333C16.625 16.1896 16.1896 16.625 15.8333 16.625C14.4677 16.625 13.11 16.264 11.875 15.8333C7.82642 14.383 4.617 11.1736 3.18567 7.125Z" fill="#78B7FF"/>
</g>
</g>
</g>
</svg>
